<?xml version="1.0" encoding="UTF-8"?>
<svg version="1.1" xmlns="http://www.w3.org/2000/svg" width="533" height="533">
<path d="M0 0 C175.89 0 351.78 0 533 0 C533 175.89 533 351.78 533 533 C357.11 533 181.22 533 0 533 C0 357.11 0 181.22 0 0 Z " fill="#FEFDFD" transform="translate(0,0)"/>
<path d="M0 0 C1.08225357 -0.00855011 1.08225357 -0.00855011 2.18637085 -0.01727295 C3.71098379 -0.02669011 5.23561678 -0.03324383 6.76025391 -0.03710938 C9.05799363 -0.04675766 11.35481569 -0.07778707 13.65234375 -0.109375 C22.0796845 -0.16919119 29.41322394 0.41237819 37.4609375 3.203125 C38.5953125 3.5125 39.7296875 3.821875 40.8984375 4.140625 C44.13999844 5.10740633 47.36573376 6.10513927 50.5859375 7.140625 C51.57851563 7.45902344 52.57109375 7.77742187 53.59375 8.10546875 C56.48095024 9.21078655 58.93009156 10.42782464 61.4609375 12.203125 C61.4609375 12.863125 61.4609375 13.523125 61.4609375 14.203125 C63.4409375 14.863125 65.4209375 15.523125 67.4609375 16.203125 C67.4609375 16.863125 67.4609375 17.523125 67.4609375 18.203125 C68.50701172 18.52216797 68.50701172 18.52216797 69.57421875 18.84765625 C84.8047125 25.99918714 95.49888222 45.98340075 101.0546875 61.05859375 C110.0913274 87.13455927 104.94499729 114.74717225 100.4609375 141.203125 C117.2909375 141.203125 134.1209375 141.203125 151.4609375 141.203125 C154.90882461 160.74115196 154.90882461 160.74115196 155.94384766 167.12304688 C156.12792946 168.24945304 156.12792946 168.24945304 156.31573009 169.39861488 C156.71159205 171.82285618 157.10585435 174.24735412 157.5 176.671875 C157.78490269 178.41967822 158.06987253 180.16747049 158.35490417 181.91525269 C159.11077051 186.5526865 159.86498453 191.19038746 160.61865616 195.82817841 C161.08972468 198.72642562 161.56121815 201.62460343 162.0328064 204.52276611 C166.19755454 230.12210256 170.31628508 255.72781427 174.33618164 281.3503418 C176.85650919 297.41235199 179.4305685 313.46517663 182.0234375 329.515625 C185.15645363 348.91098572 188.18765973 368.31989585 191.15008545 387.74200439 C193.332464 402.03879988 195.60314229 416.3155719 198.0184021 430.5748291 C199.88587632 441.60455482 201.61881806 452.64814777 203.25897217 463.71389771 C204.46321237 471.83108018 205.73273703 479.93288331 207.10546875 488.0234375 C207.24439545 488.84402649 207.38332214 489.66461548 207.52645874 490.5100708 C208.20300702 494.49719535 208.88720557 498.48281778 209.58203125 502.46679688 C209.82957389 503.91273529 210.0769768 505.35869764 210.32421875 506.8046875 C210.54376221 508.06619629 210.76330566 509.32770508 210.98950195 510.62744141 C211.4609375 514.203125 211.4609375 514.203125 211.4609375 521.203125 C150.7409375 521.203125 90.0209375 521.203125 27.4609375 521.203125 C29.76028945 518.90377305 31.11087122 518.59700641 34.2109375 517.765625 C38.24256325 516.61455825 41.7510525 515.18173033 45.4609375 513.203125 C49.11107168 511.56685795 52.56781897 510.10415243 56.4609375 509.203125 C56.72269775 507.33817383 56.72269775 507.33817383 56.98974609 505.43554688 C58.76904112 492.83037627 60.65813772 480.24498936 62.62304688 467.66748047 C63.09428048 464.64969647 63.56287897 461.63151073 64.03125 458.61328125 C64.33318029 456.67445533 64.63525786 454.73565233 64.9375 452.796875 C65.07604401 451.9042395 65.21458801 451.011604 65.35733032 450.09191895 C65.98074067 446.1102206 66.62102435 442.14636022 67.4609375 438.203125 C66.56632812 438.73421875 65.67171875 439.2653125 64.75 439.8125 C54.49022462 445.83751675 44.38903116 450.04717923 32.99267578 453.45385742 C29.15454531 454.59720783 29.15454531 454.59720783 25.5234375 456.2578125 C22.13251492 457.81198535 18.50440444 458.15008978 14.8359375 458.703125 C13.20943076 458.95964316 11.58312608 459.21744601 9.95703125 459.4765625 C9.17827637 459.59999023 8.39952148 459.72341797 7.59716797 459.85058594 C5.01581378 460.27658313 2.45782353 460.78632764 -0.1015625 461.328125 C-9.27965077 463.20813918 -18.32276679 463.39605458 -27.6640625 463.390625 C-28.94764648 463.39054443 -30.23123047 463.39046387 -31.55371094 463.39038086 C-55.49594557 463.24624193 -55.49594557 463.24624193 -58.5390625 460.203125 C-59.4671875 460.120625 -60.3953125 460.038125 -61.3515625 459.953125 C-74.98080185 458.17907112 -86.87746201 448.92653657 -95.59765625 438.81640625 C-106.07066183 424.82987622 -105.5390625 410.49328076 -105.5390625 393.203125 C-36.8990625 393.203125 31.7409375 393.203125 102.4609375 393.203125 C103.4509375 385.613125 104.4409375 378.023125 105.4609375 370.203125 C106.1494505 365.55210101 106.84623736 360.90798308 107.5859375 356.265625 C107.92294405 354.13167897 108.25890822 351.99756803 108.59375 349.86328125 C108.73699707 348.96230713 108.88024414 348.06133301 109.02783203 347.13305664 C109.96765383 340.77522044 110.62303397 334.61106288 110.6640625 328.1796875 C110.67107681 327.44025909 110.67809113 326.70083069 110.68531799 325.93899536 C110.702713 323.56864253 110.70916907 321.19853929 110.7109375 318.828125 C110.71161224 318.0194397 110.71228699 317.21075439 110.71298218 316.37756348 C110.69750677 304.72559308 110.39891477 293.54040018 107.4609375 282.203125 C107.29464844 281.54618652 107.12835938 280.88924805 106.95703125 280.21240234 C101.10075398 257.68200228 89.17084879 235.23166645 69.3359375 222.140625 C66.4609375 220.203125 66.4609375 220.203125 64.8984375 218.578125 C62.98420997 216.74712475 60.93576561 216.0726592 58.4609375 215.203125 C58.4609375 214.543125 58.4609375 213.883125 58.4609375 213.203125 C56.82125 212.8628125 56.82125 212.8628125 55.1484375 212.515625 C51.52618537 211.62448687 48.33110592 210.29655191 44.9609375 208.703125 C41.15733513 206.91626784 37.61882753 205.53743493 33.515625 204.6640625 C31.4609375 204.203125 31.4609375 204.203125 29.15625 203.4921875 C6.82637668 196.63712001 -29.67468015 193.98364377 -51.5390625 203.203125 C-53.15618703 203.55410862 -54.78208492 203.86689074 -56.4140625 204.140625 C-60.78502928 204.9605848 -64.45640994 206.42160388 -68.5390625 208.203125 C-69.8384375 208.43 -71.1378125 208.656875 -72.4765625 208.890625 C-78.69171725 210.13151648 -84.10393491 213.32262182 -89.671875 216.23046875 C-92.13496847 217.51614772 -94.53937275 218.6218341 -97.11328125 219.69921875 C-100.71215454 221.27911181 -103.95227347 223.17761472 -107.2265625 225.328125 C-107.83177734 225.72281982 -108.43699219 226.11751465 -109.06054688 226.52416992 C-140.46862525 247.23130222 -164.77843775 273.97065692 -180.5390625 308.203125 C-181.33763672 309.92595703 -181.33763672 309.92595703 -182.15234375 311.68359375 C-202.3339436 357.00093295 -209.79706383 412.88585761 -192.5390625 460.203125 C-186.91453473 473.98496477 -178.7441661 485.43691605 -168.5390625 496.203125 C-167.44464844 497.35941406 -167.44464844 497.35941406 -166.328125 498.5390625 C-161.94201711 503.06163326 -161.94201711 503.06163326 -156.5390625 506.203125 C-156.5390625 506.863125 -156.5390625 507.523125 -156.5390625 508.203125 C-155.8584375 508.44933594 -155.1778125 508.69554687 -154.4765625 508.94921875 C-150.33772195 510.71593127 -146.55569325 513.04832118 -142.7109375 515.36914062 C-139.33536974 517.35412123 -136.44253797 518.72258351 -132.5390625 519.203125 C-132.5390625 519.863125 -132.5390625 520.523125 -132.5390625 521.203125 C-180.0590625 521.203125 -227.5790625 521.203125 -276.5390625 521.203125 C-275.90701428 516.14673927 -275.33910358 511.92544041 -274.04296875 507.12841797 C-273.58371002 505.41334297 -273.58371002 505.41334297 -273.11517334 503.66362 C-272.78068176 502.43657852 -272.44619019 501.20953705 -272.1015625 499.9453125 C-271.74648855 498.6279107 -271.39186567 497.31038724 -271.03765869 495.99275208 C-270.07920259 492.433126 -269.11387449 488.87539713 -268.14710999 485.31801987 C-267.32366712 482.28466229 -266.50421995 479.25023097 -265.68474197 476.21580029 C-259.77236552 454.32454828 -253.79315217 432.45151755 -247.78125 410.58740234 C-240.66098572 384.68960015 -233.59934467 358.77586121 -226.53642654 332.86236954 C-210.7582386 274.97352905 -210.7582386 274.97352905 -205.49609375 255.796875 C-205.3137254 255.13227453 -205.13135704 254.46767406 -204.94346237 253.78293419 C-203.42510606 248.25043437 -201.90555708 242.71826281 -200.38476562 237.18643188 C-196.56390738 223.2873519 -192.76955064 209.38148653 -189.00821495 195.46619797 C-188.3369752 192.98313253 -187.66534791 190.50017222 -186.99360657 188.01724243 C-186.55000505 186.37738396 -186.10641676 184.73752191 -185.6628418 183.09765625 C-185.44430825 182.28975332 -185.22577471 181.4818504 -185.00061893 180.64946556 C-183.7075998 175.86768206 -182.41788699 171.08502143 -181.13062763 166.30168438 C-180.34050749 163.36817986 -179.54769071 160.43540897 -178.75419044 157.50281715 C-178.38370722 156.13111773 -178.0144391 154.75908949 -177.64642906 153.38672447 C-177.14301049 151.50983757 -176.63511122 149.63415417 -176.12695312 147.75854492 C-175.84291626 146.70422775 -175.55887939 145.64991058 -175.26623535 144.56364441 C-174.5390625 142.203125 -174.5390625 142.203125 -173.5390625 141.203125 C-171.91231472 141.10972066 -170.28152199 141.08567329 -168.65209961 141.08959961 C-167.61109604 141.08967514 -166.57009247 141.08975067 -165.49754333 141.08982849 C-164.3652681 141.09498978 -163.23299286 141.10015106 -162.06640625 141.10546875 C-160.33723717 141.10759117 -160.33723717 141.10759117 -158.57313538 141.10975647 C-154.87425186 141.11537495 -151.17542786 141.12793058 -147.4765625 141.140625 C-144.97591233 141.14563762 -142.47526121 141.15020094 -139.97460938 141.15429688 C-133.82940662 141.16535038 -127.68423881 141.18210648 -121.5390625 141.203125 C-121.48572754 140.25518066 -121.43239258 139.30723633 -121.37744141 138.33056641 C-119.53041726 107.90608008 -112.52174024 78.68623006 -93.5390625 54.203125 C-92.87519531 53.336875 -92.21132812 52.470625 -91.52734375 51.578125 C-83.19263264 41.0437684 -73.74927343 30.66706043 -62.109375 23.76171875 C-59.58490765 22.23092472 -57.23459507 20.56911739 -54.8515625 18.828125 C-42.051612 9.82075242 -28.00500529 4.89031876 -12.5390625 3.203125 C-12.5390625 2.543125 -12.5390625 1.883125 -12.5390625 1.203125 C-8.35315322 0.19770082 -4.2831633 0.02663604 0 0 Z " fill="#CF3439" transform="translate(304.5390625,-0.203125)"/>
<path d="M0 0 C1.94827786 1.40448143 3.75390701 2.89420983 5.5703125 4.46484375 C6.35535156 5.08488281 7.14039063 5.70492187 7.94921875 6.34375 C23.58280373 19.30411129 31.58490928 38.83071125 33.81835938 58.66796875 C35.22066519 76.18891334 31.21241947 94.29114846 28.5703125 111.46484375 C8.7703125 111.46484375 -11.0296875 111.46484375 -31.4296875 111.46484375 C-31.7596875 113.11484375 -32.0896875 114.76484375 -32.4296875 116.46484375 C-38.45571553 129.24669559 -48.10915383 136.38044227 -60.4296875 142.46484375 C-67.32710797 144.92333025 -77.6105236 144.66643353 -84.3671875 141.90234375 C-92.50335509 137.52015179 -97.67326174 131.86156016 -101.4296875 123.46484375 C-102.0896875 119.83484375 -102.7496875 116.20484375 -103.4296875 112.46484375 C-122.5696875 112.13484375 -141.7096875 111.80484375 -161.4296875 111.46484375 C-161.4296875 74.48890373 -148.18344258 42.3006498 -122.16796875 16.1953125 C-89.28901863 -14.83589497 -39.19861982 -24.76697362 0 0 Z " fill="#FEFDFD" transform="translate(360.4296875,29.53515625)"/>
<path d="M0 0 C17.16 0 34.32 0 52 0 C54.24944262 8.9977705 54.24944262 8.9977705 54.89453125 13.2644043 C55.11677368 14.71364792 55.11677368 14.71364792 55.34350586 16.19216919 C55.57565796 17.74253372 55.57565796 17.74253372 55.8125 19.32421875 C56.16405929 21.62377979 56.51562195 23.92334031 56.8671875 26.22290039 C57.14320801 28.04266891 57.14320801 28.04266891 57.42480469 29.89920044 C58.41904224 36.44735829 59.42697856 42.99340152 60.4375 49.5390625 C60.54212555 50.21724344 60.6467511 50.89542439 60.75454712 51.59415627 C63.07190383 66.59969787 65.52490476 81.58221767 68 96.5625 C71.1885747 115.88609007 74.33107006 135.21556622 77.375 154.5625 C77.55368622 155.6981842 77.73237244 156.83386841 77.91647339 158.00396729 C78.86025304 164.00540813 79.8026362 170.00706751 80.74462891 176.00878906 C83.17483571 191.48645545 85.61939067 206.96186604 88.0625 222.4375 C88.19181412 223.25670803 88.32112823 224.07591606 88.45436096 224.91994858 C91.66213121 245.24082093 94.8752596 265.5607887 98.125 285.875 C98.27711945 286.82717407 98.42923889 287.77934814 98.58596802 288.76037598 C100.37087838 299.9293811 102.17624321 311.09490897 104.00338745 322.25708008 C104.82540125 327.27936888 105.64387122 332.30223391 106.46174049 337.32519913 C107.14376672 341.51142494 107.83080445 345.69678781 108.52167702 349.88156223 C109.05006855 353.09090221 109.57129333 356.30140814 110.09375 359.51171875 C110.28705902 360.67282669 110.48036804 361.83393463 110.67953491 363.03022766 C110.9416124 364.65241463 110.9416124 364.65241463 111.20898438 366.30737305 C111.36250366 367.24244186 111.51602295 368.17751068 111.67419434 369.14091492 C112.04648511 372.40792688 112 375.71184435 112 379 C51.28 379 -9.44 379 -72 379 C-68.3156841 375.3156841 -62.24066749 375.94616873 -57.24157715 375.91770935 C-55.46503377 375.9323806 -53.68853211 375.95289655 -51.91210938 375.97827148 C-50.44732147 375.9926828 -50.44732147 375.9926828 -48.95294189 376.00738525 C-45.74979963 376.04016448 -42.54680292 376.08057606 -39.34375 376.12109375 C-37.11316428 376.1454155 -34.88257329 376.16925801 -32.65197754 376.19264221 C-26.79941777 376.25527869 -20.94695211 376.32440262 -15.09448242 376.39489746 C-9.11511497 376.46576614 -3.13568114 376.53047197 2.84375 376.59570312 C14.56257297 376.72445182 26.28130573 376.86005718 38 377 C37.99827789 376.07267059 37.99655579 375.14534119 37.99478149 374.18991089 C37.9853469 365.49369838 38.10831846 356.81710122 38.375 348.125 C38.39611847 347.41916779 38.41723694 346.71333557 38.43899536 345.9861145 C38.68683703 337.81522893 38.99377931 329.65080082 39.44140625 321.48828125 C39.50081139 320.40235687 39.50081139 320.40235687 39.56141663 319.29449463 C39.64421366 317.78533756 39.72704412 316.27618232 39.80990601 314.76702881 C39.85201202 313.9982843 39.89411804 313.22953979 39.9375 312.4375 C39.98000885 311.66198792 40.0225177 310.88647583 40.0663147 310.08746338 C41.22563599 288.51653418 41.70221019 266.91838301 42.24343872 245.32492733 C42.32081936 242.24988784 42.40016462 239.17490017 42.47957993 236.09991264 C42.53304673 233.98951527 42.58307554 231.87905725 42.63284302 229.76856995 C42.81644308 222.59322085 43.13778516 215.44755927 43.61699009 208.28592682 C44.1320068 200.36403517 44.37707309 192.43396221 44.63075256 184.50012207 C44.72126014 181.67155222 44.81481276 178.84309611 44.90905762 176.01464844 C45.1086291 170.00984943 45.3046009 164.00493604 45.5 158 C45.72683675 151.02893297 45.95524284 144.05792435 46.18751526 137.08703613 C46.27856737 134.33119422 46.36683673 131.57527294 46.45495605 128.81933594 C46.70691031 121.13599326 47.00581979 113.46770483 47.51367188 105.79663086 C48.01108042 98.28148517 48.26355406 90.77718639 48.44555664 83.2493 C48.50176964 80.93092157 48.56195333 78.61267303 48.62304688 76.29441833 C48.77375385 70.55032774 48.91893173 64.80610173 49.0625 59.06182861 C49.18478144 54.17045155 49.31007603 49.27917162 49.43969727 44.38798332 C49.49858224 42.12098803 49.55307007 39.85391502 49.60742188 37.58680725 C49.89881804 26.22064799 49.89881804 26.22064799 50.53125 21.49584961 C51.23991326 14.69895698 51 7.83373639 51 1 C34.17 1 17.34 1 0 1 C0 0.67 0 0.34 0 0 Z " fill="#B83237" transform="translate(404,142)"/>
<path d="M0 0 C0.66 0 1.32 0 2 0 C2.185625 1.1446875 2.185625 1.1446875 2.375 2.3125 C2.88102792 5.20267136 2.88102792 5.20267136 5 8 C5.43357755 9.87598437 5.78085595 11.77245404 6.078125 13.67480469 C6.26632309 14.855168 6.45452118 16.03553131 6.64842224 17.25166321 C6.8469429 18.5453331 7.04546356 19.83900299 7.25 21.171875 C7.46553534 22.54101229 7.68174266 23.91004394 7.89857483 25.27897644 C8.3632393 28.22169079 8.82322261 31.16508507 9.27957153 34.10910034 C10.00650202 38.79857602 10.74359343 43.48641994 11.48217773 48.17407227 C12.49960805 54.63709813 13.51276704 61.1007789 14.52294922 67.56494141 C16.47879622 80.07636886 18.46394962 92.58310384 20.45126343 105.08956909 C21.06567092 108.95746198 21.67904656 112.82551741 22.29223633 116.69360352 C25.12216231 134.53528907 27.98599054 152.37133802 30.86717606 170.20479965 C37.06408945 208.56166485 37.06408945 208.56166485 39.625 224.625 C39.83058029 225.91416321 39.83058029 225.91416321 40.04031372 227.22937012 C41.73854208 237.89376743 43.39901393 248.56358401 45.03125 259.23828125 C45.20414047 260.36833588 45.37703094 261.4983905 45.55516052 262.66268921 C46.25042391 267.2093094 46.94543608 271.75596279 47.63650513 276.30322266 C49.99826411 291.86895107 49.99826411 291.86895107 52.65234375 307.38671875 C52.83718323 308.41402351 52.83718323 308.41402351 53.02575684 309.46208191 C53.56902959 312.46471822 54.12885595 315.46264343 54.71728516 318.45678711 C55.9162817 324.89868729 56.04987587 330.52204248 55 337 C50.76363697 332.93816878 47.06160116 328.56195851 43.375 324 C42.80265625 323.30132812 42.2303125 322.60265625 41.640625 321.8828125 C38.79084602 318.37029422 36.31507245 314.89286068 34 311 C33.34 310.67 32.68 310.34 32 310 C32 309.34 32 308.68 32 308 C31.34 308 30.68 308 30 308 C29.05598958 306.2421875 28.11197917 304.484375 27.16796875 302.7265625 C25.95236507 300.69497635 25.95236507 300.69497635 23 299 C23 298.01 23 297.02 23 296 C22.34 296 21.68 296 21 296 C20.505 294.02 20.505 294.02 20 292 C19.34 292 18.68 292 18 292 C18 291.34 18 290.68 18 290 C17.01 289.67 16.02 289.34 15 289 C15 288.01 15 287.02 15 286 C14.34 286 13.68 286 13 286 C11.36593179 282.73186358 11.64906513 279.0952892 11.4909668 275.49560547 C11.42711052 274.1639183 11.42711052 274.1639183 11.36196423 272.80532837 C11.22015139 269.82613136 11.08474002 266.84667683 10.94921875 263.8671875 C10.84987574 261.75633807 10.75010494 259.64550873 10.64993286 257.53469849 C10.4361167 253.01266654 10.2250073 248.49051947 10.01602173 243.96826172 C9.68731985 236.85753224 9.35257984 229.74709616 9.01635742 222.63671875 C8.96038926 221.45281178 8.9044211 220.2689048 8.84675694 219.04912186 C8.73334899 216.6502932 8.61992435 214.25146533 8.50648308 211.85263824 C8.33524481 208.22752321 8.16457661 204.6023817 7.99403381 200.97723389 C7.01236552 180.13022948 5.98576187 159.28564515 4.93552017 138.44199371 C4.81520848 136.05376436 4.69508836 133.66552546 4.57504272 131.27728271 C4.27554037 125.31921047 3.97594702 119.36114299 3.67512512 113.40313721 C3.27474849 105.47185874 2.87693065 97.54045939 2.48242188 89.60888672 C1.45839518 68.90036533 1.45839518 68.90036533 0.3671875 48.1953125 C0.282543 46.63020882 0.19790714 45.06510468 0.11328125 43.5 C-0.00722963 41.27426817 -0.12932343 39.04866792 -0.25537109 36.82324219 C-0.73944264 28.23232185 -1.08415972 19.66042751 -1.1171875 11.0546875 C-1.12227325 10.29116974 -1.12735901 9.52765198 -1.13259888 8.74099731 C-1.12640576 5.55958826 -1.01343094 3.04029281 0 0 Z " fill="#CE3439" transform="translate(459,180)"/>
<path d="M0 0 C9.29384463 8.53474474 12.59108489 20.55198781 13.18359375 32.79296875 C13.37049978 41.53578563 12.35746571 49.17647289 11 58 C-27.61 58 -66.22 58 -106 58 C-102.51474261 45.22072291 -102.51474261 45.22072291 -99.25 39 C-98.72067871 37.97555786 -98.72067871 37.97555786 -98.18066406 36.93041992 C-90.49266033 22.25379285 -77.60147721 2.33197949 -61.05712891 -3.70947266 C-59.38540055 -4.19112863 -57.69373571 -4.60259902 -56 -5 C-56 -5.66 -56 -6.32 -56 -7 C-39.01154001 -13.88721351 -13.85401954 -12.29192122 0 0 Z " fill="#CE3438" transform="translate(314,275)"/>
<path d="M0 0 C3.64217768 1.32442825 6.35351902 3.27010212 8.9375 6.1875 C10.67149589 10.77748912 10.9582149 15.28235095 9.30859375 19.9609375 C6.75698518 24.85063091 2.9576347 28.52118265 -2 31 C-6.36210879 31.49893401 -10.96102884 32.00145931 -14.98828125 30.0234375 C-17.74670403 27.79205828 -20.02346651 25.41786722 -21 22 C-21.45301512 16.38261252 -21.25782406 12.78492908 -18 8 C-12.33167748 2.38963579 -8.32212955 -1.0815764 0 0 Z " fill="#FBF7F7" transform="translate(191,156)"/>
<path d="M0 0 C3.24722866 2.40755626 4.88308444 4.83501377 5.5234375 8.86328125 C5.64021095 15.43762645 4.02491722 19.73232333 -0.47265625 24.515625 C-5.11586134 28.59630627 -9.10957552 29.63135968 -15.25390625 29.2734375 C-19.40914845 28.42335742 -21.0350637 26.95473419 -23.8125 23.75 C-26.10203131 19.79535502 -26.2793364 16.2627519 -25.8125 11.75 C-23.35906613 6.15617077 -19.95577644 2.11117627 -14.8125 -1.25 C-9.47341615 -2.95021311 -4.74232862 -3.22083152 0 0 Z " fill="#FDF9F9" transform="translate(401.8125,158.25)"/>
<path d="M0 0 C2 3 2 3 2 10 C-58.72 10 -119.44 10 -182 10 C-178.51251415 6.51251415 -173.09504914 7.03702418 -168.36066437 6.87695217 C-167.11440025 6.87787396 -165.86813614 6.87879576 -164.58410645 6.87974548 C-163.88306715 6.87889106 -163.18202785 6.87803663 -162.45974493 6.87715632 C-160.13524579 6.87552294 -157.8108205 6.88098742 -155.48632812 6.88647461 C-153.81029258 6.88675697 -152.13425691 6.88659779 -150.45822144 6.8860321 C-145.92577095 6.88574604 -141.3933471 6.89161191 -136.86090279 6.89860606 C-132.11767844 6.90487139 -127.37445343 6.90544591 -122.63122559 6.90663147 C-113.65708003 6.90973542 -104.6829467 6.91793618 -95.70880651 6.92798096 C-85.48874456 6.93917118 -75.26868201 6.94465987 -65.04861546 6.94967639 C-44.03240349 6.96011959 -23.01620251 6.97770088 -2 7 C-1.34 4.69 -0.68 2.38 0 0 Z " fill="#B24C4D" transform="translate(514,511)"/>
<path d="M0 0 C0.33 0 0.66 0 1 0 C0.42085333 6.01326751 -0.22337945 12.00892722 -1 18 C-1.66 18 -2.32 18 -3 18 C-3.144375 18.886875 -3.28875 19.77375 -3.4375 20.6875 C-3.90950213 23.46706808 -4.44707822 26.23539112 -5 29 C38.56 29 82.12 29 127 29 C127 28.34 127 27.68 127 27 C126.31550781 26.74476563 125.63101563 26.48953125 124.92578125 26.2265625 C121.55038274 24.81150892 118.40025962 23.12741434 115.1875 21.375 C114.59001953 21.05015625 113.99253906 20.7253125 113.37695312 20.390625 C111.91662865 19.59620849 110.45812509 18.79844624 109 18 C109.495 16.515 109.495 16.515 110 15 C110.99 15.33 111.98 15.66 113 16 C113 16.66 113 17.32 113 18 C113.680625 18.24621094 114.36125 18.49242187 115.0625 18.74609375 C119.20134055 20.51280627 122.98336925 22.84519618 126.828125 25.16601562 C130.20369276 27.15099623 133.09652453 28.51945851 137 29 C137 29.66 137 30.32 137 31 C89.48 31 41.96 31 -7 31 C-6.38167943 26.05343547 -5.84383298 21.88328947 -4.58984375 17.1875 C-4.32236328 16.17558594 -4.05488281 15.16367187 -3.77929688 14.12109375 C-3.50150391 13.09113281 -3.22371094 12.06117188 -2.9375 11 C-2.65583984 9.93910156 -2.37417969 8.87820313 -2.08398438 7.78515625 C-1.39396867 5.18882599 -0.69920797 2.59386689 0 0 Z " fill="#B7494A" transform="translate(35,490)"/>
<path d="M0 0 C1 2 1 2 0.0625 5.125 C-0.4634375 6.548125 -0.4634375 6.548125 -1 8 C-1.66 8 -2.32 8 -3 8 C-3.103125 8.639375 -3.20625 9.27875 -3.3125 9.9375 C-3.539375 10.618125 -3.76625 11.29875 -4 12 C-4.99 12.33 -5.98 12.66 -7 13 C-7.66 14.98 -8.32 16.96 -9 19 C-10.98 23.95 -12.96 28.9 -15 34 C22.62 34 60.24 34 99 34 C99.33 23.77 99.66 13.54 100 3 C102.07681415 7.15362829 102.30166654 9.95542802 102.25 14.4375 C102.25773437 16.38462891 102.25773437 16.38462891 102.265625 18.37109375 C101.92620449 24.28599523 100.90088288 30.14426129 100 36 C61.39 36 22.78 36 -17 36 C-15.06716904 28.91295315 -13.49053353 23.18020936 -10.1875 16.875 C-9.84074219 16.19630859 -9.49398437 15.51761719 -9.13671875 14.81835938 C-6.44379775 9.63547649 -3.45700644 4.71409969 0 0 Z " fill="#B14B4D" transform="translate(225,297)"/>
<path d="M0 0 C68.97 0 137.94 0 209 0 C209 0.33 209 0.66 209 1 C140.69 1 72.38 1 2 1 C2 7.93 2 14.86 2 22 C2.66 22 3.32 22 4 22 C6.24828052 26.49656104 6.16682272 30.07872966 6 35 C6.66 35 7.32 35 8 35 C8 35.99 8 36.98 8 38 C8.66 38 9.32 38 10 38 C10 39.32 10 40.64 10 42 C10.66 42 11.32 42 12 42 C12.66 43.98 13.32 45.96 14 48 C5.39211462 40.37587295 1.84768871 30.08613225 0 19 C0 12.73 0 6.46 0 0 Z " fill="#A73134" transform="translate(199,394)"/>
<path d="M0 0 C0.763125 0.309375 1.52625 0.61875 2.3125 0.9375 C4.18789677 1.67893593 6.08684652 2.36228217 8 3 C8 3.66 8 4.32 8 5 C8.69738281 5.21269531 9.39476562 5.42539062 10.11328125 5.64453125 C25.343775 12.79606214 36.03794472 32.78027575 41.59375 47.85546875 C48.18104914 66.86366064 48.13193733 89.3732977 44 109 C43.01 108.01 43.01 108.01 42 107 C42.0234375 104.32421875 42.0234375 104.32421875 42.375 100.6875 C43.05076309 92.37870828 43.15558407 84.08366059 43.1875 75.75 C43.20022949 74.46440186 43.21295898 73.17880371 43.22607422 71.85424805 C43.22752441 70.63906494 43.22897461 69.42388184 43.23046875 68.171875 C43.23457764 67.0797168 43.23868652 65.98755859 43.24291992 64.86230469 C42.99846442 61.98190641 42.39628806 60.47820622 41 58 C40.4002281 55.4138276 39.85794351 52.85690933 39.375 50.25 C39.2409375 49.55261719 39.106875 48.85523438 38.96875 48.13671875 C38.64056736 46.42548068 38.31956498 44.71286829 38 43 C37.34 43 36.68 43 36 43 C35.34 40.36 34.68 37.72 34 35 C33.34 35 32.68 35 32 35 C31.76667969 34.41734375 31.53335937 33.8346875 31.29296875 33.234375 C27.47441172 24.65274154 21.26316271 16.87488273 13.66015625 11.27734375 C13.11230469 10.85582031 12.56445312 10.43429688 12 10 C12 9.34 12 8.68 12 8 C11.319375 7.95875 10.63875 7.9175 9.9375 7.875 C5.78348198 6.63763293 3.01625004 4.05971185 0 1 C0 0.67 0 0.34 0 0 Z " fill="#A63D40" transform="translate(364,13)"/>
<path d="M0 0 C0.66 0.33 1.32 0.66 2 1 C1.79503906 1.76183594 1.59007813 2.52367187 1.37890625 3.30859375 C0.10625776 8.18606477 -1.10030349 12.90302476 -1.5 17.9375 C-1.82938512 21.68845709 -2.95394617 23.80815602 -5 27 C-6.68969635 32.63232116 -7.48555433 38.15156504 -8 44 C-9.485 44.495 -9.485 44.495 -11 45 C-11.12375 46.15242188 -11.2475 47.30484375 -11.375 48.4921875 C-11.91483094 52.8089342 -12.88347981 56.9259132 -14 61.125 C-15.20953587 65.72649515 -16.29554894 70.28898352 -17 75 C-17.66 75 -18.32 75 -19 75 C-19 76.093125 -19 77.18625 -19 78.3125 C-19 80.54166667 -19 82.77083333 -19 85 C-19.66 85 -20.32 85 -21 85 C-21.14042725 85.56170898 -21.28085449 86.12341797 -21.42553711 86.70214844 C-23.28369141 94.13476562 -25.1418457 101.56738281 -27 109 C-27.66 108.67 -28.32 108.34 -29 108 C-26.07155421 95.04073903 -22.68193451 82.23746412 -19.140625 69.43359375 C-18.58556081 67.417724 -18.03077676 65.40177711 -17.47625732 63.38575745 C-16.03237972 58.13925617 -14.58475867 52.89379531 -13.1362915 47.64855957 C-11.65235153 42.27220245 -10.17204266 36.89484579 -8.69140625 31.51757812 C-5.79777605 21.01075058 -2.90018071 10.50502116 0 0 Z " fill="#A63E44" transform="translate(107,227)"/>
<path d="M0 0 C0.33 0 0.66 0 1 0 C0.50152754 6.79735178 -0.17306336 13.5216635 -1.15576172 20.265625 C-4.31183318 42.45284528 -3.39887671 63.90127502 0 86 C-0.99 86.495 -0.99 86.495 -2 87 C-2.309375 85.88625 -2.61875 84.7725 -2.9375 83.625 C-3.82326483 80.2054845 -3.82326483 80.2054845 -5 78 C-5.10088554 76.25003943 -5.13837039 74.49626084 -5.14526367 72.7434082 C-5.15164352 71.644991 -5.15802338 70.54657379 -5.16459656 69.41487122 C-5.16570938 68.22222153 -5.1668222 67.02957184 -5.16796875 65.80078125 C-5.17129715 64.57723434 -5.17462555 63.35368744 -5.17805481 62.09306335 C-5.18312678 59.49799984 -5.18546305 56.90292979 -5.18530273 54.30786133 C-5.18748135 50.34640641 -5.20561279 46.38523343 -5.22460938 42.42382812 C-5.22754484 39.90364679 -5.22952861 37.38346412 -5.23046875 34.86328125 C-5.23765427 33.68075272 -5.24483978 32.49822418 -5.25224304 31.27986145 C-5.23609335 25.43137369 -4.94988676 20.52064598 -3 15 C-2.61239287 12.92262846 -2.25621415 10.83905076 -1.9375 8.75 C-1.46579995 5.67810218 -0.98416961 2.95250882 0 0 Z " fill="#A13438" transform="translate(106,356)"/>
<path d="M0 0 C2.51262901 2.51262901 2.49696677 3.89159777 3.02148438 7.37670898 C3.1950647 8.50225693 3.36864502 9.62780487 3.54748535 10.78746033 C3.72775269 12.01130936 3.90802002 13.23515839 4.09375 14.49609375 C4.28594116 15.75454605 4.47813232 17.01299835 4.67614746 18.30958557 C5.18755474 21.66648114 5.69197467 25.02427279 6.19281006 28.38275146 C6.89497138 33.0794057 7.61024046 37.77408417 8.32385254 42.4690094 C8.70264626 44.96629097 9.07899936 47.46394437 9.45251465 49.96202087 C10.39506846 56.22787647 11.42064192 62.45402822 12.67272949 68.66615295 C13.14085821 72.00449476 12.72788694 74.72450878 12 78 C11.34 77.67 10.68 77.34 10 77 C9.56837584 74.0056074 9.24852106 71.0729938 9 68.0625 C8.44775548 62.1258714 7.80414085 56.35280428 6.50390625 50.52734375 C5.58661949 45.92668845 5.05914705 41.26456414 4.46484375 36.61328125 C4.31144531 35.42089844 4.15804688 34.22851562 4 33 C3.83628906 31.71480469 3.67257812 30.42960937 3.50390625 29.10546875 C3.33301755 26.13811056 3.33301755 26.13811056 2 25 C2 22.66666667 2 20.33333333 2 18 C1.67 17.34 1.34 16.68 1 16 C0.7677354 13.28737884 0.58063765 10.59226874 0.4375 7.875 C0.39431641 7.12089844 0.35113281 6.36679688 0.30664062 5.58984375 C0.2005168 3.72678112 0.09974999 1.86341476 0 0 Z " fill="#A73E42" transform="translate(463,192)"/>
<path d="M0 0 C1.85422763 3.25799335 2.54264588 6.24079629 3.16088867 9.92675781 C3.36417282 11.12190002 3.56745697 12.31704224 3.77690125 13.54840088 C3.98845352 14.83695984 4.2000058 16.1255188 4.41796875 17.453125 C4.64146391 18.7959188 4.86520745 20.13867129 5.08918762 21.48138428 C5.55677078 24.29496466 6.01913803 27.1093454 6.47827148 29.92431641 C7.06466672 33.51498591 7.66723294 37.10272612 8.27424145 40.68996048 C8.74105164 43.46323555 9.19742153 46.2381561 9.65093422 49.01363373 C9.97386102 50.97548168 10.3067967 52.93567377 10.63993835 54.89581299 C11.65912881 61.24644477 12.26797488 66.67050668 11 73 C10.67 73 10.34 73 10 73 C9.86722656 72.01257813 9.73445313 71.02515625 9.59765625 70.0078125 C9.42105469 68.72648437 9.24445313 67.44515625 9.0625 66.125 C8.88847656 64.84882813 8.71445312 63.57265625 8.53515625 62.2578125 C8.18566773 59.12440546 8.18566773 59.12440546 7 57 C6.66133549 54.82326561 6.36838292 52.63934854 6.09765625 50.453125 C5.92785738 49.119776 5.75793141 47.78644317 5.58789062 46.453125 C5.32473694 44.35572894 5.06350108 42.2581225 4.80493164 40.16015625 C4.55358276 38.13211338 4.29474799 36.10512692 4.03515625 34.078125 C3.8844165 32.86543945 3.73367676 31.65275391 3.57836914 30.40332031 C3.01663144 27.09786501 2.05836605 24.17267873 1 21 C0.68115234 18.39111328 0.68115234 18.39111328 0.5859375 15.8203125 C0.54726563 14.8921875 0.50859375 13.9640625 0.46875 13.0078125 C0.4378125 12.05648438 0.406875 11.10515625 0.375 10.125 C0.33632813 9.15046875 0.29765625 8.1759375 0.2578125 7.171875 C0.16406967 4.7814328 0.0783617 2.39098756 0 0 Z " fill="#A73D41" transform="translate(476,273)"/>
<path d="M0 0 C16.83 0 33.66 0 51 0 C51 0.33 51 0.66 51 1 C44.50383484 1.14287256 38.0076587 1.28523716 31.51147461 1.42724609 C29.30086006 1.47563119 27.09024806 1.52413323 24.87963867 1.57275391 C21.70492199 1.64255921 18.53019641 1.71194605 15.35546875 1.78125 C14.36475876 1.80312378 13.37404877 1.82499756 12.35331726 1.84753418 C11.43258926 1.86755493 10.51186127 1.88757568 9.56323242 1.90820312 C8.34744759 1.93485046 8.34744759 1.93485046 7.10710144 1.96203613 C5.40496351 1.99270373 3.70241418 2 2 2 C1.69707031 3.23492187 1.39414063 4.46984375 1.08203125 5.7421875 C-1.0566719 14.40552875 -3.25215968 23.03982894 -5.6875 31.625 C-7.41308669 37.71421536 -8.89321162 43.76173823 -10 50 C-10.99 50 -11.98 50 -13 50 C-9.32401391 33.16244132 -4.57307746 16.61103137 0 0 Z " fill="#A73A3D" transform="translate(130,142)"/>
<path d="M0 0 C17.16 0 34.32 0 52 0 C53.47551674 5.90206698 54.71944808 11.58728299 55.6875 17.5625 C55.82994141 18.37396484 55.97238281 19.18542969 56.11914062 20.02148438 C56.92591438 24.99458228 56.98925453 29.05372734 56 34 C55.01 33.67 54.02 33.34 53 33 C52.93941406 32.09636719 52.87882812 31.19273437 52.81640625 30.26171875 C52.73261719 29.08222656 52.64882813 27.90273437 52.5625 26.6875 C52.48128906 25.51574219 52.40007812 24.34398437 52.31640625 23.13671875 C52.1132629 19.97409042 52.1132629 19.97409042 51 17 C51 11.72 51 6.44 51 1 C34.17 1 17.34 1 0 1 C0 0.67 0 0.34 0 0 Z " fill="#AF363A" transform="translate(404,142)"/>
<path d="M0 0 C0.33 0 0.66 0 1 0 C1.96122056 6.29461682 2.92138425 12.58939424 3.88085938 18.88427734 C4.20647005 21.01972996 4.53231082 23.15514751 4.85839844 25.29052734 C5.63483644 30.37548176 6.40750573 35.46092137 7.17089844 40.54785156 C7.6694191 43.86190216 8.18862191 47.17046931 8.74316406 50.47558594 C8.94393555 51.71856445 9.14470703 52.96154297 9.3515625 54.2421875 C9.61573975 55.79848877 9.61573975 55.79848877 9.88525391 57.38623047 C10.01097962 60.25010168 9.51814081 61.60702253 8 64 C7.67 64 7.34 64 7 64 C5.55000034 57.60873938 4.86338374 51.35383722 4.625 44.8125 C4.31632133 37.08375816 3.28152714 29.56264314 2 21.9375 C1.82162598 20.87184814 1.64325195 19.80619629 1.45947266 18.70825195 C1.02283271 13.99643705 1.02283271 13.99643705 -1 10 C-1.13568319 6.33655389 -1.16461426 3.49384279 0 0 Z " fill="#B43B42" transform="translate(502,432)"/>
<path d="M0 0 C0.66 0.66 1.32 1.32 2 2 C1.64574871 7.05274201 0.27527988 11.44559011 -1.4375 16.1875 C-3.48515356 22.01352714 -4.82175143 27.66313572 -5.640625 33.8046875 C-6 36 -6 36 -7 37 C-7.36760731 39.32817964 -7.70241581 41.6618385 -8 44 C-8.66 44 -9.32 44 -10 44 C-10.103125 44.804375 -10.20625 45.60875 -10.3125 46.4375 C-11.15100373 50.78247386 -12.52821659 54.83457527 -14 59 C-15.24905498 55.4272083 -14.73736571 53.10323513 -13.73657227 49.49707031 C-13.43618546 48.39623108 -13.13579865 47.29539185 -12.8263092 46.16119385 C-12.49304123 44.97878113 -12.15977325 43.79636841 -11.81640625 42.578125 C-11.48205063 41.36300232 -11.14769501 40.14787964 -10.8032074 38.89593506 C-9.91416156 35.67174988 -9.0167631 32.45013156 -8.11523438 29.22943115 C-7.19671413 25.94006168 -6.28925631 22.6476453 -5.38085938 19.35546875 C-3.59742487 12.90078823 -1.80291593 6.44926439 0 0 Z " fill="#A73C41" transform="translate(65,380)"/>
<path d="M0 0 C2.25266802 3.74207053 2.83371843 7.74390041 3.54296875 11.984375 C3.6756868 12.75879944 3.80840485 13.53322388 3.94514465 14.33111572 C4.22322135 15.96789745 4.4978595 17.60526659 4.76928711 19.24316406 C5.18410123 21.72962723 5.61778869 24.21230245 6.05273438 26.6953125 C6.32147619 28.29147117 6.58909048 29.88782018 6.85546875 31.484375 C6.9855986 32.21799255 7.11572845 32.95161011 7.24980164 33.7074585 C8.0577891 38.73129557 7.82807757 42.97564553 7 48 C4.94062812 44.91094218 4.62007567 43.54683859 4.18359375 39.96484375 C3.99700195 38.50401367 3.99700195 38.50401367 3.80664062 37.01367188 C3.68482422 35.99853516 3.56300781 34.98339844 3.4375 33.9375 C3.18932738 31.92539279 2.93817266 29.91365045 2.68359375 27.90234375 C2.57587646 27.01023193 2.46815918 26.11812012 2.35717773 25.19897461 C2.10629923 22.96424294 2.10629923 22.96424294 1 21 C0.84824451 19.40737934 0.75099675 17.80935144 0.68359375 16.2109375 C0.64169922 15.26992188 0.59980469 14.32890625 0.55664062 13.359375 C0.51732422 12.37453125 0.47800781 11.3896875 0.4375 10.375 C0.39431641 9.38242187 0.35113281 8.38984375 0.30664062 7.3671875 C0.20038931 4.91160162 0.09835036 2.45591297 0 0 Z " fill="#A73639" transform="translate(494,386)"/>
<path d="M0 0 C0.66 0.33 1.32 0.66 2 1 C1.56768066 1.39678955 1.13536133 1.7935791 0.68994141 2.20239258 C-7.14954335 9.41825829 -14.85575035 16.61526061 -21.88671875 24.6328125 C-24.16736011 27.18746808 -26.55976165 29.59822425 -29 32 C-26.84210526 23.63157895 -26.84210526 23.63157895 -23.5 21.125 C-22.2625 20.568125 -22.2625 20.568125 -21 20 C-19.04284694 18.39233856 -18.12491151 17.62455756 -17.625 15.125 C-16.6740399 11.89173567 -14.42947259 10.2517063 -12 8 C-11.34 7.34 -10.68 6.68 -10 6 C-9.0409375 5.7834375 -9.0409375 5.7834375 -8.0625 5.5625 C-5.5792202 4.88524187 -4.72067141 3.87029501 -3 2 C-2.01 1.34 -1.02 0.68 0 0 Z " fill="#B13B3E" transform="translate(173,240)"/>
<path d="M0 0 C1.12138618 0.00212242 1.12138618 0.00212242 2.26542664 0.00428772 C4.6392324 0.00985861 7.01294178 0.02240565 9.38671875 0.03515625 C11.00195176 0.04017502 12.61718625 0.04473726 14.23242188 0.04882812 C18.1797243 0.0598185 22.12695522 0.07706293 26.07421875 0.09765625 C26.07421875 0.42765625 26.07421875 0.75765625 26.07421875 1.09765625 C25.16655762 1.11747559 24.25889648 1.13729492 23.32373047 1.15771484 C19.93528758 1.23611292 16.54726373 1.32281545 13.15917969 1.41503906 C11.69669686 1.45316831 10.23412537 1.48804839 8.77148438 1.51953125 C6.66113743 1.56553336 4.55139241 1.62346566 2.44140625 1.68359375 C1.17409668 1.71501465 -0.09321289 1.74643555 -1.39892578 1.77880859 C-4.88402094 2.09388088 -7.63979279 2.95017734 -10.92578125 4.09765625 C-12.24578125 4.09765625 -13.56578125 4.09765625 -14.92578125 4.09765625 C-14.92578125 4.75765625 -14.92578125 5.41765625 -14.92578125 6.09765625 C-15.87839844 6.29101562 -16.83101563 6.484375 -17.8125 6.68359375 C-19.69388672 7.07417969 -19.69388672 7.07417969 -21.61328125 7.47265625 C-23.47533203 7.85550781 -23.47533203 7.85550781 -25.375 8.24609375 C-28.40673315 8.97317607 -31.0483411 9.9386873 -33.92578125 11.09765625 C-37.23828125 11.22265625 -37.23828125 11.22265625 -39.92578125 11.09765625 C-38.59244792 10.43098958 -37.25911458 9.76432292 -35.92578125 9.09765625 C-35.03890625 8.60265625 -34.15203125 8.10765625 -33.23828125 7.59765625 C-26.78727318 4.67644505 -19.9162476 3.86025258 -12.92578125 3.09765625 C-12.92578125 2.43765625 -12.92578125 1.77765625 -12.92578125 1.09765625 C-8.60805881 0.03386956 -4.41835869 -0.03176535 0 0 Z " fill="#C85458" transform="translate(304.92578125,-0.09765625)"/>
<path d="M0 0 C19.14 0 38.28 0 58 0 C58 0.33 58 0.66 58 1 C39.19 1 20.38 1 1 1 C0.67 3.64 0.34 6.28 0 9 C-1.4375 11 -1.4375 11 -3 12 C-3.66 12 -4.32 12 -5 12 C-5.2475 12.61875 -5.495 13.2375 -5.75 13.875 C-7.22047178 16.37480203 -8.41403076 16.83316022 -11 18 C-10.62488281 17.53851563 -10.24976563 17.07703125 -9.86328125 16.6015625 C-9.35152344 15.94929687 -8.83976562 15.29703125 -8.3125 14.625 C-7.81363281 13.99851563 -7.31476563 13.37203125 -6.80078125 12.7265625 C-4.15000516 8.713023 -2.15105152 4.30210304 0 0 Z " fill="#AB3538" transform="translate(329,142)"/>
<path d="M0 0 C0.33 0 0.66 0 1 0 C0.57726975 6.17408662 0.00681884 12.26646482 -1 18.375 C-1.72943538 22.83089871 -2.1565796 27.17867887 -2.375 31.6875 C-2.89312647 40.33923439 -4.9538175 48.60589317 -7 57 C-7.33 57 -7.66 57 -8 57 C-7.52103994 45.06315919 -5.99430786 33.51688452 -4 21.75 C-3.72326645 20.07433287 -3.44722168 18.39855183 -3.171875 16.72265625 C-1.01103827 3.67455182 -1.01103827 3.67455182 0 0 Z " fill="#9E3B3F" transform="translate(372,439)"/>
<path d="M0 0 C0.33 0 0.66 0 1 0 C1 6.93 1 13.86 1 21 C1.66 21 2.32 21 3 21 C5.24828052 25.49656104 5.16682272 29.07872966 5 34 C5.66 34 6.32 34 7 34 C7 34.99 7 35.98 7 37 C7.66 37 8.32 37 9 37 C9 38.32 9 39.64 9 41 C9.66 41 10.32 41 11 41 C11.66 42.98 12.32 44.96 13 47 C3.69702881 38.76022552 -0.1526862 27.28775138 -0.94921875 15.15234375 C-1.03119895 10.0632651 -0.58219558 5.05166623 0 0 Z " fill="#B43B42" transform="translate(200,395)"/>
<path d="M0 0 C3 1 3 1 4 3 C4.04027334 4.81082922 4.01150885 6.62338814 3.94921875 8.43359375 C3.91111084 9.54951904 3.87300293 10.66544434 3.83374023 11.81518555 C3.78548096 13.01054932 3.73722168 14.20591309 3.6875 15.4375 C3.64117432 16.64768799 3.59484863 17.85787598 3.54711914 19.10473633 C3.12227712 29.12795918 2.24847323 39.04857748 1 49 C0.67 49 0.34 49 0 49 C0 32.83 0 16.66 0 0 Z " fill="#A63A3C" transform="translate(415,298)"/>
<path d="M0 0 C2 3 2 3 2 10 C-34.63 9.505 -34.63 9.505 -72 9 C-72 8.67 -72 8.34 -72 8 C-37.35 7.505 -37.35 7.505 -2 7 C-1.34 4.69 -0.68 2.38 0 0 Z " fill="#9A2F33" transform="translate(514,511)"/>
<path d="M0 0 C2 3 2 3 1.41674805 6.16699219 C1.04491098 7.46413512 0.65890602 8.75726852 0.26171875 10.046875 C0.06149612 10.73630188 -0.1387265 11.42572876 -0.34501648 12.13604736 C-0.98849916 14.34454617 -1.64952072 16.54728322 -2.3125 18.75 C-2.96186245 20.93915501 -3.60736938 23.12933537 -4.24784851 25.32110596 C-4.64714919 26.68411195 -5.05194882 28.04552361 -5.46321106 29.40496826 C-6.70053413 33.5861725 -7.44034538 37.68035173 -8 42 C-8.47198357 43.6605018 -8.98665061 45.31009956 -9.5625 46.9375 C-9.83191406 47.70964844 -10.10132813 48.48179687 -10.37890625 49.27734375 C-10.58386719 49.84582031 -10.78882813 50.41429687 -11 51 C-11.66 50.67 -12.32 50.34 -13 50 C-9.32500562 33.16698379 -4.58829318 16.60098523 0 0 Z " fill="#A44045" transform="translate(49,439)"/>
<path d="M0 0 C2 2 2 2 2.1953125 4.1640625 C2.17210937 4.97617187 2.14890625 5.78828125 2.125 6.625 C2.10695313 7.44226563 2.08890625 8.25953125 2.0703125 9.1015625 C2.03550781 10.04128906 2.03550781 10.04128906 2 11 C1.67 11 1.34 11 1 11 C0.87882812 12.00417969 0.75765625 13.00835937 0.6328125 14.04296875 C-0.1960748 20.84703057 -1.04965451 27.64931796 -2 34.4375 C-2.144375 35.48808594 -2.28875 36.53867187 -2.4375 37.62109375 C-2.623125 38.40613281 -2.80875 39.19117188 -3 40 C-3.99 40.495 -3.99 40.495 -5 41 C-5.10643649 35.5504515 -4.77209992 30.38772324 -3.90625 25 C-3.79526978 24.2788501 -3.68428955 23.5577002 -3.56994629 22.81469727 C-3.21891955 20.54221556 -2.85961672 18.27113645 -2.5 16 C-2.25856284 14.44670024 -2.01767245 12.8933154 -1.77734375 11.33984375 C-1.19120433 7.55888392 -0.59764602 3.77915736 0 0 Z " fill="#A93D40" transform="translate(413,352)"/>
<path d="M0 0 C3.15624686 1.38736126 5.19863433 3.00392708 7.5625 5.5 C9.67524223 7.72096733 11.41613626 9.27742417 14 11 C14 11.66 14 12.32 14 13 C14.66 13 15.32 13 16 13 C16.66 15.31 17.32 17.62 18 20 C18.66 20 19.32 20 20 20 C20 20.99 20 21.98 20 23 C20.66 23 21.32 23 22 23 C23.19963643 25.43218059 24.38484438 27.86970578 25.5625 30.3125 C26.07586914 31.34793945 26.07586914 31.34793945 26.59960938 32.40429688 C29.11328125 37.66015625 29.11328125 37.66015625 28 41 C27.74943848 40.49251221 27.49887695 39.98502441 27.24072266 39.4621582 C20.25963596 25.44774539 12.91045897 13.22011556 1.3984375 2.390625 C0.93695313 1.93171875 0.47546875 1.4728125 0 1 C0 0.67 0 0.34 0 0 Z " fill="#A03A3D" transform="translate(379,224)"/>
<path d="M0 0 C2.62961522 3.94442283 1.90125177 5.41863685 1 10 C0.34 12.64 -0.32 15.28 -1 18 C15.5 18 32 18 49 18 C49 18.33 49 18.66 49 19 C32.17 19 15.34 19 -2 19 C-1 6 -1 6 0 0 Z " fill="#FED8D7" transform="translate(407,122)"/>
<path d="M0 0 C-11.21862025 6.82872537 -24.23918581 11.02247669 -37 14 C-37 13.34 -37 12.68 -37 12 C-33.37689672 10.66147204 -29.75121856 9.33006282 -26.125 8 C-25.09246094 7.6184375 -24.05992187 7.236875 -22.99609375 6.84375 C-22.00996094 6.4828125 -21.02382813 6.121875 -20.0078125 5.75 C-18.64100342 5.24726563 -18.64100342 5.24726563 -17.24658203 4.734375 C-15 4 -15 4 -13 4 C-13 3.34 -13 2.68 -13 2 C-11.35 2 -9.7 2 -8 2 C-8 1.34 -8 0.68 -8 0 C-4.94736336 -0.98120464 -3.05263664 -0.98120464 0 0 Z " fill="#B74347" transform="translate(365,442)"/>
<path d="M0 0 C0.75571289 0.00652588 1.51142578 0.01305176 2.29003906 0.01977539 C7.66652343 0.14748694 12.51223619 0.93068534 17.640625 2.62109375 C20.05594633 3.41387779 22.44045474 3.90966045 24.9375 4.375 C26.27292939 4.69983418 27.60711551 5.0300855 28.9375 5.375 C28.9375 6.365 28.9375 7.355 28.9375 8.375 C28.01130859 8.08496094 28.01130859 8.08496094 27.06640625 7.7890625 C26.21949219 7.52867187 25.37257813 7.26828125 24.5 7 C23.67628906 6.74476563 22.85257812 6.48953125 22.00390625 6.2265625 C20.99199219 5.94554687 19.98007812 5.66453125 18.9375 5.375 C18.29417725 5.19565918 17.65085449 5.01631836 16.98803711 4.83154297 C10.74337003 3.25198067 4.79121935 3.13959517 -1.625 3.25 C-2.63369141 3.25902344 -3.64238281 3.26804687 -4.68164062 3.27734375 C-7.14218457 3.30066644 -9.60220896 3.33339237 -12.0625 3.375 C-8.13360805 0.09576735 -4.98107631 -0.09242445 0 0 Z " fill="#EBBEBF" transform="translate(280.0625,262.625)"/>
<path d="M0 0 C4.37580527 4.37580527 5.39737286 9.03430268 5.6875 15.0625 C5.75066406 16.37089844 5.81382812 17.67929688 5.87890625 19.02734375 C6.36797915 35.07209033 6.36797915 35.07209033 5 41 C4.67 41 4.34 41 4 41 C3.98541748 40.38181396 3.97083496 39.76362793 3.95581055 39.12670898 C3.65792267 27.78486485 3.21496938 16.83613724 0.62109375 5.765625 C0 3 0 3 0 0 Z " fill="#9C3338" transform="translate(390,68)"/>
<path d="M0 0 C0.66 0.33 1.32 0.66 2 1 C1.07425608 2.81853256 0.13401005 4.62968883 -0.8125 6.4375 C-1.33457031 7.44683594 -1.85664063 8.45617187 -2.39453125 9.49609375 C-4 12 -4 12 -7 13 C-7.75189632 14.96954217 -8.39776281 16.97966468 -9 19 C-9.54743114 20.38289528 -10.11237501 21.75894164 -10.69140625 23.12890625 C-10.99626953 23.85400391 -11.30113281 24.57910156 -11.61523438 25.32617188 C-12.24874245 26.82177342 -12.88417215 28.31656241 -13.52148438 29.81054688 C-15.07930596 33.52484336 -16.41929011 36.98276032 -17 41 C-17.66 40.67 -18.32 40.34 -19 40 C-15.95558698 25.31704971 -8.73030682 12.05060968 0 0 Z " fill="#9E3F43" transform="translate(209,57)"/>
<path d="M0 0 C-2.55761716 1.7050781 -4.60859564 2.72088666 -7.4375 3.8125 C-8.32824219 4.16570313 -9.21898437 4.51890625 -10.13671875 4.8828125 C-12.02953379 5.62134606 -13.92799065 6.34559652 -15.83203125 7.0546875 C-24.29738997 10.34110521 -31.52531453 14.92473279 -39 20 C-39 17 -39 17 -37.4375 15 C-35.02582142 13.0211868 -32.76129833 12.00152189 -29.90161133 10.81640625 C-26.89987313 9.52768979 -24.0258007 7.99973369 -21.125 6.5 C-6.97595151 -0.67509208 -6.97595151 -0.67509208 0 0 Z " fill="#AC3C3F" transform="translate(288,18)"/>
<path d="M0 0 C-0.98072521 2.54359211 -1.51405018 3.75272887 -3.98828125 5.01171875 C-4.75527344 5.23472656 -5.52226562 5.45773438 -6.3125 5.6875 C-7.45138672 6.03361328 -7.45138672 6.03361328 -8.61328125 6.38671875 C-13.4639969 7.63313832 -17.78383395 8.11329461 -22.8125 8.0625 C-23.97394531 8.05347656 -25.13539063 8.04445312 -26.33203125 8.03515625 C-27.21246094 8.02355469 -28.09289062 8.01195312 -29 8 C-29 7.34 -29 6.68 -29 6 C-31.97 5.505 -31.97 5.505 -35 5 C-35 4.34 -35 3.68 -35 3 C-32.61435923 3.57584432 -30.33317216 4.22227595 -28 5 C-16.56369876 5.73661744 -16.56369876 5.73661744 -6 2 C-2.10526316 0 -2.10526316 0 0 0 Z " fill="#B33C40" transform="translate(309,167)"/>
<path d="M0 0 C4.25 1.41666667 4.25 1.41666667 6 4 C6.75446633 13.05359593 4.34326325 19.04289577 -1.1484375 26.1796875 C-3.87110168 28.85639955 -5.8541061 28.95659493 -9.578125 29.09765625 C-10.45984375 29.08605469 -11.3415625 29.07445312 -12.25 29.0625 C-13.14203125 29.05347656 -14.0340625 29.04445312 -14.953125 29.03515625 C-15.62859375 29.02355469 -16.3040625 29.01195312 -17 29 C-17 28.67 -17 28.34 -17 28 C-16.443125 27.99742187 -15.88625 27.99484375 -15.3125 27.9921875 C-8.72465711 27.65834411 -4.66252877 25.66252877 0 21 C3.35627693 16.28023556 3.78223246 11.62605657 3 6 C1.65253476 2.54653852 1.65253476 2.54653852 0 0 Z " fill="#A53D40" transform="translate(403,159)"/>
<path d="M0 0 C2.46800047 1.15173355 4.04783565 2.04783565 6 4 C5.98252112 6.59269983 5.86231408 9.0525154 5.625 11.625 C5.56828125 12.33140625 5.5115625 13.0378125 5.453125 13.765625 C5.31159079 15.51121361 5.15702613 17.25573673 5 19 C4.01 19.33 3.02 19.66 2 20 C1.731875 20.5775 1.46375 21.155 1.1875 21.75 C-0.56721542 25.07472395 -2.63996252 27.36272146 -6 29 C-9.70659901 29.41297733 -13.2875331 29.29726158 -17 29 C-17 28.67 -17 28.34 -17 28 C-16.41992188 27.97421875 -15.83984375 27.9484375 -15.2421875 27.921875 C-8.38925248 27.42430216 -4.39304059 25.65174768 0.3125 20.4375 C3.47235317 15.87326765 3.54848652 11.37516788 3 6 C1.65253476 2.54653852 1.65253476 2.54653852 0 0 Z " fill="#A83F41" transform="translate(197,159)"/>
<path d="M0 0 C2.94378569 2.7888496 5.22637689 5.64939753 7.5 9 C12.29694005 15.73206928 18.0438002 21.31182919 24 27 C23.34 27.33 22.68 27.66 22 28 C16.82929357 23.90652408 12.88085855 19.54200626 8.859375 14.3203125 C6.95185547 11.82656441 6.95185547 11.82656441 4.125 9.3125 C1.35532267 6.29843937 0.8553468 3.96569882 0 0 Z " fill="#AA474C" transform="translate(118,475)"/>
<path d="M0 0 C0.33 0 0.66 0 1 0 C1.72011346 4.40954583 2.43186888 8.82033924 3.13623047 13.23242188 C3.3765037 14.73017874 3.61897513 16.22758481 3.86376953 17.72460938 C4.21719114 19.88841515 4.56243464 22.05339959 4.90625 24.21875 C5.11572266 25.51748047 5.32519531 26.81621094 5.54101562 28.15429688 C6.02091864 32.17527153 6.0786608 35.95683482 6 40 C5.67 40 5.34 40 5 40 C4.85377197 39.12674072 4.70754395 38.25348145 4.55688477 37.35375977 C4.01402996 34.12354756 3.46759866 30.89398353 2.91870117 27.66479492 C2.68157844 26.26529951 2.4458969 24.86555914 2.21166992 23.46557617 C1.87534365 21.45686216 1.53389604 19.44907732 1.19140625 17.44140625 C0.98717041 16.23170166 0.78293457 15.02199707 0.57250977 13.77563477 C0.28638332 11.1031547 0.28638332 11.1031547 -1 10 C-1.13568319 6.33655389 -1.16461426 3.49384279 0 0 Z " fill="#A23F43" transform="translate(502,432)"/>
<path d="M0 0 C1 2 1 2 0.0625 5.125 C-0.288125 6.07375 -0.63875 7.0225 -1 8 C-1.66 8 -2.32 8 -3 8 C-3.103125 8.639375 -3.20625 9.27875 -3.3125 9.9375 C-3.539375 10.618125 -3.76625 11.29875 -4 12 C-4.99 12.33 -5.98 12.66 -7 13 C-8.10400945 15.72527836 -8.10400945 15.72527836 -9 19 C-9.86303607 21.296199 -10.73816096 23.5878888 -11.625 25.875 C-12.07101563 27.02742188 -12.51703125 28.17984375 -12.9765625 29.3671875 C-13.31429687 30.23601562 -13.65203125 31.10484375 -14 32 C-14.66 31.67 -15.32 31.34 -16 31 C-7.2 7.2 -7.2 7.2 0 0 Z " fill="#A73B40" transform="translate(225,297)"/>
<path d="M0 0 C0.66 0.99 1.32 1.98 2 3 C1.50371094 3.76441406 1.00742188 4.52882813 0.49609375 5.31640625 C-4.75170301 13.59139507 -9.03631603 22.04455153 -13 31 C-14.39852912 26.80441263 -12.77263136 24.95433149 -11 21 C-10.30859478 18.22111387 -10.30859478 18.22111387 -10 16 C-9.34 16 -8.68 16 -8 16 C-8 15.01 -8 14.02 -8 13 C-7.34 12.67 -6.68 12.34 -6 12 C-5.34227572 8.97065509 -5.34227572 8.97065509 -5 6 C-4.01 6 -3.02 6 -2 6 C-1.855625 5.195625 -1.71125 4.39125 -1.5625 3.5625 C-1 1 -1 1 0 0 Z " fill="#AA3A3F" transform="translate(134,283)"/>
<path d="M0 0 C1.32318569 3.96955708 0.28751438 5.42382571 -1.1875 9.3125 C-4.77579597 19.24941669 -6.32018019 29.60335438 -8 40 C-8.33 40 -8.66 40 -9 40 C-8.67 33.73 -8.34 27.46 -8 21 C-7.34 21 -6.68 21 -6 21 C-5.896875 19.906875 -5.79375 18.81375 -5.6875 17.6875 C-5.0310434 12.31034816 -3.516408 7.18821352 -2 2 C-1.34 2 -0.68 2 0 2 C0 1.34 0 0.68 0 0 Z " fill="#9F363B" transform="translate(209,85)"/>
<path d="M0 0 C0.33 0 0.66 0 1 0 C3.91932772 14.37207494 4.10174228 30.67046334 1 45 C0.34 44.34 -0.32 43.68 -1 43 C-0.9765625 40.25390625 -0.9765625 40.25390625 -0.625 36.5625 C0.38698814 24.4011692 0.08697433 12.19246321 0 0 Z " fill="#B63A3F" transform="translate(407,77)"/>
<path d="M0 0 C4.62 0 9.24 0 14 0 C14 0.66 14 1.32 14 2 C8.47057185 2.78641965 3.14273002 3.13742082 -2.4375 3.09765625 C-3.20304199 3.0962413 -3.96858398 3.09482635 -4.75732422 3.09336853 C-7.17159142 3.08782853 -9.58576144 3.07528779 -12 3.0625 C-13.64973823 3.05747723 -15.29947794 3.05291569 -16.94921875 3.04882812 C-20.96618255 3.03787886 -24.98307487 3.02065666 -29 3 C-29 2.67 -29 2.34 -29 2 C-19.43 1.67 -9.86 1.34 0 1 C0 0.67 0 0.34 0 0 Z " fill="#A83B3D" transform="translate(294,459)"/>
<path d="M0 0 C0.33 0 0.66 0 1 0 C1.99 7.92 2.98 15.84 4 24 C3.34 24.33 2.68 24.66 2 25 C1.690625 23.88625 1.38125 22.7725 1.0625 21.625 C0.17673517 18.2054845 0.17673517 18.2054845 -1 16 C-1.09773002 13.4676428 -1.13910387 10.96914408 -1.125 8.4375 C-1.12886719 7.73947266 -1.13273437 7.04144531 -1.13671875 6.32226562 C-1.12663994 1.12663994 -1.12663994 1.12663994 0 0 Z " fill="#AA3B3F" transform="translate(102,418)"/>
<path d="M0 0 C9.20306942 4.50762584 13.94959248 11.07273977 18.15234375 20.2890625 C19.09999819 23.31980989 19.15275996 25.84296084 19 29 C17.31795245 25.78951655 16.0054439 22.49927983 14.6875 19.125 C11.92236609 12.49029094 9.13316912 8.40120158 3.1875 4.25 C2.135625 3.5075 1.08375 2.765 0 2 C0 1.34 0 0.68 0 0 Z " fill="#A33E41" transform="translate(306,270)"/>
<path d="M0 0 C3.13225961 2.99607441 4.17024698 4.83755243 4.3125 9.1875 C4.24344663 15.32338541 1.90645453 18.93467425 -2.25 23.4375 C-2.8275 23.953125 -3.405 24.46875 -4 25 C-4.66 24.67 -5.32 24.34 -6 24 C-5.67 23.34 -5.34 22.68 -5 22 C-4.34 22 -3.68 22 -3 22 C-2.71125 21.4225 -2.4225 20.845 -2.125 20.25 C-1 18 -1 18 0.125 16.25 C1.45251352 12.8363938 1.05891654 9.65282536 1 6 C1.33 5.34 1.66 4.68 2 4 C1.34 3.67 0.68 3.34 0 3 C0 2.01 0 1.02 0 0 Z " fill="#FBE4E1" transform="translate(197,160)"/>
<path d="M0 0 C0.33 0 0.66 0 1 0 C1.69301031 10.89566214 -0.35900138 20.49495637 -3 31 C-3.33 31 -3.66 31 -4 31 C-4.26456953 24.12119227 -3.25097863 17.75359411 -2 11 C-1.71382813 9.40865234 -1.71382813 9.40865234 -1.421875 7.78515625 C-0.95408449 5.18891893 -0.47999288 2.59400405 0 0 Z " fill="#A53E42" transform="translate(393,110)"/>
<path d="M0 0 C0.66 0 1.32 0 2 0 C6.31184205 13.65416649 5.28670354 27.85889939 5 42 C3.515 42.495 3.515 42.495 2 43 C2.10828125 41.9790625 2.10828125 41.9790625 2.21875 40.9375 C3.58768124 26.6397737 3.36149589 13.92619728 0 0 Z " fill="#FADDDD" transform="translate(323,289)"/>
<path d="M0 0 C0.66 0 1.32 0 2 0 C2 0.99 2 1.98 2 3 C2.66 3 3.32 3 4 3 C6.28612778 10.15775723 7.44032071 16.48193151 7 24 C5.56256149 21.289249 4.52732836 18.69772072 3.7109375 15.7421875 C3.49179687 14.95199219 3.27265625 14.16179687 3.046875 13.34765625 C2.82515625 12.53167969 2.6034375 11.71570313 2.375 10.875 C2.14554687 10.05128906 1.91609375 9.22757812 1.6796875 8.37890625 C0 2.27004278 0 2.27004278 0 0 Z " fill="#B0393D" transform="translate(408,266)"/>
<path d="M0 0 C0.99 0.33 1.98 0.66 3 1 C3 1.66 3 2.32 3 3 C3.67675781 3.2475 4.35351562 3.495 5.05078125 3.75 C8.58350966 5.24731535 11.86977335 7.08632695 15.1875 9 C15.81591797 9.35578125 16.44433594 9.7115625 17.09179688 10.078125 C19.66706373 11.55442771 21.89138726 12.89138726 24 15 C21.69 15 19.38 15 17 15 C17 14.01 17 13.02 17 12 C16.31550781 11.74476563 15.63101563 11.48953125 14.92578125 11.2265625 C11.55038274 9.81150892 8.40025962 8.12741434 5.1875 6.375 C4.59001953 6.05015625 3.99253906 5.7253125 3.37695312 5.390625 C1.91662865 4.59620849 0.45812509 3.79844624 -1 3 C-0.67 2.01 -0.34 1.02 0 0 Z " fill="#AD3B41" transform="translate(145,505)"/>
<path d="M0 0 C0.66 0 1.32 0 2 0 C5.23055588 8.83018608 5.12850189 17.13123319 5.0625 26.4375 C5.05798828 27.64599609 5.05347656 28.85449219 5.04882812 30.09960938 C5.03710145 33.06645789 5.02068896 36.0332027 5 39 C4.67 39 4.34 39 4 39 C3.98018066 38.3608667 3.96036133 37.7217334 3.93994141 37.06323242 C3.84336503 34.10431367 3.73423609 31.14597741 3.625 28.1875 C3.57859375 26.68026367 3.57859375 26.68026367 3.53125 25.14257812 C3.26605236 18.26953933 2.40050689 11.73002858 1 5 C0.66619426 3.33342788 0.33272427 1.66678836 0 0 Z " fill="#9B3438" transform="translate(405,67)"/>
<path d="M0 0 C0.66 0.33 1.32 0.66 2 1 C0.90344712 2.31886772 -0.20253423 3.62990057 -1.3125 4.9375 C-1.92738281 5.66839844 -2.54226562 6.39929688 -3.17578125 7.15234375 C-5 9 -5 9 -8 10 C-8 10.66 -8 11.32 -8 12 C-10.90600261 13.25664978 -12.79604584 14 -16 14 C-11.05590198 8.7697484 -5.76575494 4.30143623 0 0 Z " fill="#B24347" transform="translate(249,273)"/>
<path d="M0 0 C2.125 0.9375 2.125 0.9375 4 2 C-2.7993311 5.98009626 -10.32414634 5.69370978 -18 5 C-18.99 4.34 -19.98 3.68 -21 3 C-14.73 3 -8.46 3 -2 3 C-2 2.34 -2 1.68 -2 1 C-1.34 0.67 -0.68 0.34 0 0 Z " fill="#EFC5C6" transform="translate(299,168)"/>
<path d="M0 0 C0.33 0 0.66 0 1 0 C0.42085333 6.01326751 -0.22337945 12.00892722 -1 18 C-1.66 18 -2.32 18 -3 18 C-3.12375 18.86625 -3.2475 19.7325 -3.375 20.625 C-3.98058121 23.89513853 -4.88306035 26.87256899 -6 30 C-7.36138702 26.25914524 -6.62045822 23.69427153 -5.56640625 19.921875 C-5.24736328 18.76171875 -4.92832031 17.6015625 -4.59960938 16.40625 C-4.25736328 15.1996875 -3.91511719 13.993125 -3.5625 12.75 C-3.22412109 11.52796875 -2.88574219 10.3059375 -2.53710938 9.046875 C-1.70004483 6.02872678 -0.8540441 3.01337917 0 0 Z " fill="#A34045" transform="translate(35,490)"/>
<path d="M0 0 C1.29357992 3.88073975 0.45990522 5.71818008 -0.65234375 9.63671875 C-0.83132706 10.27615921 -1.01031036 10.91559967 -1.19471741 11.57441711 C-1.76770759 13.61444913 -2.35242593 15.65090446 -2.9375 17.6875 C-3.3282515 19.07074413 -3.71823485 20.4542055 -4.10742188 21.83789062 C-5.062717 25.22782569 -6.02855785 28.61465212 -7 32 C-8.09800499 28.20873694 -7.7135827 25.85433081 -6.75 22 C-6.46769531 20.85789062 -6.18539062 19.71578125 -5.89453125 18.5390625 C-5.59933594 17.37117188 -5.30414063 16.20328125 -5 15 C-4.73574219 13.87335938 -4.47148438 12.74671875 -4.19921875 11.5859375 C-2.25212465 3.37818697 -2.25212465 3.37818697 0 0 Z " fill="#FDE5E5" transform="translate(103,238)"/>
<path d="M0 0 C3.48875153 3.61266893 3.70338862 7.53010428 4.125 12.3125 C4.27266334 13.78783811 4.42109272 15.26309975 4.5703125 16.73828125 C4.63637695 17.45322754 4.70244141 18.16817383 4.77050781 18.90478516 C4.98898496 20.89943502 5.33131611 22.87936205 5.6796875 24.85546875 C6 28 6 28 4 31 C3.32713781 26.77179486 2.66279461 22.54229401 2 18.3125 C1.80921875 17.11431641 1.6184375 15.91613281 1.421875 14.68164062 C1.24140625 13.52470703 1.0609375 12.36777344 0.875 11.17578125 C0.70742188 10.11270752 0.53984375 9.04963379 0.3671875 7.9543457 C0.03259931 5.26229003 -0.07006305 2.70837469 0 0 Z " fill="#FDE6E5" transform="translate(485,321)"/>
<path d="M0 0 C0.33 0.99 0.66 1.98 1 3 C0.01 2.67 -0.98 2.34 -2 2 C-8.81926287 1.47544132 -13.47295046 3.1181546 -18.9375 7.1875 C-19.9584375 8.0846875 -19.9584375 8.0846875 -21 9 C-21 7.68 -21 6.36 -21 5 C-19.68 4.67 -18.36 4.34 -17 4 C-17 3.34 -17 2.68 -17 2 C-11.13778621 -0.87128839 -6.46083617 -2.15361206 0 0 Z " fill="#B23F42" transform="translate(400,155)"/>
<path d="M0 0 C0.33 0.66 0.66 1.32 1 2 C0.67 2.66 0.34 3.32 0 4 C-0.66 4 -1.32 4 -2 4 C-2.2475 4.5775 -2.495 5.155 -2.75 5.75 C-4.18299988 8.32939979 -5.78424676 10.06121592 -8 12 C-8.66 12 -9.32 12 -10 12 C-10 12.66 -10 13.32 -10 14 C-11.32 13.67 -12.64 13.34 -14 13 C-12.23223041 11.20521865 -10.46097441 9.4141293 -8.6875 7.625 C-8.18798828 7.11710937 -7.68847656 6.60921875 -7.17382812 6.0859375 C-4.87457613 3.77145867 -2.72478775 1.81652517 0 0 Z " fill="#B4464A" transform="translate(235,29)"/>
<path d="M0 0 C1.75 0.0625 1.75 0.0625 4 1 C5.04722787 2.70174529 6.0846433 4.41335828 7.00390625 6.1875 C8.01342317 8.1724952 8.01342317 8.1724952 9.9375 10.25 C13.05474515 14.40632687 15.33141171 19.07804549 17 24 C16.67 24.99 16.34 25.98 16 27 C15.43152344 25.87722656 14.86304688 24.75445312 14.27734375 23.59765625 C10.42547244 16.09651152 6.70076154 8.93740589 1.21484375 2.46875 C0 1 0 1 0 0 Z " fill="#A03A3E" transform="translate(373,40)"/>
<path d="M0 0 C2.21399303 3.79541663 3.00980198 7.75629421 4 12 C4.66 12 5.32 12 6 12 C6 12.99 6 13.98 6 15 C6.66 15 7.32 15 8 15 C8 16.32 8 17.64 8 19 C8.66 19 9.32 19 10 19 C10.66 20.98 11.32 22.96 12 25 C6.00419485 19.68942972 1.94987984 12.79951935 0 5 C-0.125 2.125 -0.125 2.125 0 0 Z " fill="#A3383E" transform="translate(201,417)"/>
<path d="M0 0 C0.66 0.33 1.32 0.66 2 1 C0.625 3.5 0.625 3.5 -1 6 C-1.66 6 -2.32 6 -3 6 C-3.66 7.32 -4.32 8.64 -5 10 C-5.66 10 -6.32 10 -7 10 C-7 12.97 -7 15.94 -7 19 C-7.66 19 -8.32 19 -9 19 C-9.46589092 13.29283619 -8.38343371 9.55088048 -5 5 C-3.40835579 3.20996388 -1.76985614 1.62236813 0 0 Z " fill="#F9DCDC" transform="translate(385,158)"/>
<path d="M0 0 C0.33 0 0.66 0 1 0 C1.39008806 2.74862047 1.76250503 5.4977234 2.125 8.25 C2.23714844 9.02730469 2.34929687 9.80460937 2.46484375 10.60546875 C3.37751589 17.72431144 3.37751589 17.72431144 1 21 C-2.26213592 6.78640777 -2.26213592 6.78640777 0 0 Z " fill="#B04248" transform="translate(499,413)"/>
<path d="M0 0 C1.4606285 2.64738916 2 3.89448334 2 7 C1.34 7 0.68 7 0 7 C0.061875 8.175625 0.12375 9.35125 0.1875 10.5625 C0.21144173 15.03960301 -1.0120944 18.0241888 -3 22 C-3.66 21.67 -4.32 21.34 -5 21 C-4.35451147 18.24991865 -3.70862234 15.49993244 -3.0625 12.75 C-2.88009766 11.97269531 -2.69769531 11.19539063 -2.50976562 10.39453125 C-2.33251953 9.64042969 -2.15527344 8.88632812 -1.97265625 8.109375 C-1.72914429 7.07248535 -1.72914429 7.07248535 -1.48071289 6.01464844 C-1.0014338 4.00600899 -0.50453398 2.00243058 0 0 Z " fill="#AB4145" transform="translate(77,336)"/>
<path d="M0 0 C0 3.68553144 -0.8522582 5.03759752 -3 8 C-3.763125 8.45375 -4.52625 8.9075 -5.3125 9.375 C-9.00031666 11.60484263 -11.33555056 14.65799297 -14 18 C-14.66 17.67 -15.32 17.34 -16 17 C-14.27227744 15.10283355 -12.54287266 13.20724695 -10.8125 11.3125 C-10.32974609 10.78205078 -9.84699219 10.25160156 -9.34960938 9.70507812 C-6.312614 6.38272748 -3.2063098 3.15941679 0 0 Z " fill="#F7D6D7" transform="translate(166,248)"/>
<path d="M0 0 C0.99 0.66 1.98 1.32 3 2 C-0.05439577 14.67862393 -0.05439577 14.67862393 -4 19 C-3.37968409 12.42465139 -1.85102717 6.33307408 0 0 Z " fill="#AE3B42" transform="translate(113,205)"/>
<path d="M0 0 C1 3 1 3 0 6 C-0.66 6 -1.32 6 -2 6 C-2.103125 6.721875 -2.20625 7.44375 -2.3125 8.1875 C-3.07323372 11.2995925 -4.12766887 13.40754152 -6 16 C-6.99 16.33 -7.98 16.66 -9 17 C-7.68925635 12.53817564 -5.92933989 9.00381243 -3.375 5.125 C-2.74335938 4.15820312 -2.11171875 3.19140625 -1.4609375 2.1953125 C-0.73777344 1.10863281 -0.73777344 1.10863281 0 0 Z " fill="#F9E1E1" transform="translate(135,286)"/>
<path d="M0 0 C0.33 0.66 0.66 1.32 1 2 C0.67 2.99 0.34 3.98 0 5 C-0.39883529 10.28456754 0.34242976 13.42897919 3 18 C3.33 18.66 3.66 19.32 4 20 C0.60185095 18.59386936 -1.08149602 17.13986145 -3 14 C-3.3984375 11.30859375 -3.3984375 11.30859375 -3.375 8.4375 C-3.38273437 7.48746094 -3.39046875 6.53742188 -3.3984375 5.55859375 C-2.94691251 2.65909504 -2.26812142 1.7820954 0 0 Z " fill="#A9393E" transform="translate(377,165)"/>
<path d="M0 0 C0.66 0 1.32 0 2 0 C1.85967508 3.18776711 1.71173356 6.3751385 1.5625 9.5625 C1.52318359 10.45775391 1.48386719 11.35300781 1.44335938 12.27539062 C1.20652231 17.24896891 0.76909673 22.08165872 0 27 C0 27.66 0 28.32 0 29 C-0.99 29.33 -1.98 29.66 -3 30 C-2.86722656 28.92363281 -2.73445313 27.84726562 -2.59765625 26.73828125 C-1.51531121 17.83297542 -0.59170533 8.95343594 0 0 Z " fill="#C3383E" transform="translate(372,438)"/>
<path d="M0 0 C5.06184985 9.17735385 5.45209573 19.769241 5 30 C4.67 30 4.34 30 4 30 C3.32689407 25.9385397 2.66264518 21.87567904 2 17.8125 C1.80921875 16.66201172 1.6184375 15.51152344 1.421875 14.32617188 C1.24140625 13.21435547 1.0609375 12.10253906 0.875 10.95703125 C0.70742188 9.93585205 0.53984375 8.91467285 0.3671875 7.86254883 C0.02585293 5.20154628 -0.06884702 2.67857932 0 0 Z " fill="#FADDDF" transform="translate(504,440)"/>
<path d="M0 0 C0.33 0.99 0.66 1.98 1 3 C0.2575 3.515625 -0.485 4.03125 -1.25 4.5625 C-3.65594319 6.69504056 -4.61940243 7.84878664 -6.0625 10.5625 C-7.84483799 13.72471256 -8.9638475 15.1566217 -12 17 C-12.66 16.67 -13.32 16.34 -14 16 C-9.59802297 10.34669955 -5.19861358 4.9386829 0 0 Z " fill="#F9E3E0" transform="translate(238,46)"/>
<path d="M0 0 C2.45205923 3.67808884 4.0012885 7.49058645 5.6875 11.5625 C6.02072266 12.34302734 6.35394531 13.12355469 6.69726562 13.92773438 C7.00728516 14.67474609 7.31730469 15.42175781 7.63671875 16.19140625 C7.92248779 16.87404541 8.20825684 17.55668457 8.50268555 18.26000977 C9 20 9 20 8 22 C4.53216764 19.32031136 4.11285164 16.10364042 3 12 C2.04435012 9.97843296 1.05725253 7.97033426 0 6 C-0.33 6 -0.66 6 -1 6 C-1.042721 4.33388095 -1.04063832 2.66617115 -1 1 C-0.67 0.67 -0.34 0.34 0 0 Z " fill="#A63C41" transform="translate(108,451)"/>
<path d="M0 0 C5.54550102 0.56876934 10.04145019 2.61088055 15 5 C15.72960937 5.33128906 16.45921875 5.66257812 17.2109375 6.00390625 C19 7 19 7 20 9 C16.76675911 8.25445269 13.68585699 7.24265063 10.5625 6.125 C9.63566406 5.79757812 8.70882812 5.47015625 7.75390625 5.1328125 C4.96418524 3.98526769 2.51130236 2.66812462 0 1 C0 0.67 0 0.34 0 0 Z " fill="#B75355" transform="translate(222,450)"/>
<path d="M0 0 C0.33 0 0.66 0 1 0 C1.22174933 1.45635371 1.42698698 2.91522956 1.625 4.375 C1.74101563 5.18710937 1.85703125 5.99921875 1.9765625 6.8359375 C1.98429687 7.55007813 1.99203125 8.26421875 2 9 C1.34 9.66 0.68 10.32 0 11 C-0.60713803 12.85483454 -1.14131052 14.73421385 -1.625 16.625 C-1.88539062 17.62789063 -2.14578125 18.63078125 -2.4140625 19.6640625 C-2.60742188 20.43492187 -2.80078125 21.20578125 -3 22 C-3.66 21.67 -4.32 21.34 -5 21 C-4.35451147 18.24991865 -3.70862234 15.49993244 -3.0625 12.75 C-2.88009766 11.97269531 -2.69769531 11.19539063 -2.50976562 10.39453125 C-2.33251953 9.64042969 -2.15527344 8.88632812 -1.97265625 8.109375 C-1.72914429 7.07248535 -1.72914429 7.07248535 -1.48071289 6.01464844 C-1.0014338 4.00600899 -0.50453398 2.00243058 0 0 Z " fill="#A94044" transform="translate(71,358)"/>
<path d="M0 0 C0.33 0 0.66 0 1 0 C1.33965474 2.18652739 1.67142477 4.37428025 2 6.5625 C2.185625 7.78066406 2.37125 8.99882812 2.5625 10.25390625 C2.98555077 13.87627848 3.07501425 17.35712046 3 21 C2.67 21 2.34 21 2 21 C2 19.35 2 17.7 2 16 C1.34 16 0.68 16 0 16 C-0.33 16.66 -0.66 17.32 -1 18 C-1.02690844 15.37493198 -1.04679404 12.75013827 -1.0625 10.125 C-1.07087891 9.37863281 -1.07925781 8.63226563 -1.08789062 7.86328125 C-1.11328125 2.2265625 -1.11328125 2.2265625 0 0 Z " fill="#A33D3E" transform="translate(456,144)"/>
<path d="M0 0 C0.33 0.99 0.66 1.98 1 3 C-0.26055183 5.43106424 -1.5549104 7.68785664 -3 10 C-3.515625 10.94875 -4.03125 11.8975 -4.5625 12.875 C-6 15 -6 15 -9 16 C-7.51637716 9.73581469 -3.75837844 5.08486495 0 0 Z " fill="#FAE1E1" transform="translate(223,63)"/>
<path d="M0 0 C0.99 0 1.98 0 3 0 C2.835 0.66 2.67 1.32 2.5 2 C1.56755204 7.59468777 1.07332159 11.36286814 3.875 16.3125 C4.57625 17.199375 5.2775 18.08625 6 19 C6.66 19.99 7.32 20.98 8 22 C4.15018771 20.48757374 2.23333974 18.46167659 0 15 C-0.28614917 12.23866047 -0.38589883 9.91854388 -0.25 7.1875 C-0.23195312 6.49462891 -0.21390625 5.80175781 -0.1953125 5.08789062 C-0.14851064 3.39132336 -0.07677624 1.69547524 0 0 Z " fill="#A5383E" transform="translate(169,165)"/>
<path d="M0 0 C1.02673828 0.24556641 1.02673828 0.24556641 2.07421875 0.49609375 C5.3743278 1.06447034 8.46554069 1.09630767 11.8125 1.0625 C13.55466797 1.04896484 13.55466797 1.04896484 15.33203125 1.03515625 C16.21246094 1.02355469 17.09289062 1.01195312 18 1 C16.22101453 3.25817348 15.32343358 3.94518912 12.44140625 4.43359375 C4.59694417 4.44423752 4.59694417 4.44423752 1.3125 2 C0.879375 1.34 0.44625 0.68 0 0 Z " fill="#F5D0D0" transform="translate(380,183)"/>
<path d="M0 0 C3.20105218 4.80157828 3.25593353 9.91596979 2.5625 15.5625 C2.376875 16.366875 2.19125 17.17125 2 18 C1.67 18 1.34 18 1 18 C1 14.37 1 10.74 1 7 C0.34 7 -0.32 7 -1 7 C-1.33 7.99 -1.66 8.98 -2 10 C-2 7.69 -2 5.38 -2 3 C-1.34 3 -0.68 3 0 3 C0 2.01 0 1.02 0 0 Z " fill="#B3393D" transform="translate(460,173)"/>
<path d="M0 0 C3.55567689 3.55567689 5.19423106 7.24631423 5.3125 12.25 C5 16 5 16 3 18 C2.49645133 15.56318413 1.99703244 13.12564561 1.5 10.6875 C1.35691406 9.99720703 1.21382813 9.30691406 1.06640625 8.59570312 C0.47374956 5.67475227 0 2.98891878 0 0 Z " fill="#AB3F44" transform="translate(390,68)"/>
<path d="M0 0 C0.66 0.33 1.32 0.66 2 1 C1.50628906 1.47050781 1.01257813 1.94101563 0.50390625 2.42578125 C-0.13675781 3.04839844 -0.77742187 3.67101562 -1.4375 4.3125 C-2.07558594 4.92738281 -2.71367187 5.54226562 -3.37109375 6.17578125 C-5.2221418 8.00644056 -5.2221418 8.00644056 -6 11 C-8.31 11.33 -10.62 11.66 -13 12 C-8.87675353 7.74790208 -4.48717034 3.86364295 0 0 Z " fill="#F7DBDD" transform="translate(180,236)"/>
<path d="M0 0 C-0.99 0.33 -1.98 0.66 -3 1 C-3.33 2.32 -3.66 3.64 -4 5 C-7.63 5 -11.26 5 -15 5 C-12.30932731 3.20621821 -9.91421743 2.02686042 -6.9375 0.8125 C-5.62072266 0.26529297 -5.62072266 0.26529297 -4.27734375 -0.29296875 C-2 -1 -2 -1 0 0 Z " fill="#BF565A" transform="translate(352,514)"/>
<path d="M0 0 C0.33 0.99 0.66 1.98 1 3 C-2.92469452 8.60670645 -2.92469452 8.60670645 -5.84765625 9.67578125 C-8.34610904 10.05213621 -10.72396178 10.09573734 -13.25 10.0625 C-14.14203125 10.05347656 -15.0340625 10.04445312 -15.953125 10.03515625 C-16.62859375 10.02355469 -17.3040625 10.01195312 -18 10 C-18 9.67 -18 9.34 -18 9 C-17.443125 8.99742187 -16.88625 8.99484375 -16.3125 8.9921875 C-9.74806684 8.65953041 -5.72748605 6.54658735 -1 2 C-0.67 1.34 -0.34 0.68 0 0 Z " fill="#B24D4F" transform="translate(404,178)"/>
<path d="M0 0 C0.99 0.66 1.98 1.32 3 2 C1.75160427 3.41808059 0.50120779 4.83439995 -0.75 6.25 C-1.79414063 7.43335938 -1.79414063 7.43335938 -2.859375 8.640625 C-4.84586916 10.83011856 -6.89101308 12.92901285 -9 15 C-9 14.01 -9 13.02 -9 12 C-8.34 12 -7.68 12 -7 12 C-6.67 10.68 -6.34 9.36 -6 8 C-5.34 8 -4.68 8 -4 8 C-3.896875 7.4225 -3.79375 6.845 -3.6875 6.25 C-2.90207202 3.67950842 -1.69495803 2.06342716 0 0 Z " fill="#FBE1E0" transform="translate(220,39)"/>
<path d="M0 0 C0.66 0 1.32 0 2 0 C0.66195697 4.01412909 -1.52415367 4.73005954 -5 7 C-5.99 8.485 -5.99 8.485 -7 10 C-8.32 9.34 -9.64 8.68 -11 8 C-8.44710489 5.02162237 -5.48629178 3.70605768 -2 2 C-1.34 1.34 -0.68 0.68 0 0 Z " fill="#B5484C" transform="translate(250,18)"/>
<path d="M0 0 C0.66 0.33 1.32 0.66 2 1 C1.71861942 3.29295236 1.4245814 5.58435456 1.125 7.875 C0.88136719 9.78925781 0.88136719 9.78925781 0.6328125 11.7421875 C0 15 0 15 -2 17 C-2 12.71 -2 8.42 -2 4 C-1.34 4 -0.68 4 0 4 C0 2.68 0 1.36 0 0 Z " fill="#A83B3D" transform="translate(405,124)"/>
<path d="M0 0 C4.62 0 9.24 0 14 0 C14 0.66 14 1.32 14 2 C7.565 2.495 7.565 2.495 1 3 C0.67 2.01 0.34 1.02 0 0 Z " fill="#BF5354" transform="translate(294,459)"/>
<path d="M0 0 C0.99 0.495 0.99 0.495 2 1 C3.18681726 4.56045177 3.09689832 7.43808337 3.0625 11.1875 C3.05347656 12.45980469 3.04445313 13.73210937 3.03515625 15.04296875 C3.02355469 16.01878906 3.01195312 16.99460937 3 18 C2.67 18 2.34 18 2 18 C1.6603981 16.12612523 1.32861309 14.25083303 1 12.375 C0.7215625 10.80878906 0.7215625 10.80878906 0.4375 9.2109375 C0.01284203 6.09425135 -0.07545206 3.14069188 0 0 Z " fill="#F9DEDB" transform="translate(509,472)"/>
<path d="M0 0 C0.33 0 0.66 0 1 0 C1.268125 1.051875 1.53625 2.10375 1.8125 3.1875 C2.81183586 6.9461743 2.81183586 6.9461743 4.6875 9.75 C5.120625 10.4925 5.55375 11.235 6 12 C5.67 12.99 5.34 13.98 5 15 C0.41317394 9.37743903 -0.11470449 7.11167844 0 0 Z " fill="#FBE0DE" transform="translate(170,170)"/>
<path d="M0 0 C0.763125 0.309375 1.52625 0.61875 2.3125 0.9375 C4.18789677 1.67893593 6.08684652 2.36228217 8 3 C8 3.66 8 4.32 8 5 C10.475 5.99 10.475 5.99 13 7 C13 7.99 13 8.98 13 10 C12.67 9.34 12.34 8.68 12 8 C11.29875 7.9175 10.5975 7.835 9.875 7.75 C5.70767162 6.66287086 2.99052507 4.03361621 0 1 C0 0.67 0 0.34 0 0 Z " fill="#AF4143" transform="translate(364,13)"/>
<path d="M0 0 C-1.69179328 2.04219706 -2.63727666 2.91793306 -5.26171875 3.51171875 C-6.06222656 3.56972656 -6.86273438 3.62773437 -7.6875 3.6875 C-8.49574219 3.75324219 -9.30398438 3.81898438 -10.13671875 3.88671875 C-11.05904297 3.94279297 -11.05904297 3.94279297 -12 4 C-11.34 3.67 -10.68 3.34 -10 3 C-10 2.34 -10 1.68 -10 1 C-3.71428571 -1.42857143 -3.71428571 -1.42857143 0 0 Z " fill="#C0555C" transform="translate(268,267)"/>
<path d="M0 0 C0.33 0 0.66 0 1 0 C0.91321237 2.29239061 0.80504727 4.5839807 0.6875 6.875 C0.62949219 8.15117188 0.57148438 9.42734375 0.51171875 10.7421875 C0.34285156 11.81726563 0.17398438 12.89234375 0 14 C-0.99 14.66 -1.98 15.32 -3 16 C-2.52013969 10.43109483 -1.70084819 5.32932432 0 0 Z " fill="#F9DADA" transform="translate(206,96)"/>
<path d="M0 0 C0.66 0.33 1.32 0.66 2 1 C1.04855402 2.81612488 0.08863067 4.62781081 -0.875 6.4375 C-1.40867188 7.44683594 -1.94234375 8.45617187 -2.4921875 9.49609375 C-4 12 -4 12 -6 13 C-5.58221009 7.2902045 -3.42453429 4.39042858 0 0 Z " fill="#AB3A40" transform="translate(209,57)"/>
<path d="M0 0 C-2.67034273 1.78022849 -4.97600432 2.89126186 -7.9375 4.0625 C-8.79214844 4.40410156 -9.64679688 4.74570312 -10.52734375 5.09765625 C-12.67696324 5.88211455 -14.77025942 6.49817903 -17 7 C-16 4 -16 4 -13.671875 2.83203125 C-12.70765625 2.49558594 -11.7434375 2.15914062 -10.75 1.8125 C-9.79609375 1.46832031 -8.8421875 1.12414062 -7.859375 0.76953125 C-5.08905165 0.02396609 -2.85063531 -0.15085479 0 0 Z " fill="#B4454A" transform="translate(288,18)"/>
<path d="M0 0 C-0.67546875 0.26554687 -1.3509375 0.53109375 -2.046875 0.8046875 C-3.38492187 1.33449219 -3.38492187 1.33449219 -4.75 1.875 C-5.63171875 2.22304688 -6.5134375 2.57109375 -7.421875 2.9296875 C-9.9615841 3.93715443 -9.9615841 3.93715443 -12.140625 5.1328125 C-14 6 -14 6 -17 6 C-17 5.34 -17 4.68 -17 4 C-14.73291675 3.1344953 -12.46224921 2.28240685 -10.1875 1.4375 C-9.54490234 1.19064453 -8.90230469 0.94378906 -8.24023438 0.68945312 C-3.33984375 -1.11328125 -3.33984375 -1.11328125 0 0 Z " fill="#B14042" transform="translate(345,450)"/>
<path d="M0 0 C4.44870215 -0.39253254 7.14243493 0.84694043 11 3 C11 3.66 11 4.32 11 5 C11.99 5.33 12.98 5.66 14 6 C13.01 6.495 13.01 6.495 12 7 C9.1796875 5.78515625 9.1796875 5.78515625 5.875 4.0625 C4.77929688 3.49660156 3.68359375 2.93070313 2.5546875 2.34765625 C1.71164062 1.90292969 0.86859375 1.45820313 0 1 C0 0.67 0 0.34 0 0 Z " fill="#B85756" transform="translate(346,22)"/>
<path d="M0 0 C0.66 0.33 1.32 0.66 2 1 C2.05422947 2.4370809 2.09289723 3.87475462 2.125 5.3125 C2.14820313 6.11300781 2.17140625 6.91351563 2.1953125 7.73828125 C2 10 2 10 0 13 C-0.83796731 8.34462607 -1.0161692 4.62921525 0 0 Z " fill="#AD3F44" transform="translate(367,468)"/>
<path d="M0 0 C3.89610738 3.72671141 3.89610738 3.72671141 4.16796875 7.05859375 C4.17441406 7.84363281 4.18085938 8.62867188 4.1875 9.4375 C4.20167969 10.21996094 4.21585937 11.00242188 4.23046875 11.80859375 C4 14 4 14 2 17 C2.02320313 16.32453125 2.04640625 15.6490625 2.0703125 14.953125 C2.09738281 13.61507812 2.09738281 13.61507812 2.125 12.25 C2.15980469 10.92742187 2.15980469 10.92742187 2.1953125 9.578125 C1.98909994 6.85611915 1.26755925 5.37542601 0 3 C0 2.01 0 1.02 0 0 Z " fill="#FBE1E1" transform="translate(403,160)"/>
<path d="M0 0 C-0.33 3.3 -0.66 6.6 -1 10 C-1.33 10 -1.66 10 -2 10 C-2.33 8.02 -2.66 6.04 -3 4 C-4.32 3.67 -5.64 3.34 -7 3 C-2.25 0 -2.25 0 0 0 Z " fill="#F0C1BF" transform="translate(372,438)"/>
<path d="M0 0 C0.99 0 1.98 0 3 0 C1.6062718 4.43458973 -0.60582235 6.87378374 -4 10 C-3.125 5.25 -3.125 5.25 -2 3 C-1.34 3 -0.68 3 0 3 C0 2.01 0 1.02 0 0 Z " fill="#AD3C43" transform="translate(141,272)"/>
<path d="M0 0 C0.66 0.33 1.32 0.66 2 1 C-0.04327733 4.064916 -1.66355813 5.4932198 -5 7 C-5.66 7.66 -6.32 8.32 -7 9 C-7.66 8.34 -8.32 7.68 -9 7 C-6.03 4.69 -3.06 2.38 0 0 Z " fill="#F7D9DB" transform="translate(191,228)"/>
<path d="M0 0 C0 0.33 0 0.66 0 1 C-0.96099609 1.03867188 -0.96099609 1.03867188 -1.94140625 1.078125 C-8.0589484 1.4792753 -11.9125022 2.57146888 -17 6 C-17 4.68 -17 3.36 -17 2 C-11.35600642 -0.44064587 -6.02248522 -0.19289099 0 0 Z " fill="#AE383C" transform="translate(193,155)"/>
<path d="M0 0 C0.66 0 1.32 0 2 0 C1.01 4.62 0.02 9.24 -1 14 C-1.33 14 -1.66 14 -2 14 C-2.05389087 12.04196493 -2.09274217 10.08351091 -2.125 8.125 C-2.14820313 7.03445312 -2.17140625 5.94390625 -2.1953125 4.8203125 C-2 2 -2 2 0 0 Z " fill="#C6383F" transform="translate(204,92)"/>
<path d="M0 0 C0.33 0.66 0.66 1.32 1 2 C-0.67105831 7.01317493 -4.76551886 10.02017994 -9 13 C-7.50923566 9.7173068 -5.61379679 7.06922559 -3.375 4.25 C-2.74335938 3.45078125 -2.11171875 2.6515625 -1.4609375 1.828125 C-0.97882813 1.22484375 -0.49671875 0.6215625 0 0 Z " fill="#A84348" transform="translate(220,43)"/>
<path d="M0 0 C2.9555377 2.75170751 5.11563315 5.41970299 7 9 C7 9.66 7 10.32 7 11 C4.32423308 9.99382318 3.2214892 9.45785454 1.953125 6.8359375 C1.72109375 6.02382813 1.4890625 5.21171875 1.25 4.375 C1.00765625 3.55773437 0.7653125 2.74046875 0.515625 1.8984375 C0.34546875 1.27195312 0.1753125 0.64546875 0 0 Z " fill="#AA3B40" transform="translate(118,475)"/>
<path d="M0 0 C1.31534494 3.65857532 0.65468309 6.08026481 -0.4375 9.75 C-0.86869141 11.22726562 -0.86869141 11.22726562 -1.30859375 12.734375 C-1.53675781 13.48203125 -1.76492187 14.2296875 -2 15 C-2.33 15 -2.66 15 -3 15 C-2.88623383 12.87436897 -2.75864369 10.7494739 -2.625 8.625 C-2.55539063 7.44164062 -2.48578125 6.25828125 -2.4140625 5.0390625 C-2 2 -2 2 0 0 Z " fill="#FDE8E6" transform="translate(78,329)"/>
<path d="M0 0 C1.31534494 3.65857532 0.65468309 6.08026481 -0.4375 9.75 C-0.86869141 11.22726563 -0.86869141 11.22726563 -1.30859375 12.734375 C-1.53675781 13.48203125 -1.76492187 14.2296875 -2 15 C-2.33 15 -2.66 15 -3 15 C-3.08142927 13.2507786 -3.13938541 11.50045458 -3.1875 9.75 C-3.22230469 8.77546875 -3.25710937 7.8009375 -3.29296875 6.796875 C-2.96075202 3.62531258 -2.11327721 2.32959693 0 0 Z " fill="#FCE5E3" transform="translate(107,223)"/>
<path d="M0 0 C1.21236328 0.01353516 1.21236328 0.01353516 2.44921875 0.02734375 C3.37154297 0.04474609 3.37154297 0.04474609 4.3125 0.0625 C4.3125 0.3925 4.3125 0.7225 4.3125 1.0625 C2.73335985 1.59591184 1.14895613 2.11375763 -0.4375 2.625 C-1.31921875 2.91503906 -2.2009375 3.20507812 -3.109375 3.50390625 C-5.76584316 4.07947435 -7.15781106 3.95498371 -9.6875 3.0625 C-9.0275 3.0625 -8.3675 3.0625 -7.6875 3.0625 C-7.6875 2.4025 -7.6875 1.7425 -7.6875 1.0625 C-4.80538698 0.10179566 -2.98899956 -0.04331883 0 0 Z " fill="#E5ACB2" transform="translate(287.6875,1.9375)"/>
<path d="M0 0 C0.66 0.66 1.32 1.32 2 2 C1.53846154 8.46153846 1.53846154 8.46153846 -1 11 C-2.41687119 6.74938644 -1.19320039 4.28148375 0 0 Z " fill="#B14249" transform="translate(65,380)"/>
<path d="M0 0 C1.31534494 3.65857532 0.65468309 6.08026481 -0.4375 9.75 C-0.86869141 11.22726562 -0.86869141 11.22726562 -1.30859375 12.734375 C-1.53675781 13.48203125 -1.76492187 14.2296875 -2 15 C-2.33 15 -2.66 15 -3 15 C-2.88623383 12.87436897 -2.75864369 10.7494739 -2.625 8.625 C-2.55539063 7.44164062 -2.48578125 6.25828125 -2.4140625 5.0390625 C-2 2 -2 2 0 0 Z " fill="#FCE4E2" transform="translate(84,307)"/>
<path d="M0 0 C-0.5625 1.875 -0.5625 1.875 -2 4 C-5.625 5.25 -5.625 5.25 -9 6 C-9 5.34 -9 4.68 -9 4 C-2.25 0 -2.25 0 0 0 Z " fill="#B84F51" transform="translate(309,167)"/>
<path d="M0 0 C0.66 0.33 1.32 0.66 2 1 C0.8125 3.4375 0.8125 3.4375 -1 6 C-3.6875 6.8125 -3.6875 6.8125 -6 7 C-4.02 4.69 -2.04 2.38 0 0 Z " fill="#F9E0DE" transform="translate(179,158)"/>
<path d="M0 0 C2.67927341 4.01891012 2.15601248 6.24161923 2 11 C1.01 10.67 0.02 10.34 -1 10 C-0.67 6.7 -0.34 3.4 0 0 Z " fill="#AE4449" transform="translate(185,120)"/>
<path d="M0 0 C2 3 2 3 1.75 6.4375 C1.13121575 9.3767252 0.52580857 11.45698571 -1 14 C-1.08333357 9.1666528 -0.95261487 4.76307437 0 0 Z " fill="#FCE7E7" transform="translate(407,122)"/>
<path d="M0 0 C-5.17578125 3.22265625 -5.17578125 3.22265625 -7 4 C-7.99 3.67 -8.98 3.34 -10 3 C-9.34 2.67 -8.68 2.34 -8 2 C-8 1.34 -8 0.68 -8 0 C-4.94736336 -0.98120464 -3.05263664 -0.98120464 0 0 Z " fill="#B64E4E" transform="translate(365,442)"/>
<path d="M0 0 C3 3 3 3 3.07421875 5.26171875 C2.94660156 6.06222656 2.81898438 6.86273438 2.6875 7.6875 C2.50767578 8.89986328 2.50767578 8.89986328 2.32421875 10.13671875 C2.21722656 10.75160156 2.11023438 11.36648438 2 12 C1.34 11.67 0.68 11.34 0 11 C0 7.37 0 3.74 0 0 Z " fill="#BD3F43" transform="translate(491,373)"/>
<path d="M0 0 C0.66 0 1.32 0 2 0 C1.71640113 1.4391134 1.42278601 2.87625518 1.125 4.3125 C0.88136719 5.51326172 0.88136719 5.51326172 0.6328125 6.73828125 C0 9 0 9 -2 12 C-2.99266409 9.31980696 -3.066309 8.19419064 -2.125 5.4375 C-1.75375 4.633125 -1.3825 3.82875 -1 3 C-0.67 2.01 -0.34 1.02 0 0 Z " fill="#FDE5E6" transform="translate(191,86)"/>
<path d="M0 0 C3 3 3 3 3.29296875 6.13671875 C3.25816406 7.30847656 3.22335937 8.48023438 3.1875 9.6875 C3.16042969 10.86699219 3.13335938 12.04648437 3.10546875 13.26171875 C3.07066406 14.16535156 3.03585937 15.06898438 3 16 C2.67 16 2.34 16 2 16 C1.34 10.72 0.68 5.44 0 0 Z " fill="#FEE4E3" transform="translate(512,491)"/>
<path d="M0 0 C0.66 0.33 1.32 0.66 2 1 C1.67 3.97 1.34 6.94 1 10 C0.01 9.67 -0.98 9.34 -2 9 C-1.34 6.03 -0.68 3.06 0 0 Z " fill="#AE4148" transform="translate(116,194)"/>
<path d="M0 0 C7.42857143 -0.14285714 7.42857143 -0.14285714 11 1 C11 1.66 11 2.32 11 3 C11.66 3.33 12.32 3.66 13 4 C8.51474352 3.343621 4.33085971 2.29925791 0 1 C0 0.67 0 0.34 0 0 Z " fill="#BC5354" transform="translate(329,201)"/>
<path d="M0 0 C1.67110042 2.96178773 2.32682752 5.37071192 2.625 8.75 C2.69976562 9.54921875 2.77453125 10.3484375 2.8515625 11.171875 C2.90054687 11.77515625 2.94953125 12.3784375 3 13 C0.49969505 10.06485941 -0.61469778 7.85302223 -1 4 C-0.5625 1.6875 -0.5625 1.6875 0 0 Z " fill="#FCE4E5" transform="translate(390,71)"/>
<path d="M0 0 C0.33 0.66 0.66 1.32 1 2 C0.02501855 3.5027237 -0.95509389 5.00211963 -1.9375 6.5 C-2.75541016 7.75296875 -2.75541016 7.75296875 -3.58984375 9.03125 C-4.05519531 9.6809375 -4.52054688 10.330625 -5 11 C-5.33 11 -5.66 11 -6 11 C-6 9.35 -6 7.7 -6 6 C-5.01 6 -4.02 6 -3 6 C-2.690625 5.195625 -2.38125 4.39125 -2.0625 3.5625 C-1 1 -1 1 0 0 Z " fill="#A73B3F" transform="translate(222,62)"/>
<path d="M0 0 C0.99 0.99 1.98 1.98 3 3 C1.35 5.64 -0.3 8.28 -2 11 C-3.28485596 5.86057616 -2.22194431 4.62164416 0 0 Z " fill="#F8DBD9" transform="translate(205,57)"/>
<path d="M0 0 C0.99 0 1.98 0 3 0 C3.3125 2.25 3.3125 2.25 3 5 C0.5 7.3125 0.5 7.3125 -2 9 C-1.41196203 5.97580475 -0.77321882 2.98241547 0 0 Z " fill="#C83E44" transform="translate(210,55)"/>
<path d="M0 0 C3.11954738 0.33724836 4.6209965 0.6209965 6.875 2.875 C7.24625 3.57625 7.6175 4.2775 8 5 C7.67 5.99 7.34 6.98 7 8 C5.83035398 6.8572081 4.66435444 5.71068285 3.5 4.5625 C2.8503125 3.92441406 2.200625 3.28632813 1.53125 2.62890625 C0 1 0 1 0 0 Z " fill="#F4D3D1" transform="translate(380,23)"/>
<path d="M0 0 C0.66 0.33 1.32 0.66 2 1 C1 3 1 3 -1.1875 4.125 C-4.26769331 5.08328236 -6.79309948 5.14915816 -10 5 C-8.66666667 4.33333333 -7.33333333 3.66666667 -6 3 C-4.453125 2.1646875 -4.453125 2.1646875 -2.875 1.3125 C-1.451875 0.6628125 -1.451875 0.6628125 0 0 Z " fill="#B85557" transform="translate(275,6)"/>
<path d="M0 0 C-0.1875 1.875 -0.1875 1.875 -1 4 C-3.5625 5.25 -3.5625 5.25 -6 6 C-6.66 5.34 -7.32 4.68 -8 4 C-2.25 0 -2.25 0 0 0 Z " fill="#B93D41" transform="translate(357,511)"/>
<path d="M0 0 C-1.625 1.125 -1.625 1.125 -4 2 C-7.25 1.125 -7.25 1.125 -10 0 C-10 -0.33 -10 -0.66 -10 -1 C-5.94568308 -2.15837626 -3.78187881 -1.83691257 0 0 Z " fill="#BA3842" transform="translate(250,458)"/>
<path d="M0 0 C0.33 0.66 0.66 1.32 1 2 C1.66 2 2.32 2 3 2 C3 5.3 3 8.6 3 12 C0.8008587 7.60171741 0.48144941 4.81449408 0 0 Z " fill="#A2353A" transform="translate(412,278)"/>
<path d="M0 0 C0.66 0.33 1.32 0.66 2 1 C-2.455 3.97 -2.455 3.97 -7 7 C-7.66 6.34 -8.32 5.68 -9 5 C-2.53398058 1.04854369 -2.53398058 1.04854369 0 0 Z " fill="#AE4042" transform="translate(198,222)"/>
<path d="M0 0 C1.32 1.32 2.64 2.64 4 4 C3.67 4.66 3.34 5.32 3 6 C3.66 6 4.32 6 5 6 C5.33 7.32 5.66 8.64 6 10 C5.01 9.67 4.02 9.34 3 9 C2.05078125 6.93359375 2.05078125 6.93359375 1.3125 4.4375 C1.06113281 3.61121094 0.80976562 2.78492188 0.55078125 1.93359375 C0.36902344 1.29550781 0.18726562 0.65742188 0 0 Z " fill="#FAE1DD" transform="translate(113,462)"/>
<path d="M0 0 C2.10633718 1.70828921 2.93801608 2.52148416 3.29296875 5.26171875 C3.25816406 6.06222656 3.22335938 6.86273438 3.1875 7.6875 C3.16042969 8.49574219 3.13335937 9.30398438 3.10546875 10.13671875 C3.07066406 10.75160156 3.03585938 11.36648438 3 12 C0.7655402 7.96707255 0.45503257 4.55032566 0 0 Z " fill="#FEE8E8" transform="translate(106,439)"/>
<path d="M0 0 C0.99 0.495 0.99 0.495 2 1 C3.11421833 4.64653273 2.94296589 7.33291043 2 11 C-0.32590854 7.36576791 -0.16265833 4.22911669 0 0 Z " fill="#FAE0DE" transform="translate(104,428)"/>
<path d="M0 0 C1.32 1.32 2.64 2.64 4 4 C3.01 4.33 2.02 4.66 1 5 C0.67 5.99 0.34 6.98 0 8 C-0.98120464 4.94736336 -0.98120464 3.05263664 0 0 Z " fill="#B63F45" transform="translate(85,307)"/>
<path d="M0 0 C0.33 0.66 0.66 1.32 1 2 C0.07421875 3.9453125 0.07421875 3.9453125 -1.3125 6.125 C-1.76238281 6.84945313 -2.21226562 7.57390625 -2.67578125 8.3203125 C-3.11277344 8.87460937 -3.54976562 9.42890625 -4 10 C-4.66 10 -5.32 10 -6 10 C-4.34832443 6.4213696 -2.21713508 3.25179812 0 0 Z " fill="#F7D8D9" transform="translate(145,271)"/>
<path d="M0 0 C0.99 0.33 1.98 0.66 3 1 C0.375 6.75 0.375 6.75 -3 9 C-2.01 6.03 -1.02 3.06 0 0 Z " fill="#B73B40" transform="translate(147,263)"/>
<path d="M0 0 C1.98 0 3.96 0 6 0 C6.33 1.65 6.66 3.3 7 5 C3.535 3.02 3.535 3.02 0 1 C0 0.67 0 0.34 0 0 Z " fill="#BA5053" transform="translate(371,219)"/>
<path d="M0 0 C-1.6875 2.0625 -1.6875 2.0625 -4 4 C-6.75 3.75 -6.75 3.75 -9 3 C-8 1 -8 1 -5.0625 -0.1875 C-2 -1 -2 -1 0 0 Z " fill="#F7DCD7" transform="translate(215,217)"/>
<path d="M0 0 C-1.1875 1.5625 -1.1875 1.5625 -3 3 C-5.6875 2.6875 -5.6875 2.6875 -8 2 C-6.14210462 -1.71579076 -3.44525918 -1.06921837 0 0 Z " fill="#F6D6D4" transform="translate(234,209)"/>
<path d="M0 0 C0.598125 0.350625 1.19625 0.70125 1.8125 1.0625 C-0.1875 3.0625 -0.1875 3.0625 -3.1875 5.0625 C-3.1875 4.0725 -3.1875 3.0825 -3.1875 2.0625 C-3.8475 2.0625 -4.5075 2.0625 -5.1875 2.0625 C-5.1875 1.4025 -5.1875 0.7425 -5.1875 0.0625 C-2.1875 -0.9375 -2.1875 -0.9375 0 0 Z " fill="#C23C40" transform="translate(223.1875,59.9375)"/>
<path d="M0 0 C0.66 0 1.32 0 2 0 C2 0.66 2 1.32 2 2 C2.639375 2.20625 3.27875 2.4125 3.9375 2.625 C6 4 6 4 6.75 7.125 C6.8325 8.07375 6.915 9.0225 7 10 C4.3513141 6.80331012 2.06007659 3.60513403 0 0 Z " fill="#F6D8DA" transform="translate(389,32)"/>
<path d="M0 0 C2.64465038 3.1254959 3.84414715 6.08788267 5 10 C2 9 2 9 0.8125 6.6875 C0 4 0 4 0 0 Z " fill="#FCE2E2" transform="translate(400,251)"/>
<path d="M0 0 C0.99 0.33 1.98 0.66 3 1 C3 1.66 3 2.32 3 3 C3.66 3 4.32 3 5 3 C5.33 3.99 5.66 4.98 6 6 C3.13275314 5.42655063 2.1385485 5.1385485 0 3 C0 2.01 0 1.02 0 0 Z " fill="#B23D40" transform="translate(390,234)"/>
<path d="M0 0 C0.66 0.33 1.32 0.66 2 1 C0.68 3.64 -0.64 6.28 -2 9 C-2.33 9 -2.66 9 -3 9 C-3 6.69 -3 4.38 -3 2 C-2.34 2 -1.68 2 -1 2 C-0.67 1.34 -0.34 0.68 0 0 Z " fill="#FCE2E0" transform="translate(198,72)"/>
<path d="M0 0 C-1 2 -1 2 -2.84765625 2.6328125 C-3.57855469 2.79523437 -4.30945313 2.95765625 -5.0625 3.125 C-6.16271484 3.37636719 -6.16271484 3.37636719 -7.28515625 3.6328125 C-7.85105469 3.75398437 -8.41695313 3.87515625 -9 4 C-9 3.34 -9 2.68 -9 2 C-5.5647952 -0.29013653 -4.014669 -0.17842973 0 0 Z " fill="#FADCE0" transform="translate(345,515)"/>
<path d="M0 0 C0.66 0 1.32 0 2 0 C0.70700306 2.88437779 -0.65941363 4.87219421 -3 7 C-3.66 6.67 -4.32 6.34 -5 6 C-4.67 5.34 -4.34 4.68 -4 4 C-3.34 4 -2.68 4 -2 4 C-1.34 2.68 -0.68 1.36 0 0 Z " fill="#F6D0D2" transform="translate(196,178)"/>
<path d="M0 0 C0.33 0.99 0.66 1.98 1 3 C-1.97 5.475 -1.97 5.475 -5 8 C-5.66 7.67 -6.32 7.34 -7 7 C-4.69 4.69 -2.38 2.38 0 0 Z " fill="#F1CBCA" transform="translate(238,46)"/>
</svg>
