<?xml version="1.0" encoding="UTF-8"?>
<svg version="1.1" xmlns="http://www.w3.org/2000/svg" width="1200" height="900">
<path d="M0 0 C396 0 792 0 1200 0 C1200 297 1200 594 1200 900 C804 900 408 900 0 900 C0 603 0 306 0 0 Z " fill="#131522" transform="translate(0,0)"/>
<path d="M0 0 C6.85665099 4.85531417 12.94929891 11.27443098 14.98828125 19.6328125 C16.50579315 28.89623295 16.42496947 38.21854859 11.4375 46.375 C6.75187218 52.72683339 1.9509582 57.70096459 -5.5625 60.375 C-6.50222656 60.72820312 -7.44195312 61.08140625 -8.41015625 61.4453125 C-16.41212771 63.80524956 -24.75841733 63.14270613 -32.2890625 59.62109375 C-41.30595811 54.67884341 -46.91834651 48.07823861 -50.73046875 38.4140625 C-53.47001541 28.40764323 -51.5385447 19.29259589 -46.5625 10.375 C-36.25478695 -5.05825169 -16.00113872 -9.8965026 0 0 Z " fill="#F2901E" transform="translate(491.5625,479.625)"/>
<path d="M0 0 C2.89019954 1.59873164 5.13729507 3.25738095 7.375 5.6875 C10.92538751 3.97981921 14.16898379 1.94551816 17.47265625 -0.19140625 C22.90997665 -3.39574086 29.27974274 -2.83907252 35.375 -2.3125 C38.38525795 -1.38884375 40.78886993 -0.09007867 43.375 1.6875 C44.261875 2.265 45.14875 2.8425 46.0625 3.4375 C50.7178625 7.9670419 54.13933084 13.32243233 54.49525452 19.91485596 C54.49303391 20.72315857 54.49081329 21.53146118 54.48852539 22.36425781 C54.48841209 23.74523651 54.48841209 23.74523651 54.48829651 25.15411377 C54.48313522 26.13966248 54.47797394 27.12521118 54.47265625 28.140625 C54.4712413 29.15598328 54.46982635 30.17134155 54.46836853 31.21746826 C54.46277516 34.45750892 54.45022385 37.69748025 54.4375 40.9375 C54.43248414 43.13541567 54.42792139 45.33333242 54.42382812 47.53125 C54.4128079 52.91669334 54.39554778 58.30208492 54.375 63.6875 C50.745 63.6875 47.115 63.6875 43.375 63.6875 C43.36041748 62.32020752 43.34583496 60.95291504 43.33081055 59.54418945 C43.27278537 54.46547452 43.19555215 49.38720097 43.11254883 44.30883789 C43.07931945 42.11197073 43.05128134 39.9150186 43.02856445 37.71801758 C42.99498246 34.55773757 42.94266366 31.39823479 42.88671875 28.23828125 C42.88032883 27.25789383 42.8739389 26.27750641 42.86735535 25.26741028 C42.72656538 18.48396985 42.72656538 18.48396985 39.375 12.6875 C34.60950959 9.39704234 29.9978855 8.79916219 24.375 9.6875 C21.0161687 10.92797747 18.17342057 12.427773 16.20352173 15.53582764 C15.27561941 17.94559157 15.09864953 19.78609546 15.05615234 22.36425781 C15.03628265 23.28491028 15.01641296 24.20556274 14.99594116 25.15411377 C14.97861435 26.63243683 14.97861435 26.63243683 14.9609375 28.140625 C14.94157135 29.15598328 14.9222052 30.17134155 14.9022522 31.21746826 C14.84251901 34.45739365 14.79609572 37.69735468 14.75 40.9375 C14.71181449 43.13543208 14.67276242 45.33334928 14.6328125 47.53125 C14.53682245 52.91654574 14.45276795 58.30191154 14.375 63.6875 C10.415 63.6875 6.455 63.6875 2.375 63.6875 C2.36041748 62.32020752 2.34583496 60.95291504 2.33081055 59.54418945 C2.27278537 54.46547452 2.19555215 49.38720097 2.11254883 44.30883789 C2.07931945 42.11197073 2.05128134 39.9150186 2.02856445 37.71801758 C1.99498246 34.55773757 1.94266366 31.39823479 1.88671875 28.23828125 C1.88032883 27.25789383 1.8739389 26.27750641 1.86735535 25.26741028 C1.72841995 18.48261262 1.72841995 18.48261262 -1.625 12.6875 C-6.15730872 9.63082668 -10.29710893 8.85966035 -15.625 9.6875 C-18.92601131 11.08674945 -18.92601131 11.08674945 -21.625 12.6875 C-22.285 12.6875 -22.945 12.6875 -23.625 12.6875 C-26.26197193 17.66998906 -25.97433226 22.74442223 -26.0390625 28.23828125 C-26.05842865 29.25222458 -26.0777948 30.26616791 -26.0977478 31.31083679 C-26.15739426 34.54047303 -26.20386951 37.7701452 -26.25 41 C-26.28819349 43.19337468 -26.32724602 45.38673458 -26.3671875 47.58007812 C-26.46308368 52.94909833 -26.54717014 58.31818874 -26.625 63.6875 C-30.255 63.6875 -33.885 63.6875 -37.625 63.6875 C-37.72424314 57.14050668 -37.79664631 50.59395606 -37.84472656 44.04638672 C-37.86478046 41.82137418 -37.89203065 39.59641393 -37.92675781 37.37158203 C-37.97554934 34.16425635 -37.99803162 30.95763049 -38.015625 27.75 C-38.03627014 26.76322266 -38.05691528 25.77644531 -38.07818604 24.75976562 C-38.08090168 16.30722949 -35.58356284 9.81157847 -29.625 3.6875 C-20.57600783 -2.79179865 -10.45857069 -5.12916648 0 0 Z " fill="#EE8D1E" transform="translate(555.625,477.3125)"/>
<path d="M0 0 C2.73878993 1.91520363 5.39382542 3.90829105 8 6 C8.49628906 5.51789063 8.99257813 5.03578125 9.50390625 4.5390625 C15.95638603 -1.46039688 21.55205051 -3.55549854 30.38671875 -3.30078125 C38.7229813 -2.34130111 43.91708629 1.21882477 49.30859375 7.48828125 C53.88622662 14.28601321 54.42110335 19.7184506 54.29296875 27.74609375 C54.28872391 28.75720718 54.28447906 29.76832062 54.28010559 30.81007385 C54.26339754 34.01949401 54.22575953 37.22827165 54.1875 40.4375 C54.17244301 42.62173568 54.15875638 44.80598127 54.14648438 46.99023438 C54.11351973 52.3270681 54.06179158 57.66342535 54 63 C50.37 63 46.74 63 43 63 C42.9906543 61.6682373 42.98130859 60.33647461 42.97167969 58.96435547 C42.93172528 54.01040537 42.86595066 49.0570727 42.79248047 44.10351562 C42.76430256 41.96199491 42.74307225 39.82037082 42.72900391 37.67871094 C42.70753075 34.59516593 42.66085683 31.51285982 42.609375 28.4296875 C42.60814636 27.47633514 42.60691772 26.52298279 42.60565186 25.54074097 C42.48171872 19.88114866 41.85036078 16.44862049 38 12 C33.44919014 8.89717509 29.35516887 8.22885568 24 9 C18.75665365 10.81500451 16.57169421 13.12912234 14 18 C13.41083455 21.47708326 13.39516269 24.90870148 13.390625 28.4296875 C13.37408875 29.42001984 13.35755249 30.41035217 13.34051514 31.43069458 C13.29211671 34.57886 13.27068189 37.72654261 13.25 40.875 C13.22183356 43.01564918 13.1919052 45.15627595 13.16015625 47.296875 C13.0863596 52.53121025 13.03673489 57.76527876 13 63 C9.37 63 5.74 63 2 63 C1.9906543 61.6682373 1.98130859 60.33647461 1.97167969 58.96435547 C1.93172528 54.01040537 1.86595066 49.0570727 1.79248047 44.10351562 C1.76430256 41.96199491 1.74307225 39.82037082 1.72900391 37.67871094 C1.70753075 34.59516593 1.66085683 31.51285982 1.609375 28.4296875 C1.60814636 27.47633514 1.60691772 26.52298279 1.60565186 25.54074097 C1.48171872 19.88114866 0.85036078 16.44862049 -3 12 C-7.4232401 8.98415448 -11.7319512 8.08470195 -17 9 C-20.51752456 10.30330591 -23.23804408 12.0865232 -25.66723633 14.9987793 C-27.62621871 19.4101679 -27.47986592 23.55398053 -27.51171875 28.33203125 C-27.52966995 29.32377853 -27.54762115 30.31552582 -27.56611633 31.33732605 C-27.62016968 34.49567451 -27.65409952 37.65387225 -27.6875 40.8125 C-27.72067742 42.95770324 -27.75516747 45.10288661 -27.79101562 47.24804688 C-27.87589354 52.4985891 -27.94272882 57.74908701 -28 63 C-31.63 63 -35.26 63 -39 63 C-39.07455252 56.89854559 -39.12879183 50.79736054 -39.16479492 44.69555664 C-39.17981521 42.62291846 -39.20023747 40.55031171 -39.22631836 38.4777832 C-39.26300024 35.48641164 -39.27979435 32.4954629 -39.29296875 29.50390625 C-39.30845261 28.58791153 -39.32393646 27.67191681 -39.33988953 26.72816467 C-39.34239419 16.99843644 -36.94869699 9.99167515 -30.15625 2.953125 C-21.82571243 -4.59265179 -9.84057183 -5.78857167 0 0 Z " fill="#F2901E" transform="translate(663,478)"/>
<path d="M0 0 C4.57090234 3.35464485 8.89988423 7.22065485 12 12 C12 13.32 12 14.64 12 16 C10.55947266 16.74830078 10.55947266 16.74830078 9.08984375 17.51171875 C-0.8799594 22.72663563 -10.69193738 28.17490376 -20.41821289 33.83276367 C-21.36043701 34.37392822 -22.30266113 34.91509277 -23.2734375 35.47265625 C-24.11310059 35.96000244 -24.95276367 36.44734863 -25.81787109 36.94946289 C-28 38 -28 38 -31 38 C-35 31.25 -35 31.25 -35 29 C-20.645 21.08 -20.645 21.08 -6 13 C-9.84115879 9.15884121 -12.37822409 8.78619975 -17.625 8.5625 C-24.21239042 8.61832534 -28.21882706 10.54297437 -33 15 C-37.62576911 20.24253832 -38.36720917 25.62249733 -38.27734375 32.40234375 C-37.68469763 37.95318415 -35.21125113 42.19794151 -31.0625 45.875 C-25.14549538 49.98067667 -20.13789052 50.96345982 -13 50 C-8.07327381 48.57479433 -4.18568279 46.84470838 -1.35546875 42.44140625 C-0.88753906 41.53261719 -0.41960938 40.62382813 0.0625 39.6875 C1.4296875 37.0546875 1.4296875 37.0546875 3 35 C7.2532913 33.71959743 10.87957787 34.62652596 15 36 C14.62792644 43.06939757 10.84328782 49.09046081 5.98828125 54.05859375 C-1.95511109 60.68997155 -10.73624989 63.78433053 -21.08203125 63.3828125 C-30.85208559 62.10106508 -39.12314354 56.79280296 -45.3125 49.25 C-50.83770388 41.30093284 -51.92475465 32.49157901 -51 23 C-49.31606063 14.08915418 -43.97829762 6.90990637 -36.953125 1.3203125 C-26.11904707 -6.00352418 -11.32111867 -6.82861126 0 0 Z " fill="#F2901D" transform="translate(950,479)"/>
<path d="M0 0 C3.98212462 3.26445303 7.14736963 6.72105444 10 11 C10.00341797 12.95751953 10.00341797 12.95751953 9 15 C6.39892578 16.82763672 6.39892578 16.82763672 2.9453125 18.6796875 C2.02103958 19.18255783 2.02103958 19.18255783 1.07809448 19.69558716 C-0.89976547 20.76799369 -2.88692739 21.82166861 -4.875 22.875 C-6.17513973 23.57559846 -7.4746267 24.27740971 -8.7734375 24.98046875 C-11.31042622 26.35173808 -13.85192756 27.71399954 -16.39746094 29.06933594 C-20.60613517 31.31450512 -24.77090343 33.63788236 -28.93017578 35.97314453 C-31 37 -31 37 -33 37 C-36.22265625 31.82421875 -36.22265625 31.82421875 -37 30 C-35.61297586 25.83892758 -33.62075681 25.44228048 -29.77734375 23.42578125 C-29.15726944 23.09708542 -28.53719513 22.76838959 -27.89833069 22.42973328 C-25.91601815 21.38157833 -23.926989 20.34695749 -21.9375 19.3125 C-20.59263532 18.6043955 -19.24822803 17.89542156 -17.90429688 17.18554688 C-14.60811313 15.44690991 -11.30577576 13.72034302 -8 12 C-8.85907445 9.76778305 -8.85907445 9.76778305 -11.375 8.875 C-17.98394859 7.27973655 -24.4021278 6.60011989 -30.4375 10.1875 C-34.77347218 13.32642465 -37.93113612 17.0469996 -40 22 C-40.78590903 28.39693399 -40.70892953 34.58260845 -37.41015625 40.24609375 C-34.11966461 44.3386997 -29.96568436 47.34477188 -25 49 C-18.97733667 49.61770906 -13.23797768 49.22582772 -8 46 C-4.18354939 42.46151922 -1.18192041 38.73455546 1 34 C5.16138263 33.91840426 8.9472484 34.01751476 13 35 C11.87565062 43.99479502 6.74059941 50.29836516 0 56 C-8.21911973 61.93603091 -17.12950096 62.90695516 -27 62 C-35.26651705 60.22520023 -41.5025961 55.27717751 -47 49 C-52.74995383 39.8739265 -54.39087967 30.62813485 -53 20 C-49.59098634 9.16420657 -42.92875241 2.21044978 -33.11328125 -3.0546875 C-22.6725267 -7.72504351 -9.50953013 -5.81988813 0 0 Z " fill="#F2901E" transform="translate(781,480)"/>
<path d="M0 0 C17.53087813 -1.22308452 35.50863973 7.74963556 48.625 18.6875 C61.72900793 30.92725072 68.97102329 46.51180761 73.14453125 63.6796875 C75.31419369 72.10075175 78.33640873 77.85478728 85.6875 82.8125 C91.89284965 85.03705931 97.68870033 84.81431353 103.8125 82.375 C109.02829545 79.76710228 111.87301335 76.46863743 114.3125 71.125 C114.539375 70.42375 114.76625 69.7225 115 69 C119.16138263 68.91840426 122.9472484 69.01751476 127 70 C126.00300084 78.37479296 122.0793613 84.32982648 116 90 C113.11947693 91.9581638 110.16701526 93.5563782 107 95 C106.23429687 95.36609375 105.46859375 95.7321875 104.6796875 96.109375 C97.90101381 98.36234527 88.67467758 98.14449846 82.0625 95.375 C80.68197743 94.6302444 79.32604711 93.83791559 78 93 C77.30390625 92.57589844 76.6078125 92.15179687 75.890625 91.71484375 C67.94630051 86.35391801 63.11586911 78.46333934 61.2109375 69.13671875 C61.07848633 68.42257812 60.94603516 67.7084375 60.80957031 66.97265625 C57.44828153 49.29756468 49.22384284 33.85453488 34.70703125 22.81640625 C23.95119522 15.59928684 12.66044836 12.0114731 0 10 C0 6.7 0 3.4 0 0 Z " fill="#F18F1E" transform="translate(235,445)"/>
<path d="M0 0 C0.96099609 0.01353516 1.92199219 0.02707031 2.91210938 0.04101562 C5.25415439 0.07597152 7.59590586 0.12976206 9.9375 0.1875 C9.9375 4.4775 9.9375 8.7675 9.9375 13.1875 C8.08898437 13.19136719 8.08898437 13.19136719 6.203125 13.1953125 C-6.71831125 13.4214311 -15.97870091 15.56585178 -26.0625 24.1875 C-33.33846532 32.27190591 -34.69748494 40.80790974 -34.34375 51.33984375 C-33.66270117 60.65697015 -30.08553783 67.51013359 -23.24609375 73.87890625 C-13.05087034 82.09687421 -2.66981092 82.89498699 9.9375 83.1875 C9.9375 87.4775 9.9375 91.7675 9.9375 96.1875 C-7.21122541 97.01020005 -20.73982364 95.24736344 -34.0625 83.1875 C-43.70039002 72.96451041 -48.46788859 62.47017959 -48.375 48.375 C-48.36654053 47.04106201 -48.36654053 47.04106201 -48.35791016 45.68017578 C-48.11837599 32.75718874 -43.75209646 22.866721 -34.8125 13.4375 C-24.62471224 3.76252035 -13.91512751 -0.37765482 0 0 Z " fill="#F2901E" transform="translate(421.0625,444.8125)"/>
<path d="M0 0 C6.24317272 2.82573001 11.15396041 7.96888539 13.70703125 14.3515625 C14.61774146 20.8929137 14.67983264 26.74953439 11.01953125 32.4140625 C6.40976986 38.30851148 1.96668705 41.58585871 -5.546875 42.6796875 C-12.77452897 43.17736633 -17.7021128 40.84677452 -23.29296875 36.3515625 C-25.79296875 33.2890625 -25.79296875 33.2890625 -27.29296875 30.3515625 C-27.70546875 29.5884375 -28.11796875 28.8253125 -28.54296875 28.0390625 C-30.53638995 20.89596986 -29.51598663 15.14984548 -25.99609375 8.65625 C-19.83059719 0.31303218 -9.88190802 -2.79454298 0 0 Z " fill="#151621" transform="translate(481.29296875,487.6484375)"/>
<path d="M0 0 C0 3.96 0 7.92 0 12 C-1.19496094 12.00257813 -2.38992188 12.00515625 -3.62109375 12.0078125 C-15.25838277 12.02619301 -15.25838277 12.02619301 -25.36328125 17.203125 C-29.29551821 21.52013932 -31.17533645 25.64165287 -31.4375 31.5 C-31.03937111 38.52154585 -29.27493905 43.17647964 -24 47.9375 C-20.44066486 50.89687146 -17.60353343 52.07349824 -12.98828125 52.31640625 C-11.85229492 52.37924805 -11.85229492 52.37924805 -10.69335938 52.44335938 C-9.90767578 52.48267578 -9.12199219 52.52199219 -8.3125 52.5625 C-7.11657227 52.62727539 -7.11657227 52.62727539 -5.89648438 52.69335938 C-3.93118553 52.79927368 -1.96561504 52.90012551 0 53 C0 56.96 0 60.92 0 65 C-12.84482425 65.54210278 -23.00880192 65.47544334 -33.375 56.875 C-40.25995218 50.24180283 -44.03396642 42.4079915 -44.25 32.8125 C-44.08304275 22.76167329 -40.23731981 15.42571261 -33.37109375 8.3125 C-31.65720441 6.72188344 -29.91001482 5.34777663 -28 4 C-27.41347656 3.58492188 -26.82695313 3.16984375 -26.22265625 2.7421875 C-18.38176982 -1.69839373 -8.69637355 -0.31848367 0 0 Z " fill="#F08F1E" transform="translate(890,476)"/>
<path d="M0 0 C1.5675 0.020625 3.135 0.04125 4.75 0.0625 C4.75 3.6925 4.75 7.3225 4.75 11.0625 C3.95335937 11.16046875 3.15671875 11.2584375 2.3359375 11.359375 C-6.16838315 12.4956981 -6.16838315 12.4956981 -13.25 17.0625 C-18.03004804 23.52731907 -19.40202559 28.64471658 -19.56640625 36.66796875 C-19.58718735 37.50717361 -19.60796844 38.34637848 -19.62937927 39.21101379 C-19.69474018 41.89059294 -19.75369714 44.57026969 -19.8125 47.25 C-19.85569802 49.06706737 -19.89931273 50.88412488 -19.94335938 52.70117188 C-20.0504078 57.15484799 -20.15171319 61.60862226 -20.25 66.0625 C-24.21 66.0625 -28.17 66.0625 -32.25 66.0625 C-32.25 44.6125 -32.25 23.1625 -32.25 1.0625 C-28.29 1.0625 -24.33 1.0625 -20.25 1.0625 C-19.92 3.0425 -19.59 5.0225 -19.25 7.0625 C-18.57453125 6.64097656 -17.8990625 6.21945312 -17.203125 5.78515625 C-16.31109375 5.23730469 -15.4190625 4.68945312 -14.5 4.125 C-13.17742188 3.30708984 -13.17742188 3.30708984 -11.828125 2.47265625 C-7.76616229 0.25088574 -4.5966041 -0.06048163 0 0 Z " fill="#F3901E" transform="translate(838.25,474.9375)"/>
<path d="M0 0 C0.8871167 0.00572021 1.7742334 0.01144043 2.68823242 0.01733398 C11.8352778 0.26709701 17.58345004 2.81565409 24.1875 9.125 C27.42782778 12.56784826 29.1875 14.55145167 29.1875 19.5 C27.421875 20.9921875 27.421875 20.9921875 24.9375 22.375 C24.01453125 22.89320313 23.0915625 23.41140625 22.140625 23.9453125 C18.35683938 25.93730546 14.53580778 27.83910092 10.6875 29.703125 C7.91948895 31.1242021 5.24701499 32.60445053 2.5625 34.171875 C1.3549707 34.87038574 1.3549707 34.87038574 0.12304688 35.58300781 C-1.48238174 36.51704026 -3.08032922 37.46406911 -4.66992188 38.42480469 C-5.7769043 39.06530762 -5.7769043 39.06530762 -6.90625 39.71875 C-7.56302734 40.10998047 -8.21980469 40.50121094 -8.89648438 40.90429688 C-10.8125 41.5 -10.8125 41.5 -12.94726562 40.76757812 C-15.44196042 39.07223056 -16.4757586 37.1734828 -17.8125 34.5 C-17.8125 33.84 -17.8125 33.18 -17.8125 32.5 C-13.864335 30.35846792 -9.91329437 28.22237114 -5.95947266 26.09130859 C-4.61426301 25.36526572 -3.26985696 24.63773192 -1.92626953 23.90869141 C0.00279818 22.86229674 1.93467265 21.82126141 3.8671875 20.78125 C4.46933075 20.45314331 5.071474 20.12503662 5.69186401 19.7869873 C9.95975659 17.5 9.95975659 17.5 12.1875 17.5 C9.32380849 14.18414667 6.50113102 12.7963925 2.14453125 12.23828125 C-3.66701656 11.94820399 -8.0780591 13.06852498 -12.8125 16.5 C-15.59485473 19.21582016 -18.06786613 22.01073227 -19.8125 25.5 C-20.4725 25.5 -21.1325 25.5 -21.8125 25.5 C-22.51338156 23.75531628 -23.19774009 22.00398839 -23.875 20.25 C-24.25785156 19.27546875 -24.64070313 18.3009375 -25.03515625 17.296875 C-25.84696054 14.37601132 -26.05268103 13.22611223 -24.8125 10.5 C-23.2109375 8.68359375 -23.2109375 8.68359375 -21.1875 6.9375 C-20.53523438 6.35871094 -19.88296875 5.77992188 -19.2109375 5.18359375 C-12.91966384 0.76740654 -7.52698943 -0.055997 0 0 Z " fill="#F9F9FA" transform="translate(329.8125,475.5)"/>
<path d="M0 0 C3.29714793 0.32971479 4.6226839 0.6226839 7 3 C7.25 5.5 7.25 5.5 7 8 C5 10 5 10 2 10.3125 C1.01 10.209375 0.02 10.10625 -1 10 C-3 7 -3 7 -2.75 4.4375 C-2 2 -2 2 0 0 Z " fill="#F0F0F0" transform="translate(341,545)"/>
<path d="M0 0 C2.375 0.6875 2.375 0.6875 3.375 1.6875 C3.5625 4.625 3.5625 4.625 3.375 7.6875 C1.375 9.6875 1.375 9.6875 -1.625 10 C-2.615 9.896875 -3.605 9.79375 -4.625 9.6875 C-6.625 6.6875 -6.625 6.6875 -6.4375 4.125 C-5.25106036 0.56568108 -3.72738931 -0.44373682 0 0 Z " fill="#EDEEEE" transform="translate(316.625,545.3125)"/>
<path d="M0 0 C2.18975773 3.28463659 2.99806563 6.20696275 4 10 C3.34 10 2.68 10 2 10 C1.67 10.66 1.34 11.32 1 12 C0.63762737 10.37681021 0.28534843 8.7513642 -0.0625 7.125 C-0.25972656 6.22007812 -0.45695312 5.31515625 -0.66015625 4.3828125 C-1 2 -1 2 0 0 Z " fill="#302D32" transform="translate(304,490)"/>
</svg>
