<?xml version="1.0" encoding="UTF-8"?>
<svg version="1.1" xmlns="http://www.w3.org/2000/svg" width="587" height="587">
<path d="M0 0 C3.20730093 0.0031456 6.41366273 -0.02034281 9.62084961 -0.0456543 C28.94232328 -0.10578298 47.92974681 1.85327152 66.79858398 6.06567383 C67.96397705 6.32171387 69.12937012 6.57775391 70.33007812 6.84155273 C81.34739286 9.33868029 92.02492942 12.5632334 102.67358398 16.31567383 C103.94129639 16.75169922 103.94129639 16.75169922 105.23461914 17.1965332 C154.99803787 34.44759782 204.41478063 68.72638105 235.46850586 111.66186523 C236.72376452 113.3845399 238.01477249 115.07534142 239.31420898 116.76489258 C269.34684776 156.17431073 287.2903049 202.51805996 294.67358398 251.31567383 C294.86122314 252.54664795 295.0488623 253.77762207 295.2421875 255.04589844 C296.86151099 266.55905115 297.0129508 278.02989396 296.98925781 289.64208984 C296.98611221 292.84939077 297.00960062 296.05575257 297.03491211 299.26293945 C297.09504214 318.58484459 295.13482879 337.57128079 290.92358398 356.44067383 C290.66899414 357.60244141 290.4144043 358.76420898 290.15209961 359.96118164 C287.65925989 370.97977464 284.39175893 381.65602195 280.67358398 392.31567383 C280.4423584 393.00419434 280.21113281 393.69271484 279.97290039 394.40209961 C269.67195461 425.05912766 252.76498146 453.15389213 232.67358398 478.31567383 C231.93881836 479.25668945 231.20405273 480.19770508 230.44702148 481.16723633 C216.97644152 497.79704026 201.07470856 513.8406029 183.67358398 526.31567383 C182.52516838 527.18858904 181.37941753 528.06501895 180.23608398 528.94458008 C140.83980724 558.99404451 94.46745435 576.93296116 45.67358398 584.31567383 C44.44260986 584.50331299 43.21163574 584.69095215 41.94335938 584.88427734 C30.43020666 586.50360083 18.95936385 586.65504064 7.34716797 586.63134766 C4.13986704 586.62820206 0.93350524 586.65169046 -2.27368164 586.67700195 C-21.59558677 586.73713198 -40.58202297 584.77691863 -59.45141602 580.56567383 C-60.61318359 580.31108398 -61.77495117 580.05649414 -62.97192383 579.79418945 C-73.98590078 577.30239407 -84.67912859 574.06008608 -95.32641602 570.31567383 C-96.0521582 570.06317871 -96.77790039 569.81068359 -97.52563477 569.55053711 C-128.15390148 558.79760201 -156.11037539 542.75110328 -181.32641602 522.31567383 C-182.26098633 521.58477539 -183.19555664 520.85387695 -184.15844727 520.10083008 C-200.80137937 506.64252194 -216.85048508 490.71799801 -229.32641602 473.31567383 C-230.19933123 472.16725822 -231.07576114 471.02150737 -231.95532227 469.87817383 C-262.0047867 430.48189708 -279.94370334 384.10954419 -287.32641602 335.31567383 C-287.51405518 334.08469971 -287.70169434 332.85372559 -287.89501953 331.58544922 C-289.51434302 320.0722965 -289.66578283 308.60145369 -289.64208984 296.98925781 C-289.63894424 293.78195688 -289.66243265 290.57559508 -289.68774414 287.3684082 C-289.74787417 268.04650307 -287.78766082 249.06006687 -283.57641602 230.19067383 C-283.19453125 228.44802246 -283.19453125 228.44802246 -282.80493164 226.67016602 C-280.31209192 215.65157302 -277.04459096 204.9753257 -273.32641602 194.31567383 C-273.09519043 193.62715332 -272.86396484 192.93863281 -272.62573242 192.22924805 C-262.32478664 161.57222 -245.41781349 133.47745552 -225.32641602 108.31567383 C-224.59165039 107.3746582 -223.85688477 106.43364258 -223.09985352 105.46411133 C-209.62927355 88.8343074 -193.72754059 72.79074475 -176.32641602 60.31567383 C-175.17800041 59.44275862 -174.03224956 58.5663287 -172.88891602 57.68676758 C-133.49263927 27.63730315 -87.12028638 9.6983865 -38.32641602 2.31567383 C-37.09544189 2.12803467 -35.86446777 1.94039551 -34.59619141 1.74707031 C-23.08303869 0.12774682 -11.61219588 -0.02369299 0 0 Z " fill="#2873EF" transform="translate(290.326416015625,0.684326171875)"/>
<path d="M0 0 C2.47355664 -0.00514542 4.94710961 -0.01243137 7.4206543 -0.02168274 C13.41238862 -0.0382146 19.40367819 -0.03161747 25.39537401 -0.01359452 C30.26909349 0.00049337 35.14272444 0.00431108 40.01646233 0.00096321 C40.71297846 0.00048577 41.4094946 0.00000833 42.12711729 -0.00048358 C43.54254232 -0.00151002 44.95796734 -0.00256539 46.37339234 -0.00364935 C58.85820575 -0.01219526 71.34286165 0.00439044 83.82763672 0.03417969 C95.91429254 0.06301818 108.00072155 0.07009497 120.08740234 0.0546875 C133.28271328 0.03788959 146.4779168 0.03392713 159.67323059 0.05139786 C161.08282752 0.05324205 162.49242446 0.05507678 163.90202141 0.05690193 C164.59538222 0.05781402 165.28874303 0.05872611 166.00311478 0.05966584 C170.86582457 0.06524849 175.72848154 0.06198543 180.59118843 0.05535698 C187.14705506 0.04677441 193.70264528 0.05990428 200.25847626 0.08720589 C202.65734074 0.09406361 205.0562357 0.09421593 207.45509911 0.08699036 C224.07181278 0.04272472 236.60573005 1.48678893 251.39233398 9.63110352 C251.34407471 10.33605957 251.29581543 11.04101562 251.24609375 11.76733398 C250.0619932 24.71438949 250.0619932 24.71438949 253.75073242 36.68383789 C257.0901502 39.80985591 260.95442864 41.62801228 265.07813632 43.50981939 C276.40789631 48.99935913 276.40789631 48.99935913 278.31472945 54.09698749 C278.66694945 57.10617158 278.69730455 59.97516765 278.62179565 63.00424194 C278.63316217 64.14318393 278.64452868 65.28212592 278.65623963 66.45558131 C278.68206752 70.26997297 278.6364606 74.08012767 278.59106445 77.89428711 C278.58924921 80.62950123 278.60245655 83.36459608 278.61495972 86.09977722 C278.6362865 92.75654194 278.60443763 99.41203951 278.55468319 106.06861113 C278.49876433 113.82480074 278.496137 121.58073522 278.49579717 129.33709295 C278.49342311 143.18048448 278.44350244 157.02329507 278.36645508 170.86645508 C278.2917953 184.28937753 278.249266 197.71187762 278.2434082 211.13500977 C278.24304258 211.96145384 278.24267696 212.78789791 278.24230026 213.63938574 C278.24194232 214.46442062 278.24158437 215.2894555 278.24121559 216.13949144 C278.24048473 217.80078022 278.23973998 219.462069 278.23898125 221.12335777 C278.2384247 222.35238978 278.2384247 222.35238978 278.23785692 223.60625073 C278.2307079 236.41015511 278.19379798 249.21399458 278.15399476 262.01783275 C278.13997141 266.65289209 278.13039344 271.28793605 278.12407206 275.923012 C278.1139538 283.27800768 278.09098652 290.63271015 278.04147147 297.98755525 C278.01909511 301.34675036 278.00491764 304.70541385 278.0037384 308.06472206 C278.00121743 311.71153161 277.97408506 315.35735918 277.94064331 319.0039978 C277.94547348 320.05858197 277.95030365 321.11316613 277.95528018 322.19970739 C277.84032385 330.21644706 276.09573609 336.28742196 271.01733398 342.56860352 C265.27282975 347.08214256 259.32829451 346.91199756 252.34790039 346.8581543 C251.35216003 346.85844635 250.35641968 346.8587384 249.33050537 346.85903931 C246.05154595 346.85765014 242.77281603 346.84210824 239.49389648 346.82641602 C237.21560795 346.82268442 234.93731781 346.81983814 232.6590271 346.81784058 C226.67164658 346.81021568 220.68436356 346.79057693 214.69702148 346.76843262 C208.58375365 346.7479496 202.47047002 346.7388336 196.35717773 346.72875977 C184.36885372 346.70733003 172.38060197 346.67320781 160.39233398 346.63110352 C160.54887757 345.20511126 160.70596644 343.77917886 160.86328125 342.35327148 C160.95070084 341.55919891 161.03812042 340.76512634 161.12818909 339.94699097 C162.17357201 330.7816078 163.66098948 321.68899124 165.39233398 312.63110352 C165.73099252 310.84727153 166.06952137 309.06341493 166.40795898 307.27954102 C167.39893309 302.06266362 168.39439974 296.8466536 169.39233398 291.63110352 C170.28952148 291.62699463 171.18670898 291.62288574 172.11108398 291.61865234 C175.47400712 291.59151098 178.8351562 291.54226229 182.19750977 291.47851562 C183.64629051 291.4554705 185.09523559 291.44097182 186.54418945 291.43554688 C197.3667374 291.56868128 197.3667374 291.56868128 206.95532227 287.09082031 C209.19047004 284.82035675 210.52594329 282.52699673 211.82983398 279.63110352 C212.30291992 278.62047852 212.77600586 277.60985352 213.26342773 276.56860352 C215.36222961 271.10736126 215.65733379 265.92111391 215.76733398 260.13110352 C215.8047168 259.38473633 215.84209961 258.63836914 215.88061523 257.86938477 C215.8922168 257.14106445 215.90381836 256.41274414 215.91577148 255.66235352 C215.93559082 255.0081543 215.95541016 254.35395508 215.97583008 253.67993164 C215.00367532 250.26640749 213.14993644 248.78457016 210.39233398 246.63110352 C206.82914022 245.8560358 206.82914022 245.8560358 202.90405273 245.92407227 C202.20085403 245.90895096 201.49765533 245.89382965 200.77314758 245.87825012 C198.54171396 245.83548856 196.31163589 245.82654758 194.07983398 245.81860352 C192.56091803 245.7954498 191.0420341 245.77008262 189.52319336 245.74243164 C185.81293265 245.67969745 182.10312314 245.64726908 178.39233398 245.63110352 C180.46847975 226.30548498 182.68909813 206.56516894 196.39233398 191.63110352 C199.00561523 189.58422852 199.00561523 189.58422852 201.70483398 187.88110352 C202.5878418 187.30875977 203.47084961 186.73641602 204.38061523 186.14672852 C212.54032405 182.04041591 220.88326212 182.27527651 229.81616211 182.15258789 C235.83086236 181.98916661 242.07051118 181.74110609 247.39233398 178.63110352 C250.22677074 174.3113183 249.86856159 169.52392551 249.05786133 164.59936523 C248.61759748 162.57197737 248.11448718 160.57306696 247.57983398 158.56860352 C247.41418945 157.90022461 247.24854492 157.2318457 247.07788086 156.54321289 C245.32432372 149.73411743 243.64261405 143.55569798 237.39233398 139.63110352 C222.10001381 133.64885022 200.74552882 136.51895895 185.39233398 141.63110352 C184.25280273 141.99333008 183.11327148 142.35555664 181.93920898 142.72875977 C156.92849105 151.47065762 138.77367606 170.35339169 127.38842773 193.6887207 C119.92441842 209.90498361 117.57486579 228.19808018 114.39233398 245.63110352 C113.6159256 245.63474915 112.83951721 245.63839478 112.0395813 245.64215088 C58.05266551 243.85711828 58.05266551 243.85711828 5.39233398 252.63110352 C6.60663086 252.80125977 7.82092773 252.97141602 9.07202148 253.14672852 C23.53127076 255.18620155 37.96376721 257.38559241 52.39233398 259.63110352 C53.05233398 262.27110352 53.71233398 264.91110352 54.39233398 267.63110352 C53.38650269 267.7141272 53.38650269 267.7141272 52.36035156 267.79882812 C49.30825661 268.05244362 46.25655084 268.31047989 43.20483398 268.56860352 C42.14973633 268.65561523 41.09463867 268.74262695 40.00756836 268.83227539 C38.98598633 268.91928711 37.9644043 269.00629883 36.91186523 269.09594727 C35.9744751 269.17449951 35.03708496 269.25305176 34.07128906 269.33398438 C31.49119626 269.62013884 28.93783591 270.12200313 26.39233398 270.63110352 C36.29233398 271.95110352 46.19233398 273.27110352 56.39233398 274.63110352 C56.72233398 276.94110352 57.05233398 279.25110352 57.39233398 281.63110352 C56.75595505 281.66424652 56.11957611 281.69738953 55.46391296 281.73153687 C25.43606751 283.29618347 -4.59101566 284.86280375 -34.60766602 286.63110352 C-18.55642258 287.83948624 -2.46664178 288.20049575 13.61859131 288.69360352 C18.26593481 288.83618313 22.91312646 288.98315183 27.56030273 289.13110352 C28.75543991 289.16655273 29.95057709 289.20200195 31.18193054 289.23852539 C36.79650894 289.41810605 42.38115385 289.68308436 47.98022461 290.14257812 C54.2615859 290.65433675 60.51821409 290.84708967 66.81811523 290.94750977 C68.48852119 290.97868141 68.48852119 290.97868141 70.19267273 291.01048279 C73.69667312 291.07506847 77.20073841 291.13443311 80.70483398 291.19360352 C83.10262674 291.23687561 85.50041331 291.28049242 87.89819336 291.32446289 C93.72950803 291.43065428 99.56088503 291.53257703 105.39233398 291.63110352 C104.19116211 298.83813477 102.98999023 306.04516602 101.78881836 313.25219727 C101.65847198 314.03467834 101.52812561 314.81715942 101.39382935 315.62335205 C101.12944409 317.20884866 100.86452967 318.79425712 100.59909058 320.37957764 C99.9064897 324.52040964 99.22436391 328.66258496 98.55883789 332.80786133 C98.35657341 334.0552861 98.35657341 334.0552861 98.15022278 335.32791138 C97.89178517 336.92330716 97.63652638 338.51922189 97.3848114 340.11569214 C96.50473604 345.51870146 96.50473604 345.51870146 95.39233398 346.63110352 C93.41098698 346.73877137 91.42575923 346.77523366 89.44151306 346.78500366 C88.1475058 346.79360413 86.85349854 346.80220459 85.52027893 346.81106567 C84.07260172 346.8155014 82.62492408 346.81979971 81.17724609 346.82397461 C79.66300262 346.83187245 78.14876105 346.8401412 76.63452148 346.84875488 C71.64625864 346.8750234 66.65798722 346.89029256 61.66967773 346.90454102 C59.95336972 346.90989971 58.23706176 346.91527721 56.52075386 346.92067337 C49.37925285 346.94231387 42.23775413 346.96104883 35.0962286 346.97229576 C24.86046106 346.98852051 14.62507408 347.02164879 4.38945001 347.07869661 C-2.80554014 347.11742879 -10.00042868 347.13693263 -17.19552034 347.14221632 C-21.4928606 347.14586684 -25.78979544 347.15785472 -30.08702278 347.19031906 C-34.13449362 347.22045569 -38.18131502 347.22669191 -42.22887421 347.2149353 C-43.71070467 347.214715 -45.19256571 347.22298466 -46.67429161 347.24058914 C-61.68605141 347.40916329 -61.68605141 347.40916329 -67.60766602 341.63110352 C-71.35526696 336.71305962 -72.71649254 331.89450021 -72.77261353 325.81239223 C-72.78385506 324.83934436 -72.79509659 323.86629649 -72.80667877 322.86376232 C-72.81399773 321.79734243 -72.82131668 320.73092254 -72.82885742 319.63218689 C-72.84029533 318.49721931 -72.85173325 317.36225172 -72.86351776 316.19289118 C-72.90039841 312.37536696 -72.92994761 308.55782396 -72.95922852 304.74023438 C-72.9769662 302.70452339 -72.99540186 300.66881945 -73.01386535 298.63311493 C-73.24494332 273.00308363 -73.36790516 247.37210372 -73.46697998 221.74126339 C-73.48010722 218.40481913 -73.49348226 215.06837597 -73.50708008 211.73193359 C-73.51044923 210.90269949 -73.51381839 210.07346539 -73.51728964 209.21910299 C-73.57345225 195.79204349 -73.68552242 182.36602139 -73.81909347 168.93953341 C-73.95515794 155.14759008 -74.0341621 141.35618621 -74.05966377 127.56359011 C-74.07554571 119.82202606 -74.11715325 112.08242403 -74.22418213 104.34153557 C-74.31535596 97.74723701 -74.35552887 91.15511601 -74.32969987 84.56019413 C-74.31813136 81.19598503 -74.33872328 77.84032676 -74.40920639 74.47627068 C-74.79972806 54.83823807 -74.79972806 54.83823807 -71.13967705 49.48333669 C-67.21332833 45.4605259 -62.67170209 42.95432344 -57.60766602 40.63110352 C-52.69981676 38.17409095 -52.69981676 38.17409095 -48.60766602 34.63110352 C-47.40713672 30.31582999 -47.43706998 26.21066578 -47.54516602 21.75610352 C-47.53807617 20.59079102 -47.53098633 19.42547852 -47.52368164 18.22485352 C-47.51193137 15.3577868 -47.54118166 12.49724717 -47.60766602 9.63110352 C-44.62535765 8.24278755 -41.62916666 6.92989498 -38.60766602 5.63110352 C-37.70931062 5.20296388 -36.81095522 4.77482424 -35.88537693 4.33371067 C-24.18099831 -0.64268612 -12.51391771 -0.06634746 0 0 Z " fill="#F8E025" transform="translate(191.607666015625,115.368896484375)"/>
<path d="M0 0 C3.20730093 0.0031456 6.41366273 -0.02034281 9.62084961 -0.0456543 C28.94232328 -0.10578298 47.92974681 1.85327152 66.79858398 6.06567383 C67.96397705 6.32171387 69.12937012 6.57775391 70.33007812 6.84155273 C81.34739286 9.33868029 92.02492942 12.5632334 102.67358398 16.31567383 C103.94129639 16.75169922 103.94129639 16.75169922 105.23461914 17.1965332 C154.99803787 34.44759782 204.41478063 68.72638105 235.46850586 111.66186523 C236.72376452 113.3845399 238.01477249 115.07534142 239.31420898 116.76489258 C269.34684776 156.17431073 287.2903049 202.51805996 294.67358398 251.31567383 C294.86122314 252.54664795 295.0488623 253.77762207 295.2421875 255.04589844 C296.86151099 266.55905115 297.0129508 278.02989396 296.98925781 289.64208984 C296.98611221 292.84939077 297.00960062 296.05575257 297.03491211 299.26293945 C297.09504214 318.58484459 295.13482879 337.57128079 290.92358398 356.44067383 C290.66899414 357.60244141 290.4144043 358.76420898 290.15209961 359.96118164 C287.65925989 370.97977464 284.39175893 381.65602195 280.67358398 392.31567383 C280.4423584 393.00419434 280.21113281 393.69271484 279.97290039 394.40209961 C269.67195461 425.05912766 252.76498146 453.15389213 232.67358398 478.31567383 C231.93881836 479.25668945 231.20405273 480.19770508 230.44702148 481.16723633 C216.97644152 497.79704026 201.07470856 513.8406029 183.67358398 526.31567383 C182.52516838 527.18858904 181.37941753 528.06501895 180.23608398 528.94458008 C140.83980724 558.99404451 94.46745435 576.93296116 45.67358398 584.31567383 C44.44260986 584.50331299 43.21163574 584.69095215 41.94335938 584.88427734 C30.43020666 586.50360083 18.95936385 586.65504064 7.34716797 586.63134766 C4.13986704 586.62820206 0.93350524 586.65169046 -2.27368164 586.67700195 C-21.59558677 586.73713198 -40.58202297 584.77691863 -59.45141602 580.56567383 C-60.61318359 580.31108398 -61.77495117 580.05649414 -62.97192383 579.79418945 C-73.98590078 577.30239407 -84.67912859 574.06008608 -95.32641602 570.31567383 C-96.0521582 570.06317871 -96.77790039 569.81068359 -97.52563477 569.55053711 C-128.15390148 558.79760201 -156.11037539 542.75110328 -181.32641602 522.31567383 C-182.26098633 521.58477539 -183.19555664 520.85387695 -184.15844727 520.10083008 C-200.80137937 506.64252194 -216.85048508 490.71799801 -229.32641602 473.31567383 C-230.19933123 472.16725822 -231.07576114 471.02150737 -231.95532227 469.87817383 C-262.0047867 430.48189708 -279.94370334 384.10954419 -287.32641602 335.31567383 C-287.51405518 334.08469971 -287.70169434 332.85372559 -287.89501953 331.58544922 C-289.51434302 320.0722965 -289.66578283 308.60145369 -289.64208984 296.98925781 C-289.63894424 293.78195688 -289.66243265 290.57559508 -289.68774414 287.3684082 C-289.74787417 268.04650307 -287.78766082 249.06006687 -283.57641602 230.19067383 C-283.19453125 228.44802246 -283.19453125 228.44802246 -282.80493164 226.67016602 C-280.31209192 215.65157302 -277.04459096 204.9753257 -273.32641602 194.31567383 C-273.09519043 193.62715332 -272.86396484 192.93863281 -272.62573242 192.22924805 C-262.32478664 161.57222 -245.41781349 133.47745552 -225.32641602 108.31567383 C-224.59165039 107.3746582 -223.85688477 106.43364258 -223.09985352 105.46411133 C-209.62927355 88.8343074 -193.72754059 72.79074475 -176.32641602 60.31567383 C-175.17800041 59.44275862 -174.03224956 58.5663287 -172.88891602 57.68676758 C-133.49263927 27.63730315 -87.12028638 9.6983865 -38.32641602 2.31567383 C-37.09544189 2.12803467 -35.86446777 1.94039551 -34.59619141 1.74707031 C-23.08303869 0.12774682 -11.61219588 -0.02369299 0 0 Z M-43.32641602 11.31567383 C-44.26807617 11.49259766 -45.20973633 11.66952148 -46.17993164 11.85180664 C-52.94381763 13.15117293 -59.64027924 14.66464379 -66.32641602 16.31567383 C-67.1876709 16.52530762 -68.04892578 16.73494141 -68.9362793 16.95092773 C-107.58670023 26.56358268 -143.76984938 45.94501925 -174.32641602 71.31567383 C-174.88312988 71.77087402 -175.43984375 72.22607422 -176.01342773 72.69506836 C-189.74064891 83.94490319 -202.40055932 96.31265963 -213.32641602 110.31567383 C-214.2515964 111.43162001 -215.18020065 112.54473338 -216.11157227 113.65551758 C-252.65524336 157.58427924 -276.24281823 218.28157739 -276.52954102 275.51098633 C-276.53660065 276.45309464 -276.54366028 277.39520294 -276.55093384 278.36585999 C-276.8202069 306.97964856 -276.8202069 306.97964856 -273.32641602 335.31567383 C-273.13837402 336.33902832 -272.95033203 337.36238281 -272.7565918 338.41674805 C-263.43698539 388.0694164 -241.3279212 436.85081568 -206.54907227 473.94458008 C-204.61929878 476.00323124 -202.77663017 478.1024998 -200.95141602 480.25317383 C-192.85679946 489.52588012 -184.00384416 497.72502264 -174.32641602 505.31567383 C-173.23427238 506.19725163 -172.14317006 507.08012064 -171.05297852 507.96411133 C-132.32791753 539.17535451 -85.49143997 559.12418216 -36.32641602 566.31567383 C-34.51596802 566.58383911 -34.51596802 566.58383911 -32.66894531 566.85742188 C-20.7084742 568.50849048 -8.82287225 568.67416611 3.23608398 568.62817383 C4.25304352 568.62601868 5.27000305 568.62386353 6.31777954 568.62164307 C21.31421615 568.57064631 35.9102639 568.17435384 50.67358398 565.31567383 C51.69693848 565.12763184 52.72029297 564.93958984 53.7746582 564.74584961 C103.42625307 555.42644469 152.20413958 533.31827796 189.29858398 498.54223633 C191.37942732 496.5914457 193.501814 494.72592974 195.67358398 492.87817383 C203.64678883 485.91588657 210.85714555 478.39066725 217.43920898 470.10473633 C218.93518556 468.23738095 220.46729577 466.39843737 222.03295898 464.58911133 C254.63976632 426.89398056 274.51232217 377.27402974 281.67358398 328.31567383 C281.94174927 326.50522583 281.94174927 326.50522583 282.21533203 324.65820312 C283.86642728 312.69753896 284.0309865 300.8122685 283.98608398 288.75317383 C283.98426117 287.73754364 283.98243835 286.72191345 283.9805603 285.67550659 C283.93526941 270.6880565 283.52198502 256.07281536 280.67358398 241.31567383 C280.49666016 240.36869629 280.31973633 239.42171875 280.13745117 238.44604492 C271.55426228 193.47695426 253.13660534 151.26353032 224.67358398 115.31567383 C223.89370117 114.3230957 223.11381836 113.33051758 222.31030273 112.30786133 C211.11684094 98.35082726 198.66570471 84.75981267 184.61108398 73.63989258 C182.51630098 71.98245124 180.46335974 70.30716366 178.42358398 68.58520508 C154.4125188 48.51038009 126.10584744 33.681584 96.67358398 23.31567383 C95.85196777 23.02611816 95.03035156 22.7365625 94.18383789 22.43823242 C69.45280952 13.87884819 42.71189492 8.24382747 16.47827148 8.11254883 C15.06483711 8.10202736 15.06483711 8.10202736 13.62284851 8.09129333 C10.59804451 8.07388374 7.57343625 8.06744094 4.54858398 8.06567383 C3.51547089 8.06499908 2.48235779 8.06432434 1.41793823 8.06362915 C-13.70980267 8.07934575 -28.43002212 8.43555579 -43.32641602 11.31567383 Z " fill="#000000" transform="translate(290.326416015625,0.684326171875)"/>
<path d="M0 0 C1.28068359 -0.02900391 2.56136719 -0.05800781 3.88085938 -0.08789062 C12.89549413 -0.1482047 19.51127277 0.78590811 26.5 6.6875 C32.56158387 14.86749207 34.32093838 28.33584556 33.6875 38.3125 C32.75 41.125 32.75 41.125 30.6875 43.3125 C24.08880044 46.49339756 17.45030936 46.74596249 10.25 46.8125 C-2.06979251 46.92679894 -11.87866934 48.9250561 -21.3125 57.3125 C-30.42097844 67.69656405 -33.28717115 81.35829529 -35.625 94.5625 C-35.89005002 96.00152844 -36.15631941 97.44033284 -36.42382812 98.87890625 C-37.06741117 102.35431088 -37.69462287 105.83242147 -38.3125 109.3125 C-36.89771362 109.2810791 -36.89771362 109.2810791 -35.4543457 109.24902344 C-31.94122476 109.18068572 -28.42881415 109.13062253 -24.9152832 109.09277344 C-23.3972659 109.07270797 -21.87932541 109.04544866 -20.36157227 109.01074219 C-18.17444878 108.96199607 -15.98835048 108.93948195 -13.80078125 108.921875 C-12.48634033 108.90092773 -11.17189941 108.87998047 -9.81762695 108.85839844 C-5.76499214 109.38343157 -4.16587965 110.45080534 -1.3125 113.3125 C1.791817 119.52113399 0.31381319 131.32682694 -1.5 137.875 C-4.03150016 144.76630598 -7.21371687 150.45733211 -13.6262207 154.30688477 C-19.52425054 156.51482668 -26.10461374 155.81164509 -32.3125 155.625 C-33.76949288 155.59987943 -35.22652759 155.5770729 -36.68359375 155.55664062 C-40.22744197 155.50195637 -43.76969932 155.41589531 -47.3125 155.3125 C-47.51552734 157.22869141 -47.51552734 157.22869141 -47.72265625 159.18359375 C-48.28836493 164.26502972 -48.99559186 169.3185311 -49.75 174.375 C-49.87181641 175.22126953 -49.99363281 176.06753906 -50.11914062 176.93945312 C-50.89755124 182.17053377 -51.99392236 187.19237794 -53.3125 192.3125 C-53.69347279 194.34933493 -54.0502797 196.39094349 -54.375 198.4375 C-54.60896484 199.89542969 -54.60896484 199.89542969 -54.84765625 201.3828125 C-55.00105469 202.34960938 -55.15445313 203.31640625 -55.3125 204.3125 C-55.6425 206.2925 -55.9725 208.2725 -56.3125 210.3125 C-22.6525 210.3125 11.0075 210.3125 45.6875 210.3125 C45.6875 210.6425 45.6875 210.9725 45.6875 211.3125 C32.34456075 211.49778724 19.00192703 211.63997069 5.65796375 211.72699738 C-0.53813777 211.76876452 -6.7333598 211.82542302 -12.92895508 211.91601562 C-18.90718039 212.00288364 -24.8845594 212.05076263 -30.86336708 212.07151794 C-33.14527019 212.08631016 -35.42712649 212.11519677 -37.70866966 212.15834045 C-40.90339912 212.21635449 -44.09462423 212.22441591 -47.28979492 212.22070312 C-48.23494461 212.24946533 -49.1800943 212.27822754 -50.15388489 212.30786133 C-52.7791264 212.27481087 -54.83319696 212.18310409 -57.3125 211.3125 C-59.06612896 209.34011517 -60.15683784 207.48179287 -61.26593494 205.09160614 C-61.61130141 204.50450111 -61.95666788 203.91739609 -62.3125 203.3125 C-65.39931086 202.47850125 -65.39931086 202.47850125 -68.3125 203.3125 C-69.3025 203.9725 -70.2925 204.6325 -71.3125 205.3125 C-73.59647032 204.96644389 -75.24659037 204.34545481 -77.3125 203.3125 C-82.12185833 202.89062646 -85.0970235 203.01742273 -89.3671875 205.28515625 C-94.82390209 207.8148372 -99.93265633 207.97598011 -105.875 208.0625 C-106.88369141 208.09214844 -107.89238281 208.12179687 -108.93164062 208.15234375 C-111.3920037 208.22230668 -113.85146011 208.27536189 -116.3125 208.3125 C-116.3125 208.9725 -116.3125 209.6325 -116.3125 210.3125 C-117.6325 210.3125 -118.9525 210.3125 -120.3125 210.3125 C-119.87548484 199.57887259 -118.25400716 189.2476083 -116.30126953 178.70361328 C-115.80583944 176.02650902 -115.32203054 173.34748704 -114.83984375 170.66796875 C-114.5293072 168.96081706 -114.21813364 167.2537811 -113.90625 165.546875 C-113.76143188 164.74803894 -113.61661377 163.94920288 -113.46740723 163.12615967 C-112.42910634 157.54571268 -112.42910634 157.54571268 -111.3125 155.3125 C-111.92256393 155.31472061 -112.53262787 155.31694122 -113.16117859 155.31922913 C-119.57009286 155.34153026 -125.97899592 155.35650904 -132.38793945 155.36743164 C-134.77270964 155.37242846 -137.15747682 155.37922815 -139.54223633 155.38793945 C-142.99040475 155.40021052 -146.43853231 155.40577498 -149.88671875 155.41015625 C-151.4594178 155.41789818 -151.4594178 155.41789818 -153.06388855 155.42579651 C-159.29841054 155.42625814 -165.429814 155.09923724 -171.64079285 154.57862854 C-179.40093596 154.01616659 -187.18209551 153.82387735 -194.95703125 153.55859375 C-196.82176021 153.49299772 -198.68648076 153.42716205 -200.55119324 153.36109924 C-205.41549725 153.18940158 -210.27990731 153.02091986 -215.14434814 152.85314941 C-220.12559827 152.68076664 -225.10673917 152.50528492 -230.08789062 152.33007812 C-239.8293237 151.98788354 -249.57087185 151.6490925 -259.3125 151.3125 C-259.3125 150.9825 -259.3125 150.6525 -259.3125 150.3125 C-254.09690656 149.6167728 -248.9397183 149.11366425 -243.68164062 148.83178711 C-242.96490173 148.7926268 -242.24816284 148.75346649 -241.50970459 148.71311951 C-239.16286759 148.58574401 -236.81583345 148.46258802 -234.46875 148.33984375 C-232.81456833 148.25172086 -231.16039364 148.16346673 -229.50622559 148.0750885 C-226.04331307 147.89079445 -222.58029287 147.70870846 -219.1171875 147.52807617 C-214.72439304 147.29869086 -210.33196918 147.0629116 -205.93961334 146.82529354 C-202.52151874 146.64128257 -199.10322249 146.4612528 -195.68486023 146.28228951 C-194.06801927 146.19709395 -192.45124528 146.11061571 -190.83454895 146.02271843 C-180.31591087 145.45316779 -169.84652053 145.20414719 -159.3125 145.3125 C-159.8075 141.8475 -159.8075 141.8475 -160.3125 138.3125 C-161.55 138.23902344 -161.55 138.23902344 -162.8125 138.1640625 C-169.5835248 137.72575956 -176.32324526 137.16052901 -183.0625 136.375 C-183.7534375 136.30039551 -184.444375 136.22579102 -185.15625 136.14892578 C-190.07772447 135.54727553 -190.07772447 135.54727553 -192.3125 133.3125 C-189.18838408 132.97052981 -186.06310292 132.64057747 -182.9375 132.3125 C-181.63232422 132.16941406 -181.63232422 132.16941406 -180.30078125 132.0234375 C-174.28220497 131.39928885 -168.36170988 131.19526094 -162.3125 131.3125 C-162.8075 130.1678125 -162.8075 130.1678125 -163.3125 129 C-164.3125 126.3125 -164.3125 126.3125 -164.3125 123.3125 C-165.05371094 123.27511719 -165.79492188 123.23773438 -166.55859375 123.19921875 C-173.73197159 122.75143139 -180.65110488 121.80195359 -187.69946289 120.47167969 C-193.72833019 119.35539882 -199.76395754 118.61503177 -205.86816406 118.04711914 C-209.42499169 117.68399424 -211.27303037 117.33881309 -214.3125 115.3125 C-207.98814912 114.24964723 -201.65345685 113.27081502 -195.3125 112.3125 C-193.99313194 112.10732002 -193.99313194 112.10732002 -192.64710999 111.897995 C-174.08705303 109.07922365 -155.78810984 108.94113793 -137.07366943 109.10650635 C-133.13705473 109.13783713 -129.20037671 109.15103067 -125.26367188 109.16601562 C-117.61311612 109.19767748 -109.96286117 109.24850473 -102.3125 109.3125 C-102.2512796 108.65765121 -102.1900592 108.00280243 -102.12698364 107.32810974 C-98.92731336 74.07222258 -88.6739805 43.59322529 -62.8359375 21.30078125 C-58.5411431 17.91680238 -54.05309829 15.02983189 -49.3125 12.3125 C-48.39984375 11.78785156 -47.4871875 11.26320313 -46.546875 10.72265625 C-31.79628189 2.80328044 -16.57574474 0.12400807 0 0 Z " fill="#107BD4" transform="translate(408.3125,251.6875)"/>
<path d="M0 0 C2.47473959 -0.00430394 4.94947515 -0.01207737 7.42419434 -0.02301025 C13.38825853 -0.04022489 19.35150469 -0.02092063 25.31541277 0.01639095 C32.28201082 0.05837646 39.24842502 0.05763464 46.21512573 0.05570063 C58.65125509 0.05370849 71.08696946 0.09007227 83.52294922 0.1484375 C95.55492703 0.20487622 107.58654036 0.23311504 119.61865234 0.23046875 C120.36123207 0.23030893 121.10381179 0.2301491 121.86889393 0.22998443 C122.98095947 0.22974231 122.98095947 0.22974231 124.11549097 0.22949529 C137.87681769 0.2267292 151.63799163 0.25031986 165.39926862 0.28610815 C170.24201991 0.29811393 175.08474287 0.30241911 179.9275074 0.30423737 C186.45069033 0.30726648 192.97354384 0.33281104 199.49662018 0.37290192 C201.8825772 0.38453126 204.26857777 0.38951778 206.654562 0.38719177 C223.89263181 0.37675025 234.80656731 2.13289791 250.48413086 9.97167969 C250.48413086 17.89167969 250.48413086 25.81167969 250.48413086 33.97167969 C241.48413086 28.97167969 241.48413086 28.97167969 232.48413086 22.97167969 C232.48413086 33.20167969 232.48413086 43.43167969 232.48413086 53.97167969 C145.69413086 53.97167969 58.90413086 53.97167969 -30.51586914 53.97167969 C-31.01086914 38.62667969 -31.01086914 38.62667969 -31.51586914 22.97167969 C-34.77520519 17.53945293 -35.55866551 17.1152651 -41.20336914 15.15917969 C-42.38286133 14.74023438 -43.56235352 14.32128906 -44.77758789 13.88964844 C-45.6812207 13.58671875 -46.58485352 13.28378906 -47.51586914 12.97167969 C-47.51586914 11.65167969 -47.51586914 10.33167969 -47.51586914 8.97167969 C-31.41744379 1.80338364 -17.50062406 -0.17938526 0 0 Z " fill="#F9C401" transform="translate(192.515869140625,115.0283203125)"/>
<path d="M0 0 C0.33 0.99 0.66 1.98 1 3 C1.639375 3.0825 2.27875 3.165 2.9375 3.25 C5.64268931 3.91249534 8.049256 4.70793717 10.625 5.75 C11.38039062 6.05421875 12.13578125 6.3584375 12.9140625 6.671875 C15 8 15 8 18 13 C18 23.23 18 33.46 18 44 C104.79 44 191.58 44 281 44 C281 33.77 281 23.54 281 13 C284.98496452 14.59398581 287.58196774 15.92885754 290.9921875 18.34375 C291.93819824 19.00882568 292.88420898 19.67390137 293.85888672 20.35913086 C294.8542041 21.06561768 295.84952148 21.77210449 296.875 22.5 C298.93666935 23.95040019 300.9991712 25.39961776 303.0625 26.84765625 C304.07054687 27.5555127 305.07859375 28.26336914 306.1171875 28.99267578 C310.61277716 32.12298897 315.16914605 35.15761173 319.74560547 38.16796875 C323.91360118 40.91360118 323.91360118 40.91360118 325 42 C325.09678366 43.49085633 325.12371748 44.98629984 325.12304783 46.48029423 C325.12503888 47.45415264 325.12702993 48.42801106 325.12908131 49.43138033 C325.12616847 50.51404206 325.12325563 51.5967038 325.12025452 52.71217346 C325.12153615 54.42242176 325.12153615 54.42242176 325.12284368 56.16722053 C325.12421181 59.34601527 325.12106455 62.52476978 325.11606562 65.70355976 C325.11176426 69.12620539 325.11320732 72.54884901 325.1139679 75.97149658 C325.11449333 81.90613314 325.11134449 87.84075873 325.10573006 93.77539253 C325.0976177 102.35597324 325.09500011 110.93654863 325.09374207 119.51713275 C325.09155113 133.43712471 325.08488992 147.35711083 325.07543945 161.27709961 C325.06626641 174.80248994 325.05918505 188.32787868 325.05493164 201.85327148 C325.05453756 203.10293505 325.05453756 203.10293505 325.05413551 204.37784434 C325.05283051 208.55712958 325.05156679 212.73641482 325.05032361 216.91570008 C325.0399497 251.61047089 325.02233025 286.30523491 325 321 C324.67 321 324.34 321 324 321 C324 231.57 324 142.14 324 50 C209.16 50 94.32 50 -24 50 C-24.33 47.36 -24.66 44.72 -25 42 C-22.68936596 40.28909574 -20.37656007 38.58126015 -18.0625 36.875 C-17.42248047 36.400625 -16.78246094 35.92625 -16.12304688 35.4375 C-15.47529297 34.96054688 -14.82753906 34.48359375 -14.16015625 33.9921875 C-13.49508057 33.49187012 -12.83000488 32.99155273 -12.14477539 32.47607422 C-10 31 -10 31 -7.52514648 29.74658203 C-4.91530763 28.35925617 -3.0111154 27.17475665 -1 25 C0.23099354 20.69357614 0.17056593 16.57832164 0.0625 12.125 C0.06958984 10.9596875 0.07667969 9.794375 0.08398438 8.59375 C0.09573465 5.72668328 0.06648435 2.86614365 0 0 Z " fill="#E9DB48" transform="translate(144,125)"/>
<path d="M0 0 C6.46153846 0.46153846 6.46153846 0.46153846 9 3 C9.15327614 5.22545162 9.22203074 7.45695159 9.25 9.6875 C9.93245256 24.60215763 16.21649517 34.97376376 27 45 C35.93457466 52.80317291 45.58117988 57.87004793 57 61 C57.75023437 61.22558594 58.50046875 61.45117188 59.2734375 61.68359375 C72.22461185 64.97819073 90.49161326 64.79044599 103 60 C103.64066406 59.80664062 104.28132813 59.61328125 104.94140625 59.4140625 C119.85125271 54.87976214 131.00584094 47.47028026 139 34 C139.39058594 33.40316406 139.78117188 32.80632812 140.18359375 32.19140625 C145.01415185 24.52975183 145.28088253 16.20605128 145.57104492 7.40844727 C145.78925722 2.21074278 145.78925722 2.21074278 148 0 C151.4375 -0.375 151.4375 -0.375 155 0 C157.37813934 2.27995927 157.95906977 3.66727686 158.36328125 6.953125 C158.26589677 13.27562521 158.03875786 19.00022688 156 25 C155.74347656 25.83917969 155.48695313 26.67835938 155.22265625 27.54296875 C151.75229061 38.1030084 146.13961577 46.50581631 138 54 C136.8553125 55.21042969 136.8553125 55.21042969 135.6875 56.4453125 C126.95700614 64.74435754 115.33852103 68.70940559 104 72 C102.88496094 72.35320312 101.76992188 72.70640625 100.62109375 73.0703125 C77.60162798 78.9803803 51.79173049 74.73940098 31.43066406 62.91870117 C27.03456794 60.28658479 24.2605933 58.6001593 22 54 C20.66766463 53.66269991 19.3341851 53.32990759 18 53 C6.93730685 42.86255028 -1.50206967 29.56986128 -2.37890625 14.32421875 C-2.48007272 10.17725829 -2.45210792 6.12607968 -2 2 C-1.34 1.34 -0.68 0.68 0 0 Z " fill="#F9F9F3" transform="translate(216,185)"/>
<path d="M0 0 C2.41127953 7.79261561 -2.33504438 18.7116892 -5.73046875 25.875 C-11.48538569 36.50676409 -21.32116908 50.60158088 -33.26953125 54.796875 C-35.15889937 55.28658863 -37.07859222 55.65689147 -39 56 C-39 56.66 -39 57.32 -39 58 C-58.80281444 67.36469543 -82.0843757 71.16297476 -103.41796875 63.82421875 C-110.68035418 60.63929163 -110.68035418 60.63929163 -112 58 C-114.31104818 56.94952356 -116.64583651 55.94992562 -119 55 C-119.99 54.505 -119.99 54.505 -121 54 C-121 53.34 -121 52.68 -121 52 C-121.66 52 -122.32 52 -123 52 C-124.625 50.625 -124.625 50.625 -126 49 C-126 48.34 -126 47.68 -126 47 C-126.5775 46.9175 -127.155 46.835 -127.75 46.75 C-131.3733514 45.5422162 -133.30478311 43.14710787 -135.25 39.9375 C-136 38 -136 38 -136 35 C-137.485 35.495 -137.485 35.495 -139 36 C-141.29379749 32.55930376 -142 31.27709699 -142 27 C-142.61617187 26.92265625 -143.23234375 26.8453125 -143.8671875 26.765625 C-146 26 -146 26 -147.1953125 24.109375 C-147.50210938 23.33078125 -147.80890625 22.5521875 -148.125 21.75 C-148.45113281 20.93789062 -148.77726563 20.12578125 -149.11328125 19.2890625 C-149.55220703 18.15597656 -149.55220703 18.15597656 -150 17 C-150.433125 16.05125 -150.86625 15.1025 -151.3125 14.125 C-152 12 -152 12 -151 9 C-150.50371094 9.70125 -150.00742188 10.4025 -149.49609375 11.125 C-142.75930799 21.8543863 -142.75930799 21.8543863 -133 29 C-132.24460938 29.763125 -131.48921875 30.52625 -130.7109375 31.3125 C-116.86825695 45.03550319 -95.1369123 49.11822378 -76.4375 49.25 C-55.9621866 49.10559579 -36.52794251 43.21630533 -20 31 C-19.34 31 -18.68 31 -18 31 C-17.62101562 30.13568359 -17.62101562 30.13568359 -17.234375 29.25390625 C-15.85402298 26.73345336 -14.24305321 25.00394083 -12.25 22.9375 C-6.23603521 16.30026977 -1.94873733 8.76931797 0 0 Z " fill="#C9BC28" transform="translate(371,210)"/>
<path d="M0 0 C114.84 0 229.68 0 348 0 C348 1.32 348 2.64 348 4 C233.16 4 118.32 4 0 4 C0 2.68 0 1.36 0 0 Z " fill="#F8F2B5" transform="translate(120,170)"/>
<path d="M0 0 C2.47326061 -0.00542602 4.94651799 -0.01255136 7.41976929 -0.02124023 C13.41839737 -0.03753604 19.41674735 -0.03522027 25.41536432 -0.02358967 C30.29484575 -0.01452396 35.17427116 -0.01334484 40.05375862 -0.01768494 C40.75054574 -0.01829787 41.44733286 -0.0189108 42.16523473 -0.01954231 C43.58114283 -0.02082132 44.99705092 -0.02211818 46.41295899 -0.02343267 C59.66392111 -0.03481593 72.91477221 -0.02176073 86.16571612 -0.00023121 C97.51206294 0.01763381 108.85824599 0.01453626 120.20458984 -0.00390625 C133.40940084 -0.02535977 146.61411471 -0.03371337 159.8189407 -0.0214572 C161.22969217 -0.02018312 162.64044365 -0.01892564 164.05119514 -0.01768494 C165.09212133 -0.01675928 165.09212133 -0.01675928 166.15407632 -0.01581493 C171.02177768 -0.01237514 175.88941695 -0.0181607 180.75710869 -0.02760315 C187.32114348 -0.04005736 193.88491863 -0.0310662 200.44894028 -0.00802612 C202.85103279 -0.00275913 205.25315143 -0.00421814 207.65523338 -0.01307678 C224.28715946 -0.06873551 236.81918003 1.36577236 251.61938477 9.51757812 C251.61938477 10.50757812 251.61938477 11.49757813 251.61938477 12.51757812 C249.66425316 13.21413113 247.70516 13.89957378 245.74438477 14.58007812 C244.65383789 14.96292969 243.56329102 15.34578125 242.43969727 15.74023438 C239.61938477 16.51757812 239.61938477 16.51757812 237.61938477 15.51757812 C244.36938477 12.51757812 244.36938477 12.51757812 246.61938477 12.51757812 C246.61938477 11.85757813 246.61938477 11.19757813 246.61938477 10.51757812 C245.96711914 10.32421875 245.31485352 10.13085938 244.64282227 9.93164062 C243.76883789 9.67125 242.89485352 9.41085938 241.99438477 9.14257812 C241.13586914 8.88734375 240.27735352 8.63210937 239.39282227 8.36914062 C236.61938477 7.51757813 236.61938477 7.51757813 234.09519768 6.48022842 C229.42215862 5.18599811 225.05967326 5.24148247 220.23294067 5.26361084 C219.18806925 5.26049086 218.14319782 5.25737088 217.06666362 5.25415635 C213.56611352 5.2461803 210.06573694 5.25249861 206.56518555 5.25878906 C204.05514423 5.256079 201.54510371 5.25251798 199.0350647 5.24816895 C192.92507114 5.23999142 186.81514181 5.24119485 180.7051474 5.24699423 C175.73777275 5.25151354 170.77041186 5.25212245 165.80303574 5.24994659 C165.09566598 5.24964013 164.38829623 5.24933366 163.65949102 5.24901791 C162.22239407 5.24837845 160.78529713 5.24773002 159.34820019 5.24707273 C145.87473956 5.24137071 132.40130616 5.24792487 118.92784999 5.25867346 C107.37465653 5.26760498 95.82150328 5.26605997 84.26831055 5.25683594 C70.84570271 5.24612435 57.42311875 5.2419241 44.00050724 5.24806046 C42.5681266 5.24869755 41.13574597 5.24932629 39.70336533 5.24994659 C38.99864872 5.25025515 38.29393212 5.2505637 37.56786046 5.2508816 C32.6092311 5.25260616 27.65061691 5.2496985 22.6919899 5.24498749 C16.01238144 5.23878086 9.33286046 5.24322256 2.65325546 5.254776 C0.20229976 5.25741942 -2.24866233 5.25666293 -4.69961548 5.25225067 C-8.04656431 5.24678123 -11.39327046 5.25364667 -14.74020386 5.26361084 C-15.70889117 5.2591494 -16.67757849 5.25468795 -17.67561996 5.25009131 C-23.24956817 5.28225019 -28.02895442 5.93834132 -33.38061523 7.51757812 C-33.38061523 6.85757813 -33.38061523 6.19757813 -33.38061523 5.51757812 C-34.37061523 5.18757813 -35.36061523 4.85757813 -36.38061523 4.51757812 C-24.85365463 -1.06900366 -12.48890048 -0.04601543 0 0 Z " fill="#E8DB23" transform="translate(191.380615234375,115.482421875)"/>
<path d="M0 0 C0 0.66 0 1.32 0 2 C-1.52367187 2.70962891 -1.52367187 2.70962891 -3.078125 3.43359375 C-20.24070343 11.60465548 -33.33325122 22.10740454 -44 38 C-44.598125 38.88042969 -45.19625 39.76085937 -45.8125 40.66796875 C-54.5991076 54.57355979 -58.51153151 70.35573815 -61.078125 86.42578125 C-62.21727528 93.31377895 -63.6308035 100.15401749 -65 107 C-97.34 107 -129.68 107 -163 107 C-162.505 106.01 -162.505 106.01 -162 105 C-143.60004816 100.01646085 -122.68101606 101.62682288 -103.76116943 101.79400635 C-99.82455473 101.82533713 -95.88787671 101.83853067 -91.95117188 101.85351562 C-84.30061612 101.88517748 -76.65036117 101.93600473 -69 102 C-68.9387796 101.34515121 -68.8775592 100.69030243 -68.81448364 100.01560974 C-65.61481336 66.75972258 -55.3614805 36.28072529 -29.5234375 13.98828125 C-7.82556858 -3.10802724 -7.82556858 -3.10802724 0 0 Z " fill="#0F6AB2" transform="translate(375,259)"/>
<path d="M0 0 C3.98496452 1.59398581 6.58196774 2.92885754 9.9921875 5.34375 C10.93827881 6.00890625 11.88437012 6.6740625 12.85913086 7.359375 C13.85436768 8.06578125 14.84960449 8.7721875 15.875 9.5 C17.93539029 10.9490657 19.99659012 12.39698099 22.05859375 13.84375 C23.06647949 14.55144531 24.07436523 15.25914062 25.11279297 15.98828125 C31.00649856 20.09483749 36.99734204 24.05512526 43 28 C42.67 28.66 42.34 29.32 42 30 C28.47 30 14.94 30 1 30 C0.67 20.1 0.34 10.2 0 0 Z " fill="#F6E632" transform="translate(425,138)"/>
<path d="M0 0 C0.62003906 0.36351562 1.24007812 0.72703125 1.87890625 1.1015625 C23.84568072 13.57178382 49.01104152 19.31164415 74 13 C79.38365397 11.48619137 84.69368305 9.76322758 90 8 C90.99644531 7.67257813 91.99289062 7.34515625 93.01953125 7.0078125 C95.01602422 6.34755498 97.00865799 5.6756339 99 5 C97.83630874 8.49107379 97.11026462 8.85222763 94.0625 10.6875 C93.35222656 11.12449219 92.64195312 11.56148437 91.91015625 12.01171875 C90 13 90 13 88 13 C88 13.66 88 14.32 88 15 C85.85679273 15.79874865 83.71027584 16.58861858 81.5625 17.375 C80.36753906 17.81585938 79.17257812 18.25671875 77.94140625 18.7109375 C69.74432281 21.49581083 62.20876454 22.295935 53.5625 22.1875 C52.58990234 22.18685547 51.61730469 22.18621094 50.61523438 22.18554688 C33.17963477 22.08072363 33.17963477 22.08072363 27.3125 19.1875 C26.57773437 18.83300781 25.84296875 18.47851562 25.0859375 18.11328125 C23.16416365 17.08761543 21.30162181 16.00106453 19.4375 14.875 C16.52306134 13.28530619 15.04366568 12.73460873 11.9375 12.1875 C7.64249878 11.2749169 5.7048312 9.01244768 3.03125 5.65625 C2 4 2 4 2 2 C1.34 2 0.68 2 0 2 C0 1.34 0 0.68 0 0 Z " fill="#F4E632" transform="translate(242,244)"/>
<path d="M0 0 C3.75514634 2.0408404 4.77457968 3.28395898 6.0625 7.375 C5.98603205 11.81014124 4.80644332 13.63226802 2 17 C-1.13871188 18.56935594 -3.53855822 18.35201103 -7 18 C-9.91963173 16.01216563 -11.61102978 14.5685303 -12.48046875 11.0625 C-12.75815509 7.09984094 -12.23092162 5.33588599 -9.9375 2 C-6.23727467 -0.51930235 -4.3968344 -0.7066341 0 0 Z " fill="#AE8822" transform="translate(370,134)"/>
<path d="M0 0 C3.375 2.0625 3.375 2.0625 6 5 C6.77152986 9.32056721 6.52747866 11.19119939 4.125 14.875 C1.37379583 17.62620417 0.54761821 17.94929461 -3.375 18.3125 C-7 18 -7 18 -9.375 16.5 C-11.58890599 13.09399078 -12.36281802 10.06356183 -12 6 C-8.76993388 0.76506525 -6.1122765 -0.70526267 0 0 Z " fill="#AD8824" transform="translate(224,134)"/>
<path d="M0 0 C0.33 0.99 0.66 1.98 1 3 C1.639375 3.0825 2.27875 3.165 2.9375 3.25 C7.96788225 4.48193035 13.29663925 6.29663925 17 10 C17 11.32 17 12.64 17 14 C14.515625 16 14.515625 16 11.25 18 C7.38069374 20.3926145 4.08687222 22.64340108 1 26 C0.34 25.67 -0.32 25.34 -1 25 C-0.67 16.75 -0.34 8.5 0 0 Z " fill="#E69E2B" transform="translate(144,125)"/>
<path d="M0 0 C18.48 0 36.96 0 56 0 C55.34 3.3 54.68 6.6 54 10 C53.66310646 11.97923074 53.3387497 13.96070105 53.03515625 15.9453125 C52.87466797 16.95980469 52.71417969 17.97429687 52.54882812 19.01953125 C52.22350776 21.09687818 51.90322724 23.17502039 51.58789062 25.25390625 C50.63843431 31.19273656 49.33471466 36.45255833 47 42 C46.01 41.67 45.02 41.34 44 41 C45.01912994 31.64009604 46.38305657 22.38927156 48.0625 13.125 C48.2368457 12.1561084 48.41119141 11.1872168 48.59082031 10.18896484 C49.87128559 3.25742882 49.87128559 3.25742882 51 1 C34.17 1 17.34 1 0 1 C0 0.67 0 0.34 0 0 Z " fill="#3F839A" transform="translate(246,406)"/>
<path d="M0 0 C0 6.93 0 13.86 0 21 C-10.125 15.375 -10.125 15.375 -13.5625 12.6875 C-14.22378906 12.17574219 -14.88507813 11.66398438 -15.56640625 11.13671875 C-16.03949219 10.76160156 -16.51257813 10.38648438 -17 10 C-16.5625 7.75 -16.5625 7.75 -15 5 C-10.50574848 2.37259142 -5.23048354 0 0 0 Z " fill="#EF9F1C" transform="translate(443,128)"/>
<path d="M0 0 C2.475 0.99 2.475 0.99 5 2 C5 2.66 5 3.32 5 4 C6.32 4.33 7.64 4.66 9 5 C9 5.66 9 6.32 9 7 C9.763125 7.28875 10.52625 7.5775 11.3125 7.875 C14 9 14 9 17 11 C17 11.66 17 12.32 17 13 C17.721875 13.0825 18.44375 13.165 19.1875 13.25 C22.57550981 14.15346928 24.28525446 15.81496091 27 18 C31.27843548 19.84750623 35.34959033 20.33848638 39.94921875 20.65625 C42 21 42 21 45 23 C47.58094336 23.30865143 47.58094336 23.30865143 50.48046875 23.265625 C51.56263672 23.26820313 52.64480469 23.27078125 53.75976562 23.2734375 C54.89091797 23.26570313 56.02207031 23.25796875 57.1875 23.25 C58.29931641 23.25773437 59.41113281 23.26546875 60.55664062 23.2734375 C69.89111085 23.251331 77.30952047 21.4842444 85.875 17.875 C92.74825581 15 92.74825581 15 95 15 C95 15.66 95 16.32 95 17 C75.19718556 26.36469543 51.9156243 30.16297476 30.58203125 22.82421875 C23.31964582 19.63929163 23.31964582 19.63929163 22 17 C19.68895182 15.94952356 17.35416349 14.94992562 15 14 C14.34 13.67 13.68 13.34 13 13 C13 12.34 13 11.68 13 11 C12.34 11 11.68 11 11 11 C9.375 9.625 9.375 9.625 8 8 C8 7.34 8 6.68 8 6 C7.4225 5.938125 6.845 5.87625 6.25 5.8125 C3.11309013 4.67972699 1.90832496 2.65802405 0 0 Z " fill="#D5C82A" transform="translate(237,251)"/>
<path d="M0 0 C4.46564301 -0.12397147 8.93036439 -0.21450992 13.3972168 -0.2746582 C14.91529801 -0.29974109 16.43325918 -0.3338166 17.95092773 -0.37719727 C20.13815965 -0.43813293 22.32379039 -0.46626895 24.51171875 -0.48828125 C25.82615967 -0.51446533 27.14060059 -0.54064941 28.49487305 -0.56762695 C32 0 32 0 37 5 C24.46 5 11.92 5 -1 5 C-0.67 3.35 -0.34 1.7 0 0 Z " fill="#0C68B3" transform="translate(370,361)"/>
<path d="M0 0 C1.2890625 -0.020625 2.578125 -0.04125 3.90625 -0.0625 C10.8737577 -0.09111399 16.31183843 0.21328937 22.625 3.25 C19.25265814 4.37411395 16.81211879 4.31717322 13.26171875 4.2421875 C11.98103516 4.22542969 10.70035156 4.20867187 9.38085938 4.19140625 C6.71106157 4.15095963 4.04256695 4.09603772 1.37304688 4.03515625 C-6.47729797 3.94918931 -13.55102732 4.61754756 -21.18041992 6.50048828 C-24.5822162 7.29861702 -27.8961629 7.91159275 -31.375 8.25 C-33.3125 6.8125 -33.3125 6.8125 -34.375 5.25 C-32.16790017 4.59996375 -29.95926108 3.95515255 -27.75 3.3125 C-26.52023437 2.95285156 -25.29046875 2.59320313 -24.0234375 2.22265625 C-15.98989603 0.08095194 -8.27083877 0.03288604 0 0 Z " fill="#0A67B5" transform="translate(408.375,251.75)"/>
<path d="M0 0 C2.41127953 7.79261561 -2.33504438 18.7116892 -5.73046875 25.875 C-11.20391574 35.98677011 -20.26341607 48.85960722 -31 54 C-31.99 53.67 -32.98 53.34 -34 53 C-33.03900391 52.36384766 -33.03900391 52.36384766 -32.05859375 51.71484375 C-21.00703401 44.35909984 -21.00703401 44.35909984 -15 33 C-13.67618483 31.32576317 -12.34423339 29.65788785 -11 28 C-11 27.01 -11 26.02 -11 25 C-11.66 24.67 -12.32 24.34 -13 24 C-12.54109375 23.443125 -12.0821875 22.88625 -11.609375 22.3125 C-5.95213632 15.27660652 -2.19017036 8.76068143 0 0 Z " fill="#E4D62C" transform="translate(371,210)"/>
<path d="M0 0 C3.5625 0.375 3.5625 0.375 5.2734375 1.9765625 C6.98799736 5.16668296 6.85798448 7.52551741 6.75 11.125 C6.72292969 12.29546875 6.69585937 13.4659375 6.66796875 14.671875 C6.63316406 15.56390625 6.59835937 16.4559375 6.5625 17.375 C6.2325 17.375 5.9025 17.375 5.5625 17.375 C5.2325 15.725 4.9025 14.075 4.5625 12.375 C1.5925 12.375 -1.3775 12.375 -4.4375 12.375 C-4.7675 13.365 -5.0975 14.355 -5.4375 15.375 C-5.49136629 13.25027424 -5.53023071 11.12516348 -5.5625 9 C-5.58570313 7.81664062 -5.60890625 6.63328125 -5.6328125 5.4140625 C-5.34653615 0.95960251 -4.38095233 0.47792207 0 0 Z " fill="#F1ECCA" transform="translate(367.4375,184.625)"/>
<path d="M0 0 C0 0.33 0 0.66 0 1 C-2.64 1.33 -5.28 1.66 -8 2 C-8 2.33 -8 2.66 -8 3 C-11.3 3 -14.6 3 -18 3 C-16.68 3.66 -15.36 4.32 -14 5 C-29.0298476 5.14090482 -43.98815948 4.73696984 -59 4 C-59 3.67 -59 3.34 -59 3 C-53.71164703 2.29662844 -48.45244462 1.76979331 -43.125 1.46484375 C-42.39740479 1.42186661 -41.66980957 1.37888947 -40.92016602 1.33460999 C-39.38745021 1.24504247 -37.85465167 1.15688058 -36.32177734 1.07006836 C-34.03318129 0.93939458 -31.74514049 0.80101443 -29.45703125 0.66210938 C-19.62698449 0.0862791 -9.84588208 -0.11318069 0 0 Z " fill="#3388BC" transform="translate(208,399)"/>
<path d="M0 0 C0 0.99 0 1.98 0 3 C-3.33333333 6 -3.33333333 6 -6 6 C-6.66 7.32 -7.32 8.64 -8 10 C-8.66 10 -9.32 10 -10 10 C-10.20238281 10.58652344 -10.40476562 11.17304688 -10.61328125 11.77734375 C-14.56222676 18.10678036 -25.78326504 21.257805 -32.75 22.9375 C-42.25229898 24.56819114 -51.93094074 24.38559419 -61.546875 24.30078125 C-62.52495117 24.29216064 -63.50302734 24.28354004 -64.51074219 24.2746582 C-67 24 -67 24 -70 22 C-69.21987549 22.01571045 -68.43975098 22.0314209 -67.63598633 22.04760742 C-64.02823428 22.11078907 -60.42059925 22.1492516 -56.8125 22.1875 C-54.97268555 22.22520508 -54.97268555 22.22520508 -53.09570312 22.26367188 C-41.64530852 22.35430824 -31.60132926 20.20052669 -21 16 C-20.34 16 -19.68 16 -19 16 C-19 15.34 -19 14.68 -19 14 C-16.49881715 12.3703727 -13.90043556 10.97337595 -11.28515625 9.53515625 C-8.70760157 8.14137297 -8.70760157 8.14137297 -8 5 C-6.15234375 3.61328125 -6.15234375 3.61328125 -3.9375 2.3125 C-2.83728516 1.65701172 -2.83728516 1.65701172 -1.71484375 0.98828125 C-1.14894531 0.66214844 -0.58304687 0.33601562 0 0 Z " fill="#DED02B" transform="translate(349,243)"/>
<path d="M0 0 C2.475 0.99 2.475 0.99 5 2 C5 2.66 5 3.32 5 4 C6.32 4.33 7.64 4.66 9 5 C9 5.66 9 6.32 9 7 C9.763125 7.28875 10.52625 7.5775 11.3125 7.875 C14 9 14 9 17 11 C17 11.66 17 12.32 17 13 C17.721875 13.0825 18.44375 13.165 19.1875 13.25 C22.57550981 14.15346928 24.28525446 15.81496091 27 18 C30.17921787 19.25556887 30.17921787 19.25556887 33 20 C33 20.66 33 21.32 33 22 C34.299375 22.12375 35.59875 22.2475 36.9375 22.375 C39.15234375 22.5859375 39.15234375 22.5859375 41 23 C41.495 23.99 41.495 23.99 42 25 C34.96700618 24.60190601 29.14181085 22.46488802 23 19 C22.67 18.34 22.34 17.68 22 17 C19.68895182 15.94952356 17.35416349 14.94992562 15 14 C14.34 13.67 13.68 13.34 13 13 C13 12.34 13 11.68 13 11 C12.34 11 11.68 11 11 11 C9.375 9.625 9.375 9.625 8 8 C8 7.34 8 6.68 8 6 C7.4225 5.938125 6.845 5.87625 6.25 5.8125 C3.11309013 4.67972699 1.90832496 2.65802405 0 0 Z " fill="#DFD12B" transform="translate(237,251)"/>
<path d="M0 0 C1.75 0.875 1.75 0.875 3.75 2.875 C3.6875 4.75 3.6875 4.75 2.75 6.875 C0.1875 9.125 0.1875 9.125 -2.25 10.875 C-4.71800047 9.72326645 -6.29783565 8.82716435 -8.25 6.875 C-8.25 5.885 -8.25 4.895 -8.25 3.875 C-3.29046243 -0.18280347 -3.29046243 -0.18280347 0 0 Z " fill="#FDFDF9" transform="translate(233.25,221.125)"/>
<path d="M0 0 C7.06536889 1.25353319 12.71456473 3.56203749 19 7 C19 7.99 19 8.98 19 10 C17.04486839 10.696553 15.08577524 11.38199565 13.125 12.0625 C12.03445313 12.44535156 10.94390625 12.82820312 9.8203125 13.22265625 C7 14 7 14 5 13 C11.75 10 11.75 10 14 10 C14 9.34 14 8.68 14 8 C13.32453125 7.80664062 12.6490625 7.61328125 11.953125 7.4140625 C10.61507813 7.02347656 10.61507813 7.02347656 9.25 6.625 C8.36828125 6.36976562 7.4865625 6.11453125 6.578125 5.8515625 C4.23919428 5.0790066 2.16557438 4.16374324 0 3 C0 2.01 0 1.02 0 0 Z " fill="#F7E50C" transform="translate(424,118)"/>
<path d="M0 0 C1.134375 0.020625 2.26875 0.04125 3.4375 0.0625 C3.63162181 1.54081221 3.81762131 3.02019316 4 4.5 C4.10441406 5.32371094 4.20882813 6.14742187 4.31640625 6.99609375 C4.35636719 7.67800781 4.39632813 8.35992187 4.4375 9.0625 C3.4375 10.0625 3.4375 10.0625 -0.125 10.125 C-1.259375 10.104375 -2.39375 10.08375 -3.5625 10.0625 C-3.75662181 8.58418779 -3.94262131 7.10480684 -4.125 5.625 C-4.22941406 4.80128906 -4.33382813 3.97757813 -4.44140625 3.12890625 C-4.48136719 2.44699219 -4.52132813 1.76507813 -4.5625 1.0625 C-3.5625 0.0625 -3.5625 0.0625 0 0 Z " fill="#FDFEFE" transform="translate(303.5625,248.9375)"/>
<path d="M0 0 C0 0.33 0 0.66 0 1 C-3.63 1.66 -7.26 2.32 -11 3 C-11 3.66 -11 4.32 -11 5 C-12.74635165 5.53293835 -14.49727652 6.05090663 -16.25 6.5625 C-17.22453125 6.85253906 -18.1990625 7.14257812 -19.203125 7.44140625 C-22.00025684 8.0000513 -23.38710234 8.05787671 -26 7 C-26.66 6.34 -27.32 5.68 -28 5 C-25.79290017 4.34996375 -23.58426108 3.70515255 -21.375 3.0625 C-20.14523437 2.70285156 -18.91546875 2.34320313 -17.6484375 1.97265625 C-11.60804883 0.36231709 -6.20601584 -0.10700027 0 0 Z " fill="#2D7BA3" transform="translate(402,252)"/>
<path d="M0 0 C0 2.64 0 5.28 0 8 C-7.42857143 8.14285714 -7.42857143 8.14285714 -11 7 C-10.67 5.02 -10.34 3.04 -10 1 C-8.5209084 0.83266843 -7.04172444 0.66615314 -5.5625 0.5 C-4.32693359 0.36078125 -4.32693359 0.36078125 -3.06640625 0.21875 C-1 0 -1 0 0 0 Z " fill="#FEFEFD" transform="translate(373,196)"/>
<path d="M0 0 C2.31 0 4.62 0 7 0 C7.33 3.3 7.66 6.6 8 10 C5.66705225 10.04241723 3.33297433 10.04092937 1 10 C0 9 0 9 -0.09765625 6.93359375 C-0.08605469 6.10988281 -0.07445312 5.28617188 -0.0625 4.4375 C-0.05347656 3.61121094 -0.04445313 2.78492188 -0.03515625 1.93359375 C-0.02355469 1.29550781 -0.01195312 0.65742188 0 0 Z " fill="#FDFEFE" transform="translate(282,249)"/>
<path d="M0 0 C1.515625 1.125 1.515625 1.125 3 3 C3.109375 5.8125 3.109375 5.8125 2.75 9 C2.64171875 10.051875 2.5334375 11.10375 2.421875 12.1875 C2 15 2 15 1 18 C-0.32 18 -1.64 18 -3 18 C-2.88566637 15.74943278 -2.75813564 13.49953326 -2.625 11.25 C-2.55539062 9.99703125 -2.48578125 8.7440625 -2.4140625 7.453125 C-2.04676696 4.39001879 -1.60288714 2.58025734 0 0 Z " fill="#156CB0" transform="translate(291,444)"/>
<path d="M0 0 C3.3 0.33 6.6 0.66 10 1 C10 2.98 10 4.96 10 7 C6.7 7.33 3.4 7.66 0 8 C0 5.36 0 2.72 0 0 Z " fill="#FDFEFD" transform="translate(214,189)"/>
<path d="M0 0 C0 0.33 0 0.66 0 1 C-1.0725 1.28875 -2.145 1.5775 -3.25 1.875 C-6.77471323 2.75600613 -6.77471323 2.75600613 -8.7578125 4.0859375 C-12.04712815 5.42687803 -15.16282969 5.03519794 -18.625 4.75 C-19.6459375 4.69005859 -19.6459375 4.69005859 -20.6875 4.62890625 C-25.74058835 4.25941165 -25.74058835 4.25941165 -28 2 C-24.83402429 1.65988375 -21.6671312 1.32916813 -18.5 1 C-17.613125 0.90460938 -16.72625 0.80921875 -15.8125 0.7109375 C-10.50765526 0.16485054 -5.33262848 -0.0996753 0 0 Z " fill="#1D80CB" transform="translate(244,383)"/>
<path d="M0 0 C6.75 0.75 6.75 0.75 9 3 C9.27450545 6.34896654 9.08628804 9.63476663 9 13 C5.37 13.33 1.74 13.66 -2 14 C-2 13.34 -2 12.68 -2 12 C1.47325181 10.8422494 4.36067448 10.93133348 8 11 C8 9.02 8 7.04 8 5 C4.7 4.67 1.4 4.34 -2 4 C-1.34 2.68 -0.68 1.36 0 0 Z " fill="#F3F1E1" transform="translate(216,185)"/>
<path d="M0 0 C0 2.31 0 4.62 0 7 C-3.3 7 -6.6 7 -10 7 C-10 5.02 -10 3.04 -10 1 C-2.25 0 -2.25 0 0 0 Z " fill="#FDFEFD" transform="translate(373,188)"/>
<path d="M0 0 C0.33 0.99 0.66 1.98 1 3 C-0.72721684 4.27348212 -2.45686238 5.54367057 -4.1875 6.8125 C-5.15042969 7.52019531 -6.11335937 8.22789062 -7.10546875 8.95703125 C-9.68002723 10.77416227 -12.2838555 12.40683289 -15 14 C-15.99 14.66 -16.98 15.32 -18 16 C-20.1875 15.625 -20.1875 15.625 -22 15 C-19 13 -19 13 -16 13 C-15.67 12.01 -15.34 11.02 -15 10 C-13.50952148 8.74145508 -13.50952148 8.74145508 -11.62109375 7.51953125 C-10.94755859 7.07802734 -10.27402344 6.63652344 -9.58007812 6.18164062 C-8.51950195 5.50391602 -8.51950195 5.50391602 -7.4375 4.8125 C-6.72658203 4.34908203 -6.01566406 3.88566406 -5.28320312 3.40820312 C-3.52687504 2.26482175 -1.7640395 1.13144772 0 0 Z " fill="#F8D236" transform="translate(161,138)"/>
<path d="M0 0 C3.5693777 1.30849577 6.52418566 2.87392474 9.64453125 5.0390625 C10.48564453 5.61914062 11.32675781 6.19921875 12.19335938 6.796875 C13.05767578 7.40015625 13.92199219 8.0034375 14.8125 8.625 C15.69615234 9.23601562 16.57980469 9.84703125 17.49023438 10.4765625 C19.66322161 11.98003475 21.83297876 13.48794734 24 15 C20.26757812 16.11572266 20.26757812 16.11572266 17.859375 15.07421875 C16.81523437 14.38779297 16.81523437 14.38779297 15.75 13.6875 C15.04359375 13.23761719 14.3371875 12.78773438 13.609375 12.32421875 C13.07828125 11.88722656 12.5471875 11.45023438 12 11 C12 10.34 12 9.68 12 9 C11.29875 8.7525 10.5975 8.505 9.875 8.25 C6.59413398 6.82353651 3.8613016 5.1459762 1 3 C0.67 2.01 0.34 1.02 0 0 Z " fill="#FBD434" transform="translate(425,138)"/>
<path d="M0 0 C0.66 0.33 1.32 0.66 2 1 C0.37660195 2.70884005 -1.29319053 4.37446717 -3 6 C-3.66 6 -4.32 6 -5 6 C-5.2475 6.61875 -5.495 7.2375 -5.75 7.875 C-7.22879539 10.38895216 -8.37921165 10.8534051 -11 12 C-11.66 12.66 -12.32 13.32 -13 14 C-14.32 14 -15.64 14 -17 14 C-17.33 14.66 -17.66 15.32 -18 16 C-17.62725409 13.41757737 -17.26502965 12.24628393 -15.32592773 10.44433594 C-14.61895752 9.96254883 -13.9119873 9.48076172 -13.18359375 8.984375 C-12.41982422 8.45585937 -11.65605469 7.92734375 -10.86914062 7.3828125 C-10.06669922 6.84398437 -9.26425781 6.30515625 -8.4375 5.75 C-7.63119141 5.19570312 -6.82488281 4.64140625 -5.99414062 4.0703125 C-4.00270077 2.70340704 -2.00475077 1.34727363 0 0 Z " fill="#EFD53C" transform="translate(137,154)"/>
<path d="M0 0 C3.89581756 -0.02911003 7.791607 -0.04683587 11.6875 -0.0625 C12.79029297 -0.07087891 13.89308594 -0.07925781 15.02929688 -0.08789062 C16.6293457 -0.09272461 16.6293457 -0.09272461 18.26171875 -0.09765625 C19.24100342 -0.10289307 20.22028809 -0.10812988 21.22924805 -0.11352539 C23.92469572 -0.00308543 26.37545639 0.39465834 29 1 C28.67 1.66 28.34 2.32 28 3 C23.89527342 2.8903028 19.79147852 2.75963024 15.6875 2.625 C14.52025391 2.5940625 13.35300781 2.563125 12.15039062 2.53125 C11.03212891 2.49257813 9.91386719 2.45390625 8.76171875 2.4140625 C7.73006592 2.3826416 6.69841309 2.3512207 5.63549805 2.31884766 C3 2 3 2 0 0 Z " fill="#ECD51B" transform="translate(149,403)"/>
<path d="M0 0 C-1.65 1.65 -3.3 3.3 -5 5 C-4.36191406 5.18175781 -3.72382813 5.36351563 -3.06640625 5.55078125 C-2.24011719 5.80214844 -1.41382813 6.05351562 -0.5625 6.3125 C0.26121094 6.55613281 1.08492187 6.79976562 1.93359375 7.05078125 C2.95646484 7.52064453 2.95646484 7.52064453 4 8 C4.33 8.99 4.66 9.98 5 11 C-5.55808656 7.92482916 -5.55808656 7.92482916 -10 6 C-10 4.68 -10 3.36 -10 2 C-8.71211992 1.46987262 -7.41953322 0.9511671 -6.125 0.4375 C-5.40570313 0.14746094 -4.68640625 -0.14257812 -3.9453125 -0.44140625 C-2 -1 -2 -1 0 0 Z " fill="#F4D70B" transform="translate(155,122)"/>
<path d="M0 0 C0 0.33 0 0.66 0 1 C-1.98 1 -3.96 1 -6 1 C-6 1.66 -6 2.32 -6 3 C-11.48269069 4.15664737 -16.80339274 4.11416255 -22.375 4.0625 C-23.30183594 4.05798828 -24.22867188 4.05347656 -25.18359375 4.04882812 C-27.45579709 4.03711574 -29.72786388 4.02071372 -32 4 C-32 3.67 -32 3.34 -32 3 C-27.98000981 2.49306328 -23.95889046 1.9956961 -19.9375 1.5 C-18.80376953 1.35691406 -17.67003906 1.21382813 -16.50195312 1.06640625 C-10.96234446 0.38808682 -5.58198572 -0.19443782 0 0 Z " fill="#387F9C" transform="translate(245,361)"/>
<path d="M0 0 C3.81628551 3.39225379 6.92186445 7.32419501 9 12 C8.8125 15.5 8.8125 15.5 8 18 C4.70293916 15.07004888 3.17634277 12.59766641 1.75 8.4375 C1.41484375 7.48746094 1.0796875 6.53742188 0.734375 5.55859375 C0 3 0 3 0 0 Z " fill="#DFD232" transform="translate(219,219)"/>
<path d="M0 0 C0.97209442 3.0646488 0.99371733 4.99220859 0.14453125 8.08203125 C-0.17161133 9.23348633 -0.17161133 9.23348633 -0.49414062 10.40820312 C-0.72294922 11.20162109 -0.95175781 11.99503906 -1.1875 12.8125 C-1.39697266 13.59431641 -1.60644531 14.37613281 -1.82226562 15.18164062 C-3.26219682 20.29617367 -5.18851826 24.49079266 -8 29 C-8.33 29 -8.66 29 -9 29 C-9 27.35 -9 25.7 -9 24 C-8.34 24 -7.68 24 -7 24 C-6.74476563 22.78376953 -6.74476563 22.78376953 -6.484375 21.54296875 C-4.8572571 14.10842474 -2.79445629 7.07834359 0 0 Z " fill="#E6D939" transform="translate(371,210)"/>
<path d="M0 0 C1 2 1 2 0.44140625 3.9453125 C0.15136719 4.66460937 -0.13867188 5.38390625 -0.4375 6.125 C-0.72496094 6.84945312 -1.01242187 7.57390625 -1.30859375 8.3203125 C-1.53675781 8.87460938 -1.76492188 9.42890625 -2 10 C-2.66 10 -3.32 10 -4 10 C-4 11.65 -4 13.3 -4 15 C-4.99 15.495 -4.99 15.495 -6 16 C-6 14.35 -6 12.7 -6 11 C-6.66 10.67 -7.32 10.34 -8 10 C-5.36 6.7 -2.72 3.4 0 0 Z " fill="#D6C932" transform="translate(366,224)"/>
<path d="M0 0 C0 0.66 0 1.32 0 2 C-1.6210103 2.69685498 -3.24696066 3.38222861 -4.875 4.0625 C-5.77992188 4.44535156 -6.68484375 4.82820313 -7.6171875 5.22265625 C-10 6 -10 6 -12 5 C-11 2 -11 2 -7.6875 0.25 C-3.02436902 -1.33072237 -3.02436902 -1.33072237 0 0 Z " fill="#1D71AB" transform="translate(375,259)"/>
<path d="M0 0 C1.65 0 3.3 0 5 0 C4.34 3.3 3.68 6.6 3 10 C2.01 10.33 1.02 10.66 0 11 C0 7.37 0 3.74 0 0 Z " fill="#0D6AB7" transform="translate(297,406)"/>
<path d="M0 0 C0 0.33 0 0.66 0 1 C-2.64 1.33 -5.28 1.66 -8 2 C-8 2.33 -8 2.66 -8 3 C-14.6 2.67 -21.2 2.34 -28 2 C-28 1.67 -28 1.34 -28 1 C-18.64087671 0.00736571 -9.39605802 -0.10731538 0 0 Z " fill="#4D94A6" transform="translate(208,399)"/>
<path d="M0 0 C0 0.66 0 1.32 0 2 C-5.28 2.66 -10.56 3.32 -16 4 C-16.33 3.34 -16.66 2.68 -17 2 C-11.16200408 0.30167391 -6.06892629 -0.25287193 0 0 Z " fill="#E0DF3F" transform="translate(416,298)"/>
<path d="M0 0 C1.98 0.99 3.96 1.98 6 3 C6 3.99 6 4.98 6 6 C6.99 6.33 7.98 6.66 9 7 C9 7.66 9 8.32 9 9 C11.475 9.99 11.475 9.99 14 11 C12 12 12 12 10.078125 11.77734375 C7.52683449 10.82300764 6.47216397 9.65432038 4.75 7.5625 C3.96882812 6.63630859 3.96882812 6.63630859 3.171875 5.69140625 C2 4 2 4 2 2 C1.34 2 0.68 2 0 2 C0 1.34 0 0.68 0 0 Z " fill="#DFD231" transform="translate(242,244)"/>
<path d="M0 0 C3.375 -0.1875 3.375 -0.1875 7 0 C7.66 0.99 8.32 1.98 9 3 C5.78548731 4.60725635 2.56387464 4.05748185 -1 4 C-0.67 2.68 -0.34 1.36 0 0 Z " fill="#F2F1E9" transform="translate(364,185)"/>
<path d="M0 0 C0.33 0.99 0.66 1.98 1 3 C-2 6 -5 9 -8 12 C-8 6.88980204 -6.41372457 5.6518914 -3 2 C-2.01 1.34 -1.02 0.68 0 0 Z " fill="#E6E13B" transform="translate(391,305)"/>
<path d="M0 0 C0.66 0.66 1.32 1.32 2 2 C2.66 1.34 3.32 0.68 4 0 C4.28571429 7.42857143 4.28571429 7.42857143 2 11 C1.01 10.67 0.02 10.34 -1 10 C-0.67 6.7 -0.34 3.4 0 0 Z " fill="#2473A2" transform="translate(291,437)"/>
<path d="M0 0 C1.65 0.99 3.3 1.98 5 3 C4.75 5.375 4.75 5.375 4 8 C2.02 8.99 2.02 8.99 0 10 C0 6.7 0 3.4 0 0 Z " fill="#F6C326" transform="translate(374,188)"/>
<path d="M0 0 C1.32 0 2.64 0 4 0 C4 2.97 4 5.94 4 9 C3.01 8.67 2.02 8.34 1 8 C-0.35439668 5.29120665 -0.06501451 2.99066732 0 0 Z " fill="#F6C423" transform="translate(209,189)"/>
<path d="M0 0 C0 0.99 0 1.98 0 3 C-2.64 3.66 -5.28 4.32 -8 5 C-8 4.34 -8 3.68 -8 3 C-8.99 2.67 -9.98 2.34 -11 2 C-9.54494642 1.47007308 -8.08581873 0.9513211 -6.625 0.4375 C-5.81289062 0.14746094 -5.00078125 -0.14257812 -4.1640625 -0.44140625 C-2 -1 -2 -1 0 0 Z " fill="#E8DD23" transform="translate(166,118)"/>
<path d="M0 0 C0.66 0.33 1.32 0.66 2 1 C2 1.99 2 2.98 2 4 C0.04486839 4.696553 -1.91422476 5.38199565 -3.875 6.0625 C-4.96554687 6.44535156 -6.05609375 6.82820312 -7.1796875 7.22265625 C-10 8 -10 8 -12 7 C-5.25 4 -5.25 4 -3 4 C-3 3.34 -3 2.68 -3 2 C-2.01 2 -1.02 2 0 2 C0 1.34 0 0.68 0 0 Z " fill="#F6DB06" transform="translate(441,124)"/>
<path d="M0 0 C0 0.33 0 0.66 0 1 C-7.33152608 3.07726572 -13.46462229 2.94351599 -21 2 C-21 1.67 -21 1.34 -21 1 C-13.98441385 0.4011085 -7.04321257 -0.13810221 0 0 Z " fill="#5096A6" transform="translate(244,383)"/>
<path d="M0 0 C1.04449911 3.13349732 0.93423645 3.98968256 0 7 C-1.98 7 -3.96 7 -6 7 C-4.02 4.69 -2.04 2.38 0 0 Z " fill="#1B70AC" transform="translate(340,278)"/>
<path d="M0 0 C1.44977894 2.34112451 2.04314411 3.5796929 1.7578125 6.359375 C1.54898437 7.14828125 1.34015625 7.9371875 1.125 8.75 C0.92132813 9.54921875 0.71765625 10.3484375 0.5078125 11.171875 C0.34023438 11.77515625 0.17265625 12.3784375 0 13 C-2 11 -2 11 -2.01171875 8.65234375 C-1.90472656 7.75644531 -1.79773438 6.86054688 -1.6875 5.9375 C-1.58824219 5.03902344 -1.48898437 4.14054687 -1.38671875 3.21484375 C-1 1 -1 1 0 0 Z " fill="#1E72AB" transform="translate(310,340)"/>
<path d="M0 0 C0.721875 0.763125 1.44375 1.52625 2.1875 2.3125 C4.82671962 5.03795952 4.82671962 5.03795952 7.75 6.625 C10 8 10 8 11 11 C7.46180427 10.42073787 5.74971757 9.15676523 3.25 6.625 C2.63640625 6.01914063 2.0228125 5.41328125 1.390625 4.7890625 C0 3 0 3 0 0 Z " fill="#D5C83A" transform="translate(228,231)"/>
<path d="M0 0 C0.75 1.5625 0.75 1.5625 1 4 C-0.13084437 6.50286409 -1.52139516 8.67007722 -3 11 C-3.66 11 -4.32 11 -5 11 C-3.55049545 7.2089881 -1.84827434 3.6125362 0 0 Z " fill="#1F72AA" transform="translate(325,296)"/>
<path d="M0 0 C0.9075 0.61875 1.815 1.2375 2.75 1.875 C5.14948817 3.44389611 7.40961612 4.80443821 10 6 C9.34 6.66 8.68 7.32 8 8 C5.03 6.35 2.06 4.7 -1 3 C-0.67 2.01 -0.34 1.02 0 0 Z " fill="#E9E9E0" transform="translate(351,225)"/>
<path d="M0 0 C0.66 1.32 1.32 2.64 2 4 C0.02 5.32 -1.96 6.64 -4 8 C-4.66 7.34 -5.32 6.68 -6 6 C-5.195625 5.38125 -4.39125 4.7625 -3.5625 4.125 C-0.96125481 2.25835959 -0.96125481 2.25835959 0 0 Z " fill="#E8D324" transform="translate(402,398)"/>
<path d="M0 0 C-1.1875 2 -1.1875 2 -3 4 C-5.6875 4.25 -5.6875 4.25 -8 4 C-8 3.01 -8 2.02 -8 1 C-2.25 -1.125 -2.25 -1.125 0 0 Z " fill="#E5DC29" transform="translate(155,122)"/>
<path d="M0 0 C1.5 1.125 1.5 1.125 3 3 C3.1875 6.1875 3.1875 6.1875 3 9 C2.34 8.01 1.68 7.02 1 6 C0.34 7.32 -0.32 8.64 -1 10 C-1.125 3.375 -1.125 3.375 0 0 Z " fill="#0767BC" transform="translate(291,444)"/>
<path d="M0 0 C0.99 0.66 1.98 1.32 3 2 C1.35 3.65 -0.3 5.3 -2 7 C-2.33 5.35 -2.66 3.7 -3 2 C-2.01 1.34 -1.02 0.68 0 0 Z " fill="#0A68B8" transform="translate(336,284)"/>
<path d="M0 0 C0 0.99 0 1.98 0 3 C-1.75 4.75 -1.75 4.75 -4 6 C-5.32 5.67 -6.64 5.34 -8 5 C-4.04 2.525 -4.04 2.525 0 0 Z " fill="#E4D63B" transform="translate(349,243)"/>
<path d="M0 0 C0.66 0.33 1.32 0.66 2 1 C-0.25 3.5625 -0.25 3.5625 -3 6 C-4.32 5.67 -5.64 5.34 -7 5 C-4.69 3.35 -2.38 1.7 0 0 Z " fill="#DFC950" transform="translate(137,154)"/>
<path d="M0 0 C3.43595166 1.52708963 6.11912454 3.59927045 9 6 C3.50847458 5.38983051 3.50847458 5.38983051 1.125 3.5625 C0 2 0 2 0 0 Z " fill="#F1CF3C" transform="translate(440,148)"/>
<path d="M0 0 C4.455 0.99 4.455 0.99 9 2 C6 4 6 4 2.8125 3.625 C1.884375 3.41875 0.95625 3.2125 0 3 C0 2.01 0 1.02 0 0 Z " fill="#E5DD27" transform="translate(424,118)"/>
<path d="M0 0 C0 3.86695678 -1.41909971 6.5088452 -3 10 C-4.32 9.34 -5.64 8.68 -7 8 C-6.5875 7.608125 -6.175 7.21625 -5.75 6.8125 C-3.67115087 4.65940626 -1.84531043 2.35436159 0 0 Z " fill="#EBEAE1" transform="translate(258,241)"/>
<path d="M0 0 C0.66 0 1.32 0 2 0 C0.99806563 3.79303725 0.18975773 6.71536341 -2 10 C-1.85950482 8.52031676 -1.71245174 7.04125484 -1.5625 5.5625 C-1.48128906 4.73878906 -1.40007812 3.91507812 -1.31640625 3.06640625 C-1 1 -1 1 0 0 Z " fill="#D8C427" transform="translate(356,438)"/>
<path d="M0 0 C2.97 0 5.94 0 9 0 C9 0.33 9 0.66 9 1 C7.35 1.33 5.7 1.66 4 2 C4 2.33 4 2.66 4 3 C2.35 3 0.7 3 -1 3 C-0.67 2.01 -0.34 1.02 0 0 Z " fill="#D8D03A" transform="translate(214,384)"/>
</svg>
